<?xml version="1.0" encoding="UTF-8"?>
<svg id="Layer_2" data-name="Layer 2" xmlns="http://www.w3.org/2000/svg" viewBox="0 0 958.59 1077.26">
  <defs>
    <style>
      .cls-1 {
        fill: #010101;
      }

      .cls-2 {
        fill: #fff;
      }

      .cls-3 {
        fill: #b0d4f1;
      }
    </style>
  </defs>
  <g id="_ÎÓÈ_2" data-name="—ÎÓÈ_2">
    <g>
      <g>
        <path class="cls-3" d="M613.37,28.51c-45.73-13.14-94.24-16.51-141.35-9.84-8.07,1.14-16.33,2.67-23.19,7.07-7.94,5.09-13.09,13.43-18.48,21.17-35.12,50.5-125.3,49.11-171.97,89.19-110.43,94.84-146.68,263.27-187.21,403.08-40.54,139.8-50.76,286.64-51.72,432.2-.07,10.7,0,21.84,4.68,31.47,10.27,21.12,38.9,26.64,61.58,20.54,22.68-6.1,42.08-20.57,63.56-30.06,57.35-25.33,123.23-13.4,185.58-6.83,86.86,9.15,174.92,6.85,261.19-6.8,66.98-10.6,145.95-24.51,193.88,23.47,20.67,20.69,37.6,53.38,66.79,51.68,23.26-1.35,38.15-24.9,47.34-46.32,52.09-121.39,49.78-258.61,39.42-390.3-8.52-108.4-22.28-217.94-63.33-318.62-41.04-100.69-112.44-192.77-210.96-238.78-29.6-13.82-61.83-23.73-86.63-44.99"/>
        <path class="cls-2" d="M102.69,499.3c-5.61-.94-11.61-1.7-16.79.65-5.18,2.35-8.79,9.02-5.9,13.92,1.21,2.04,3.27,3.4,5.26,4.69,31.7,20.48,64.9,41.52,102.41,45.68,5.91.66,12.26.79,17.4-2.21,5.14-3,8.23-10.18,4.96-15.15-1.48-2.26-3.93-3.65-6.29-4.97-35.2-19.63-71.37-39.61-111.22-45.62"/>
        <path class="cls-2" d="M238.42,541.05c-11.47-1.88-18.72,14.69-12.86,24.73,5.87,10.04,18.46,13.76,30,15.18,36.14,4.43,72.29-5.28,108.37-10.16,133.05-18.01,271.16,29.44,401.2-3.96,7.04-1.81,14.2-3.94,19.95-8.38,5.75-4.44,9.86-11.71,8.6-18.86-30.47.13-60.95-2.06-91.08-6.54-36.67-5.45-72.95-14.31-109.98-16.02-24.32-1.12-48.66.85-72.88,3.28-53.29,5.36-106.35,12.95-159.01,22.75-41.4,7.71-86.42,16.31-123.83-3.03"/>
        <path class="cls-2" d="M819.43,543.97c28.95-9.14,58.3-16.99,87.95-23.51,2.49-.55,5.24-1.06,7.49.14,3.64,1.94,3.81,7.5,1.37,10.83-2.45,3.33-6.54,4.94-10.44,6.3-27.77,9.69-57.07,14.97-86.47,15.59-2.57.05-5.97-.63-6.2-3.19-.09-1.02.43-2,1.02-2.84,3.31-4.78,9.37-7.51,15.15-6.81"/>
        <path class="cls-2" d="M205.04,849.13c96.4,14.88,195.11,14.66,291.44-.66,20.28-3.23,40.46-7.12,60.87-9.41,38.37-4.31,77.38-2.91,115.34,4.14,24.4,4.53,48.41,11.39,73.1,13.96,24.68,2.57,50.72.53,72.32-11.7-34.45-12.91-71.41-17.27-107.95-21.47-70.52-8.11-141.76-16.01-212.32-8.26-64.24,7.05-127.85,27.04-192.21,21.11-31.6-2.91-62.47-12.04-94.16-13.61-2.62-.13-5.37-.18-7.72.99-4.32,2.15-5.8,7.88-4.62,12.56,1.19,4.68,4.39,8.54,7.5,12.23"/>
        <path class="cls-2" d="M190.19,832.07c-58.53-22.42-117.39-44-176.55-64.72-1.19,8.04,4.66,15.32,10.65,20.81,17.8,16.3,39.89,27.01,61.63,37.49,11.64,5.61,23.42,11.27,36.05,13.98,12.73,2.73,25.89,2.37,38.91,2,10.78-.31,21.55-.61,32.33-.92"/>
        <path class="cls-2" d="M828.36,853c-6.08.03-11.85,4.53-13.36,10.42,35.7,5.19,73.04,10.24,107.1-1.64,13.51-4.71,27.35-13.66,30.26-27.67-9.14-6.26-21.37-1.4-31.77,2.4-31.35,11.46-65.5,11.57-98.79,14.02"/>
        <path class="cls-2" d="M390.85,163.94c24.99-37.3,49.98-74.6,74.97-111.9,2.63-3.93,7.05-8.39,11.28-6.28,3.98,1.99,3.46,7.76,2.3,12.06-11.3,41.86-28.07,85.24-63.06,110.85-3.66,2.68-7.66,5.2-12.17,5.74-4.5.54-9.6-1.45-11.35-5.64-2.03-4.85,1.1-10.44,5.21-13.72"/>
        <path class="cls-2" d="M516.82,51.46c-13.96,31.78-24.98,64.84-32.89,98.63-1.8,7.68-3.44,15.53-2.86,23.39.59,7.86,3.69,15.87,9.88,20.75,1.16.91,2.57,1.74,4.02,1.48,1.84-.33,2.91-2.23,3.7-3.92,18.06-38.58,28.28-80.82,29.85-123.39.24-6.49-.17-13.98-5.33-17.94"/>
        <path class="cls-2" d="M562.48,51.42c-4.54,5.37-5.51,12.81-6.16,19.8-1.36,14.43-2.18,28.92-2.48,43.41-.3,14.44-.05,29.02,3.29,43.07,3.34,14.05,10.01,27.65,20.85,37.18,1.16,1.02,2.63,2.05,4.11,1.62,1.59-.46,2.25-2.31,2.64-3.91,5.8-23.66,4.19-48.65-1.13-72.43-5.32-23.77-14.25-46.56-23.15-69.24"/>
        <path class="cls-2" d="M605.43,41.16c.26-1.08-1.7-.77-2.35.13-3.84,5.4-3.09,12.69-2.18,19.25,4.48,32.35,9.16,65.39,23.9,94.53,4.53,8.95,12.29,18.61,22.21,17.21,7.19-1.01,12.37-7.9,13.91-15,2.46-11.36-2.28-22.9-6.93-33.55-9.4-21.55-18.81-43.1-28.21-64.65-2.09-4.78-4.24-9.67-7.79-13.49s-8.84-6.46-13.96-5.47"/>
        <path class="cls-2" d="M653.92,78.77c-.24,3.63,2.21,6.85,4.63,9.57,16.3,18.34,37.62,32.17,61.01,39.57,3.32,1.05,7.14,1.92,10.11.09,3.89-2.4,3.98-8.42,1.37-12.17-2.61-3.75-7.01-5.78-11.21-7.58-14.82-6.35-29.93-12.05-45.25-17.08-11.07-3.63-23.83-8.42-27.24-19.55"/>
        <path class="cls-2" d="M438.33,40.85c-14.53,53.16-64.08,94.86-118.95,100.08-4.45.42-10.38-.45-11.12-4.86-.34-2.03.69-4.03,1.83-5.75,5.57-8.42,14.26-14.17,22.72-19.68,14.55-9.5,29.1-19,43.66-28.49,8.21-5.36,16.47-10.75,23.62-17.45,11.46-10.73,20.97-25.28,36.19-29.12"/>
      </g>
      <g>
        <path class="cls-1" d="M952.51,708.03c-7.12-57.98-18.07-115.41-27.09-173.11-1.7-11.08-3.45-22.15-5.23-33.22.45-1.06.38-2.14-.52-3.21-4.32-26.68-8.87-53.31-13.68-79.9-3.15-19.15-6.54-38.25-11.05-57.14-3.15-13.52-6.09-27.1-9.49-40.56-3.88-14.16-8.76-28.03-13.57-41.89-6.39-18.35-12.79-36.74-21.81-54-12.76-24.1-27.23-47.62-46.21-67.36-12.11-12.4-24.6-24.73-39.77-33.38-7.03-4.14-14.75-6.86-22.17-10.16-2.69-1.22-2.85-.76-6.54-4.11-.14-.14-.29-.28-.45-.41,0,0-.01-.01-.02-.02,0,0,0,0,0,0-.91-.76-2.13-1.46-3.75-2.09-5.66-2.42-11.57-4.16-17.35-6.27-17.89-6.43-34.94-15.01-50.94-25.49-6.6-4.37-12.95-9.2-18.22-15.15-3.77-4.51-7.23-9.27-10.65-14.04-6.22-8.55-11.36-20.19-16.02-29.74,0,0,0,0,0,0-.85-1.89-2.27-3.69-4.38-5.3-3.59-2.46-7.77-3.46-11.89-4.81-18.49-4.66-37.71-5.76-56.71-6.4-19.24-.25-38.53-.62-57.75.68-12.57,1.13-25.1,3.13-37.39,6.02-8.45,2.52-22.65,4.87-23.93,15.48-.67.87-.72,2-.34,2.98,0,.2,0,.39.04.58-.32,1.68-.81,3.32-1.32,4.95-4.65,11.61-9.21,23.64-16.89,33.64-13.94,14.85-32.27,24.57-50.07,34.12-9.03,4.59-18.84,9.05-28.17,13.5-4.22,2.05-9.4,4.09-12.76,7.53-.02.02-.05.03-.07.06-.02.03-.04.05-.06.07-.48.51-.92,1.04-1.32,1.61-6.1,7.32-8.74,8.46-14.02,11.19-16.4,8.58-34,14.79-49.73,24.66-8.42,5.31-16.48,11.35-23.59,18.32-7.1,7.51-13.1,15.98-18.8,24.58-28.42,43.6-48.23,91.84-69.54,139.12-13.97,31.78-29.49,62.92-41.75,95.42-10.95,29.71-21.06,59.69-30.36,89.99-7.35,25.36-13.99,50.91-21.01,76.36-11.04,42.11-22.33,84.2-31.43,126.78-6.72,37.31-12.15,75.02-14.11,112.91-1.32,26.49-.39,53.06,1.8,79.48,1.42,14.11,1.92,30.44,11.57,46.71.24.55.62.96,1.09,1.28-.72,1.63-1.43,3.26-2.06,4.92-4.44,11.57-7.39,23.18-8.68,35.62-.19,4.67-1.29,9.76.71,14.16.65,1.24,2.11,1.86,3.38,2.25,3.5,1.03,7.12,1.59,10.69,2.32,5.58,1.12,10.99,2.88,16.37,4.68,20.44,7.29,41.88,12.85,63.33,16.35,4.86.33,7.71-3.87,9.81-7.64,4.76-7.9,7.84-16.7,10.6-25.47,1.14-3.75,2.07-7.56,2.79-11.42,1.42.16,2.85.22,4.29.09,14.32-2.5,27.56-9.5,40.6-15.72,25.34-11.84,46.48-31.18,62.72-53.8,3.17,5.41,6.54,10.71,10.2,15.81.26.37.58.66.93.89.33.67.89,1.22,1.62,1.53,3.09,1.29,6.37,2.18,9.59,3.08,20.58,5.99,41.9,8.89,63.32,9,19.33.55,38.68,1.05,58.02.35,38.67-1.33,77.07-6.36,115.66-8.77,35.99-2.57,72.13-3.03,108.11,0,25.53,1.69,50.99,5.52,76.63,4.9,19.75-.64,39.4-2.82,59.01-5.15,6.01,10.41,14.18,19.37,22.29,28.2,8.97,9.15,17.46,18.8,26.88,27.52,9.98,8.92,19.84,17.41,30.79,25.25-.01.07-.03.13-.04.2-.08.97.31,1.89.98,2.51,2.76,7.67,4.51,15.58,6.28,23.54,2.95,17.77,25.78,13.4,38.94,13.18,12.5-.66,25.1-1.44,37.23-4.74,9.78-1.16,12.59-12.06,13.72-20.34,1.49-8.51,3.15-21.06,4.19-29.67.9-1.12,1.84-2.2,2.76-3.3,8.12-8.22,13.5-18.53,18.02-29.06,13.56-33.55,20.13-69.52,21.51-105.59,4.17-58.62,2.62-117.51-3.75-175.91ZM938.63,652.75c8.92,53.58,13.79,107.89,13.96,162.23-15.66,10.1-32.41,18.4-49.93,24.77-17.71,6.44-36.11,10.92-54.8,13.25-10.34,1.29-20.76,1.92-31.18,1.92,3.82-17.48,6.73-35.17,8.58-52.97,2.64-25.84,2.82-51.88,3.07-77.84.14-41.27-3.11-82.33-7.06-123.41-1.35-13.3-3.51-26.51-5.85-39.71,27.32-7.82,55.4-13.34,81.82-24.01,7.15-2.89,14.14-6.18,20.89-9.9,6.66,41.91,13.72,83.76,20.5,125.65ZM812.7,839.99c-39.74-5.13-79.56-9.58-119.46-13.3-39.65-3.7-79.45-7.33-119.26-8.47-19.92-.57-39.86-.29-59.73,1.31-20.03,1.61-39.94,4.34-59.82,7.23-39.44,5.72-78.77,11.61-118.72,11.75-40.07.14-79.98-4.01-119.73-8.62-4.96-.57-9.91-1.16-14.87-1.74-.02,0-.04,0-.06,0-.73-7.83-1.21-15.69-1.62-23.54-2.87-39.27-.73-78.65,1.51-117.89,3.23-40.73,6.93-81.61,13.62-121.95,33.83,14.36,71.31,16.19,107.5,12.66,40.23-3.92,79.44-14.37,119.39-20.15,40.76-5.9,81.77-4.96,122.68-1.12,40.21,3.78,80.17,10.27,120.47,13.16,37.17,2.67,75.68,1.92,110.92-11.52,4.18-1.59,8.27-3.38,12.3-5.31,3.56,18.9,6.41,37.76,8.34,56.99,1.68,18.34,2.83,36.71,4.27,55.07,2.75,42.94,2.52,85.6-.39,128.62-1.34,15.79-3.56,31.49-6.51,47.06-.25-.11-.52-.19-.83-.23ZM210.14,553.89c-18.38-1.93-35.94-7.92-53.06-14.62-17.38-6.8-34.56-14.33-52.57-19.37-9.14-2.56-18.44-4.35-27.89-5.13,1.72-5.56,3.48-11.11,5.29-16.65,17.77,3.44,43.92,10.54,60,17.46,15.05,6.09,29.85,12.82,45.16,18.26,7.77,2.31,15.4,6.15,23.65,6.14.82,0,1.54-.07,2.19-.19-.95,4.69-1.84,9.4-2.68,14.11-.03,0-.05-.02-.08-.02ZM915.38,509.79c.58,3.74,1.19,7.47,1.78,11.21-.39.07-.78.21-1.14.42-24.97,14-53.07,20.83-80.56,27.95-7.05,1.83-14.1,3.69-21.11,5.68-.67-3.74-1.35-7.48-2.02-11.22,2.2-.83,3.91-2.13,6.78-2.85,16.99-4.93,33.05-12.68,50.09-17.39,15.46-3.45,31.62-5.86,44.64-15.66.3-.28.68-.58,1.09-.91.15.93.3,1.85.45,2.78ZM806.16,543.93c.17.83.32,1.66.48,2.49-.01,0-.03,0-.04.01-33.94,16.49-72.08,19.41-109.27,17.67-39.57-1.86-78.84-8.3-118.2-12.46-40.12-4.24-80.69-6.78-120.93-2.53-40.57,4.28-80.12,14.86-120.49,20.41-36.08,4.97-73.84,5.86-108.82-5.71-4.34-1.43-8.6-3.1-12.79-4.92-.18-.08-.35-.13-.53-.17,1.31-7.52,2.73-15.01,4.27-22.49,16.67,8.33,33.32,17.68,52.06,20.27,21.79,4.21,44.01,1.27,65.53-3.16,19.88-3.6,39.13-9.79,58.72-14.61,17.96-4.32,36.21-7.11,54.43-10.04,19.95-3.23,40.11-4.69,60.31-4.71,21.53-.21,43.11,2.24,64.58,4.47,24.99,2.2,49.72,6.52,74.54,10.06,30.93,4.45,62.25,5.8,93.48,5.65,16.82-.24,33.3-3.79,49.55-7.88,3.74-.91,7.55-1.8,11.39-2.58.57,3.41,1.14,6.82,1.74,10.23ZM650.6,74.35c17,12.86,36.17,22.73,55.93,30.6,7.99,3.25,16.56,5.15,24.23,9.11,0,0,0,0,0,0-2.1,3.42-5.26,6-8.18,8.7-1.02.9-2.06,1.78-3.09,2.66-.23-.21-.5-.41-.81-.58-16.35-6.06-32.5-13.29-46.13-24.39-10.66-9.35-22.31-18.92-31.16-30.26-3.84-5.05-7.1-10.87-9.93-16.82,5.55,7.72,11.49,15.19,19.12,20.97ZM615.79,30.04c.81,2.27,1.6,4.54,2.41,6.81,7.89,22.65,17.3,39.55,35.86,55.27,6.96,6.17,13.63,12.66,21.28,18,12,8.3,25.42,14.53,39.11,19.5-3.46,2.79-7,5.48-10.65,8.02-4.32,3.04-8.8,5.69-13.41,8.08-3.62-1.9-8.91-5.19-11.2-6.88-4.99-3.44-10.16-6.7-14.62-10.84-6.25-6.93-11.89-14.4-17.17-22.08-7.11-10.38-12.84-21.73-18.63-33.09-5.56-11.35-10.55-23.17-18.36-33.21-.81-.84-1.61-1.96-2.48-3,.58-.35,1.17-.68,1.74-1.05,2.43-1.48,4.53-3.39,6.11-5.53ZM553.15,182.85c-9.63,1.04-19.31,1.66-29,1.71-3.31.02-6.62-.02-9.93-.08,1.24-7.23,2.56-14.44,3.94-21.65,2.41-12.31,4.78-24.64,5.59-37.17.62-9.55,1.61-19.06,2.73-28.57.57-6.52,1.39-13.03,3.19-19.34,2.37-9.01,4.85-17.99,7.97-26.78.1-.2.16-.4.21-.6,4.05.14,8.09.21,12.14.19,0,.27.02.53.07.79-.95,15.65-.11,31.31-.08,46.97-.3,12.4,1.26,24.73,1.34,37.11-.19,9.31-.57,18.63-.2,27.94.09,6.53.33,13.17,2.02,19.47ZM400.16,146.39c11.44-11.51,25.24-21.39,35.41-34.23,7.63-10.2,13.47-21.82,17-34.05,3.28-10.84,5.93-22.29,11.56-32.25.64-1.43,2.21-2.52,2.62-3.97,5.64,1.33,11.34,2.45,17.06,3.38-2.4,5-4.75,10.02-6.63,15.25-11.16,27.76-15.45,58.73-33.98,83.05-5.39,7.04-12.02,12.72-18.13,19.17-2.41,2.58-4.82,5.17-7.06,7.9-1.26-.31-2.52-.61-3.77-.93-9.37-2.25-18.31-5.76-27.2-9.41,4.18-4.81,8.71-9.31,13.12-13.91ZM381.15,157.88c-2.17-.89-4.34-1.78-6.52-2.64-8.11-3.16-16.27-6.2-24.39-9.33-3.95-1.59-7.97-3.02-11.96-4.51,8.3-4.15,17.03-7.88,25.12-12.52,21.9-12.3,47.41-22.14,61.6-44.04,9.39-13.61,12.38-30.3,20.89-44.35.5-1.06,1.66-2.45,2.43-3.88,4.04,1.37,8.12,2.6,12.25,3.7-.24.33-.47.67-.69,1-3.34,5.24-5.64,11.07-7.62,16.95-3.09,9.22-5.12,18.6-8.74,27.68-3.35,7.93-7.44,15.53-12.61,22.43-7.68,9.88-17.68,17.48-26.75,25.99-4.65,4.23-9.18,8.57-13.45,13.17-3.23,3.39-6.55,6.74-9.55,10.34ZM427.51,168.97c3.87-4.29,7.66-7.85,11.91-12.06,25.5-24.49,30.53-61.02,42.79-92.62,2.12-6.04,4.58-11.34,7.46-17.28.12-.26.19-.53.24-.81,3.14.45,6.29.85,9.44,1.2,2.03.23,4.06.44,6.1.65-.35.92-.63,1.91-1.07,2.7-4.38,10.21-8.04,20.97-9.79,31.98-1.83,10.83-2.53,21.6-5.04,32.37-4.05,19.83-13.36,38-18.62,57.49-.77,2.7-1.53,5.5-2.27,8.36-4-.53-7.99-1.1-11.97-1.75-10.7-2.1-21.48-4.41-32.15-6.96.98-1.1,1.98-2.18,2.97-3.27ZM476.53,174.88c1.16-4.05,2.47-8.13,3.82-12.17,3.62-11.92,9.06-23.21,12.34-35.23,1.62-6.18,3.15-12.38,4.26-18.68,2.12-12.38,2.72-24.91,6.27-37.13,1.86-6.48,4.2-12.83,6.88-19.02.37-1.18,1.35-2.53,1.52-4,6.64.62,13.29,1.12,19.95,1.46-.14.45-.27.9-.44,1.32-1.55,4.43-2.87,8.93-4.17,13.43-1.72,6.1-3.47,12.21-4.78,18.41-1.92,12.59-3.14,25.32-4.12,38.02-.9,16.82-4.47,33.28-7.6,49.79-.79,4.41-1.57,8.82-2.33,13.23-11.18-.4-22.34-1.28-33.45-2.59.59-2.29,1.21-4.57,1.85-6.84ZM557.14,162.78c-.48-10.55.3-21.09.19-31.72-1.06-15.52-1.44-31.04-1.47-46.6-.42-11.37-.18-22.54.17-33.98.13,0,.26,0,.39,0,2.84-.23,5.69-.51,8.55-.84-.21.69-.16,1.49.3,2.32,2.12,8.14,4.44,16.22,6.77,24.3,2.83,10.66,3.88,21.66,5.22,32.58,2.61,23.07,8.1,45.81,15.88,67.68-11.23,2.25-22.54,4.21-33.91,5.64-1.86-6.22-1.97-12.91-2.07-19.36ZM590.99,149.64c-3.72-14.38-6.33-29-8.05-43.76,0,.05.01.07.01.09,0,.05.01.1.02.14-1.26-10.9-2.44-21.88-5.41-32.48-2.49-7.95-4.56-17.14-7.11-24.73,5.78-.86,11.53-2.02,17.12-3.64.59,2.99,1.72,5.88,2.68,8.78,2.03,5.93,4.5,11.69,6.61,17.58,3.31,10,5.54,20.15,8.11,30.49,3,12.15,5.61,24.4,8.71,36.52,2.61,10.4,7.47,20.64,13.42,29.78-9.3,2.51-18.66,4.78-27.99,6.84-2.92-8.47-5.72-16.99-8.11-25.62ZM619.35,136.57c-5.56-22.12-9.9-44.6-16.62-66.41-3.07-8.62-6.86-17-9.25-25.86.02.07.04.14.06.21,0,.06.01.13.02.19-.06-.47-.19-.87-.39-1.21,3.14-1.11,6.21-2.38,9.2-3.85,12.03,12.87,17.42,30.3,25.92,45.48,8.61,16.91,19.13,32.85,31.84,46.96,4.23,4.17,9.35,7.4,14.24,10.75,3.08,2.22,6.25,4.32,9.67,5.99-6.53,3-13.29,5.59-20.24,8.06-10.03,3.69-20.31,6.95-30.7,9.9-.08-.22-.18-.43-.32-.65-1.32-2.03-2.61-4.07-3.81-6.17-4.2-7.18-7.56-15.24-9.61-23.39ZM432.41,21.19c-.06.12-.11.22-.17.36,6.25-9.27,43.08-13.19,55.01-14.58,17.32-1.21,34.69-.87,52.04-.82,21.45.63,43.4,1.23,64.1,7.35,6.83,1.72,13.18,6.41,7.14,13.48-5.15,5.4-12.46,8.14-19.26,10.85-10.21,3.31-20.85,5.3-31.53,6.4-14.61.96-29.14-.16-43.75-1.2-28.66-2.59-58.18-6.52-84.04-19.86-.11-.69.11-1.38.46-1.98ZM319.14,127.06s0-.05,0-.08c.03-.26.08-.53.15-.79,0-.03.01-.05.02-.08.08-.27.19-.54.33-.81.02-.04.04-.07.06-.11.15-.27.32-.54.53-.81.13-.13.28-.24.42-.36.45-.41.9-.81,1.38-1.17,4.19-3.2,9.42-4.88,14.09-7.29,3.79-1.8,7.6-3.56,11.38-5.35,22.59-11.12,45.76-22.58,63.64-40.78,5.64-6.41,9.29-14.25,12.8-21.96,2.42-5.73,5.26-11.41,6.88-17.43,1.09.37,2.6.88,4.78,1.72,2.27.98,4.57,1.89,6.88,2.77-.02.04-.04.08-.06.12-3.09,4.94-5.83,10.06-8.12,15.42-5.69,15.01-11.25,30.81-23.09,42.2-14.38,13.54-33.07,21.59-50.3,31.12-8.16,4.57-16.62,8.5-25.1,12.43-1.41.87-3.47,1.55-4.65,2.8-1.56-.65-3.11-1.32-4.64-2.04-2.94-1.56-6.97-5.01-7.36-8.56,0-.05-.01-.09-.01-.14-.02-.27-.03-.54,0-.81ZM106.45,428.26c9.55-24.04,20.76-47.38,31.37-70.96,23.83-52.13,44.83-105.83,76.23-154.1,5.51-8.1,11.09-16.21,17.84-23.33,5.57-5.48,11.85-10.22,18.22-14.71,16.59-11.19,35.75-17.86,53.42-27.07,3.62-1.83,7.12-3.89,10.58-6.02,3.89,9.74,17.21,12.99,26.48,16.6,8.18,3.1,16.32,6.26,24.5,9.36,4.56,1.66,9.06,3.49,13.54,5.34,0,0,0,0,0,0,.55.23,1.11.46,1.67.69,7.1,2.93,14.18,5.88,21.47,8.32,17.09,5.27,34.67,8.85,52.18,12.43,4.42.77,8.87,1.44,13.32,2.05,0,0,0,.02,0,.02.79.11,1.59.2,2.38.31.66.09,1.31.17,1.97.25.53.07,1.07.14,1.6.21,0,0,0-.01,0-.02,12.15,1.47,24.38,2.37,36.61,2.76.06.02.12.04.18.06.41.09.83.08,1.23-.01,3.47.1,6.95.17,10.42.19,11.4-.09,22.77-.8,34.09-2.03,1.72-.19,3.43-.38,5.15-.59,0,0,0-.01,0-.02,31.41-3.83,62.41-11.54,92.49-21.13,12.29-4.18,24.58-8.46,36.34-13.98,15.29-7.55,29.01-18.07,41.35-29.78,1.75-1.68,3.35-3.46,4.44-5.22,5.6,2.27,11.2,4.98,16.88,7.21,14.43,6.44,26.82,16.39,37.96,27.56,21.67,20.16,38.14,44.95,52.13,70.86,11.55,21.31,19.16,44.37,27.08,67.19,3.12,9.22,6.28,18.45,8.98,27.8,15.57,59.71,25.28,120.7,35.23,181.56-.18.19-.35.37-.53.54-2.75,2.53-5.88,4.58-9.13,6.41-10.63,5.71-22.97,7.77-34.74,10.37-15.31,3.62-29.51,10.75-44.5,15.4-4.95,1.62-9.18,2.92-13.72,4.49-.79-4.49-1.55-8.98-2.26-13.47-4.89-33.84-13.13-67.03-23.75-99.52-4.04-12.67-8.58-25.17-13.54-37.51-4.54-11.26-9.5-22.39-16.71-32.22,0,0,0,0,0,0-1.22-1.68-4.05-1.32-4.97.47-.58,1.08-.41,2.28.26,3.25,2.36,3.66,5.18,7.56,7.25,11.54,4.56,9,8.31,18.39,12,27.77,9.84,26.17,17.9,52.72,24.62,79.9,3.93,16.59,6.63,33.43,9.39,50.26-12.82,2.67-25.38,6.36-38.37,8.44-9.56,1.48-19.3,2.09-29.02,1.99-26.74-.21-53.69-1.34-80.3-4.97-30.98-4.52-61.89-9.47-93.1-12.11-43.72-5.42-88.08-3.65-131.32,4.65-12.17,1.85-24.24,4.23-36.22,7.05-20.19,4.98-40.04,11.34-60.55,14.97-29.3,6.39-61.03,7.67-88.76-5.5-6.39-2.95-12.75-6.04-19.02-9.29-1.86-.84-3.68-2.14-5.67-2.72,2.31-10.72,4.87-21.38,7.77-31.98,8.46-31.42,21.49-61.48,34.92-91.06,9.01-19.86,19.44-39.34,24.8-60.65.81-3.43,1.8-6.85,2.17-10.36.12-1.64-1.04-3.12-2.71-3.29-1.89-.21-3.41,1.48-3.35,3.31-1.35,7.53-3.47,14.92-5.96,22.15-7.07,19.42-16.83,37.73-25.12,56.65-9.28,20.93-18.19,42.08-25.31,63.85-5.11,15.9-9.06,32.15-12.75,48.44-.43,1.88-.83,3.77-1.24,5.65-.7-.01-1.5.23-2.35.84-5.13.73-10.07-1.49-14.89-2.95-6.08-2.01-12.14-4.05-18.09-6.45-18.27-7.14-35.96-15.84-54.78-21.5-10.4-3.38-29.22-8.35-40.39-10.69.87-2.62,1.74-5.23,2.63-7.85,6.21-18.46,12.87-37.75,19.97-56.12ZM20.64,728.9c5.8-28.13,13.28-55.85,20.23-83.71,10.92-41.62,21.46-83.39,33.97-124.56,17.87,1.19,35.17,6.71,51.81,13.05,17.33,6.61,34.32,14.17,52.07,19.65,9.86,3.05,19.94,5.39,30.21,6.47.09,0,.18,0,.28,0-2.53,15.11-4.58,30.3-6.43,45.51-4.04,33.4-7.32,66.93-8.93,100.54-1.19,26.23-2.62,52.48-1.49,78.74.89,16.88,1.44,33.82,3.36,50.62-24.04-1.27-47.92-5.71-70.84-13.07-24.47-7.86-47.25-19.67-69.84-31.77-13.53-7.25-27.07-14.5-40.6-21.75-.08-.04-.16-.06-.24-.1,1.86-13.26,3.9-26.49,6.44-39.63ZM115.91,1003.97c-2.8,12.58-7.06,25.62-14.26,36.71-1.03,2.15-2.97,2.03-4.97,1.47-5.73-1.16-11.58-2.3-17.32-3.51-16.56-3.31-32.3-9-48.37-14.2-6.77-2.4-13.95-3.15-20.86-5-.62-6.56.52-13.19,1.58-19.66,1.1-5.98,2.73-12.57,4.78-18.5,1.06-3.15,2.49-6.97,3.95-10.33.97.48,1.95.96,2.92,1.45,8.29,4.23,16.89,7.84,25.59,11.15,14.82,5.66,30.41,9,45.61,13.47,6.19,1.55,12.28,3.38,18.43,5.06,1.05.27,2.11.56,3.18.82-.07.38-.15.74-.26,1.06ZM206.52,952.79c-7.21,7.28-15.19,13.81-23.55,19.72-9.98,6.42-20.16,11.33-31.07,16.38-4.83,2.18-9.69,4.28-14.69,6.06-4.38,1.43-8.99,3.46-13.75,3.19-1.21-.18-2.41-.4-3.61-.64-.33-.07-.65-.14-.97-.21-8.55-1.8-16.86-4.8-25.37-6.8-12.13-3.51-24.45-6.45-36.46-10.35-10.1-3.66-20.13-7.73-29.77-12.51-1.91-.95-3.83-1.89-5.74-2.83-.56-.79-1.49-1.31-2.51-1.29-.03,0-.07,0-.1,0-.34-.17-.68-.34-1.03-.51-3.91-4.97-6.23-19.56-7.14-23.65-3.2-16.73-3.12-26.27-3.9-43.38-2.1-36.42-.12-72.96,4.86-109.08.53-4.01,1.07-8.02,1.62-12.03,11.63,6.23,23.26,12.46,34.89,18.7,11.65,6.24,23.28,12.51,35.19,18.25,23.11,11.14,47.36,19.63,72.56,24.54,13.37,2.61,26.91,4.2,40.51,4.9.13.93.23,1.85.37,2.78,2.81,19.38,8.74,38.2,15.68,56.46,4.2,9.63,8.74,19.16,13.82,28.38-5.82,8.55-12.88,16.34-19.83,23.92ZM729.53,950.56s0,0,0,0c-4.12.43-8.27.88-12.48,1.48-17.79,1.77-36.53,3.69-54.63,3.4-23.97-.78-47.79-3.94-71.71-5.46-25.79-1.65-51.71-2.39-77.51-.85-39.38,1.59-78.51,6.32-117.82,8.97-25.35,1.88-50.76,1.69-76.15.94-23.55-.09-47.1-2.96-69.62-10.05-1.36-.24-3.04-1.14-4.62-1.61-.03-.05-.05-.11-.09-.16-2.45-3.49-4.88-7.01-7.14-10.62-1.6-2.53-3.1-5.09-4.56-7.69-1.06-1.88-2.09-3.79-3.09-5.7-2.23-4.25-4.35-8.57-6.48-12.91-8.27-16.27-13.35-33.93-17.96-51.53-1.85-8.09-3.1-16.27-4.02-24.49,38.91,4.57,77.9,9.07,117.1,10.06,19.92.5,39.84.02,59.69-1.7,19.82-1.72,39.53-4.48,59.22-7.35,39.65-5.78,79.18-11.44,119.35-11.32,40.07.11,80.15,3.73,120.03,7.28,39.91,3.55,79.76,7.81,119.51,12.77,4.97.62,9.94,1.25,14.91,1.9.34.04.64.02.94-.02-2.54,12.59-5.55,25.08-8.98,37.46-4.57,15.83-7.69,32.96-18.3,46.24-2.63,3.29-5.05,6.93-8.96,8.87-6.54,3.34-13.3,6.35-20.33,8.49-7.18,1.55-14.28,2.37-21.45,3.12-1.62.17-3.23.34-4.86.5ZM903.85,1050.53c-1.06,5.08-1.66,13.79-7.96,15.21-11.45,3.17-23.75,4.19-35.69,4.78-9.35.27-19.01,1.82-28.15-.76-7.16-1.72-6.43-10.45-8.2-16.19-1.16-4.7-2.45-9.39-3.99-13.98.13-.11.24-.22.35-.35,3.12-.61,6.11-.76,9.45-1.2,9.49-1.16,18.96-2.43,28.43-3.69,16.35-2.31,32.74-4.61,49.01-7.48-.94,7.91-1.91,15.8-3.25,23.65ZM952.16,846.99c-1.63,29.9-1.96,60.08-7.94,89.51-5.22,23.64-11.5,47.58-24.22,68.53-2.5,4.15-6.14,7.4-9.14,11.17-1.18,1.25-2.52,2.83-2.6,4.36-21.69,3.77-43.5,6.88-65.33,9.73-8.32,1.3-16.78,1.86-25.08,3.17-14.07-10.01-27.22-21.11-39.56-33.39-12.14-12.84-24.87-25.17-35.57-39.3-1.17-1.73-2.3-3.49-3.39-5.26,5.28-.56,10.76-1.17,15.84-2.24,6.21-1.34,12.01-4.05,17.8-6.57,4.66-2.07,9.48-4.31,12.8-8.31,2.69-3.24,5.32-6.52,7.66-10.01,3.14-4.42,5.26-9.45,7.16-14.5,4.08-11.32,7.1-22.98,10.17-34.61,1.65-6.13,3.19-12.29,4.62-18.47.31.09.64.15.98.15,19.3.05,38.54-2.16,57.37-6.42,18.72-4.24,36.96-10.59,54.26-18.9,8.45-4.06,16.67-8.59,24.62-13.55-.04,8.31-.18,16.61-.44,24.91Z"/>
        <path class="cls-1" d="M31.83,894.54c-.44-3.84-6.46-3.46-6.01.4,2.33,20.29,8.06,40.13,17.04,58.48.72,1.46,2.17,2.43,3.84,1.85,1.4-.49,2.57-2.37,1.85-3.84-8.75-17.87-14.45-37.13-16.72-56.89Z"/>
        <path class="cls-1" d="M51.54,926.02c-1.56.1-3.01,1.58-2.81,3.21,1.02,8.2,1.21,16.5.43,24.73-.15,1.62.63,3.21,2.35,3.56,1.46.3,3.4-.72,3.56-2.35.84-8.78.77-17.59-.32-26.34-.2-1.62-1.51-2.92-3.21-2.81Z"/>
        <path class="cls-1" d="M163.92,946.73c-8.11,15.07-22.75,25.98-39.4,29.77-1.59.36-2.35,2.42-1.85,3.84.58,1.68,2.25,2.22,3.84,1.85,18.14-4.12,34.02-16.42,42.81-32.77,1.84-3.42-3.56-6.1-5.39-2.69Z"/>
        <path class="cls-1" d="M803.38,983.76c-.8-1.42-2.92-1.67-4.19-.81-1.44.97-1.61,2.76-.8,4.19,6.28,11.09,12.56,22.19,18.84,33.28.8,1.42,2.92,1.67,4.19.8,1.44-.97,1.61-2.76.8-4.19-6.28-11.09-12.56-22.19-18.84-33.28Z"/>
        <path class="cls-1" d="M828.91,998.08c-.52-1.49-2.33-2.46-3.84-1.85-1.52.6-2.41,2.24-1.85,3.84,1.6,4.58,3.2,9.16,4.8,13.74.52,1.49,2.33,2.46,3.84,1.85,1.52-.6,2.41-2.24,1.85-3.84-1.6-4.58-3.2-9.16-4.8-13.74Z"/>
        <path class="cls-1" d="M920.36,957.82c-1.76-.36-3.04.8-3.56,2.35-6.37,18.94-15.68,36.96-27.42,53.13-.95,1.32-1.02,3.11.28,4.25,1.14,1,3.29,1.04,4.25-.28,12.39-17.08,22.06-35.89,28.79-55.89.52-1.54-.89-3.26-2.35-3.56Z"/>
        <path class="cls-1" d="M889.78,1004.5c1.01-3.49,2.02-6.98,3.03-10.47.44-1.52-.83-3.32-2.35-3.56-1.72-.27-3.09.72-3.56,2.35-1.01,3.49-2.02,6.98-3.03,10.47-.44,1.52.83,3.32,2.35,3.56,1.72.27,3.09-.72,3.56-2.35Z"/>
        <path class="cls-1" d="M240.95,884.47c-.3-1.6-1.44-2.92-3.21-2.81-1.47.1-3.11,1.6-2.81,3.21,2.91,15.35,10.42,29.43,21.68,40.29,2.8,2.7,6.76-1.85,3.97-4.53-10.01-9.66-17.04-22.47-19.64-36.15Z"/>
        <path class="cls-1" d="M259.74,900.85c-.73-1.45-2.96-1.63-4.19-.8-1.49,1.01-1.54,2.72-.8,4.19,3.51,6.99,6.44,14.27,8.86,21.7,1.2,3.69,6.89,1.71,5.69-1.98-2.59-7.95-5.81-15.64-9.56-23.1Z"/>
        <path class="cls-1" d="M763.46,925.92c9.07-11.57,16.56-24.32,22.18-37.9.62-1.5.17-3.28-1.35-4.04-1.38-.69-3.42-.16-4.04,1.35-5.42,13.11-12.57,25.45-21.32,36.62-2.39,3.04,2.14,7.03,4.53,3.97Z"/>
        <path class="cls-1" d="M753.79,906.14c-1.7.19-2.82,1.52-2.81,3.21,0,.71,0,1.43-.02,2.14,0,.31-.03.61-.04.92-.01.21-.02.3-.02.29-.01.14-.02.28-.03.43-.11,1.32-.28,2.64-.5,3.94-.22,1.31-.49,2.61-.82,3.89-.18.69-.37,1.38-.58,2.06-.09.29-.18.58-.28.88-.05.15-.1.31-.15.46-.02.04-.04.12-.09.24-.53,1.48-.25,3.33,1.35,4.04,1.34.6,3.47.23,4.04-1.35,2.12-5.92,3.2-12.05,3.14-18.35-.02-1.58-1.65-2.98-3.21-2.81Z"/>
        <path class="cls-1" d="M266.39,179.52c7.1-8.62,16.24-15.36,26.62-19.5,3.59-1.43,1.63-7.13-1.98-5.69-11.32,4.52-21.41,11.81-29.17,21.23-2.46,2.99,2.06,6.97,4.53,3.97Z"/>
        <path class="cls-1" d="M262.42,195.87c1.45.65,3.34.18,4.04-1.35,3.69-8.01,9.51-14.39,17.23-18.84,1.41-.81,1.67-2.91.8-4.19-.97-1.43-2.77-1.62-4.19-.8-8.38,4.84-15.19,12.36-19.24,21.14-.66,1.43-.16,3.37,1.35,4.04Z"/>
        <path class="cls-1" d="M752.48,143.86c.48.12.96.26,1.44.4.19.06.38.12.57.18-.01,0,.31.1.46.15.12.04.51.18.49.18.19.07.37.14.56.21.46.18.92.37,1.38.57,1.73.75,3.41,1.63,5.01,2.63.17.1.34.21.5.32.08.05.13.08.18.11.02.01.02.02.05.03.37.25.73.51,1.09.78.76.56,1.5,1.15,2.22,1.76.72.61,1.41,1.26,2.08,1.92.35.35.7.71,1.03,1.07.1.11.2.22.3.33,0,0,.37.43.37.43,1.02,1.2,2.78,1.85,4.19.8,1.19-.89,1.89-2.9.81-4.19-5.64-6.65-13.07-11.4-21.52-13.6-1.53-.4-3.31.8-3.56,2.35-.27,1.68.71,3.13,2.35,3.56Z"/>
        <path class="cls-1" d="M755.99,152.24c-.98,1.22-1.03,3.2.28,4.25,5.97,4.75,11.94,9.5,17.92,14.25,1.23.98,3.2,1.03,4.25-.28.98-1.22,1.03-3.2-.28-4.25-5.97-4.75-11.94-9.5-17.92-14.25-1.23-.98-3.2-1.03-4.25.28Z"/>
      </g>
    </g>
  </g>
</svg>