<svg width="64" height="64" viewBox="0 0 64 64" fill="none" xmlns="http://www.w3.org/2000/svg">
<path d="M44.7083 3.01063H54.3333M59.21 58.8805C60.1982 57.6774 60.75 56.0444 60.75 54.344V15.844C60.75 14.1436 60.1982 12.5073 59.21 11.3074C58.2315 10.1011 56.8968 9.4273 55.5044 9.4273H26.6903C21.156 9.4273 20.0844 3.87368 15.2783 3.09405C14.4313 2.95609 13.5522 3.01063 12.6956 3.01063C9.63804 3.01063 8.11087 3.01063 6.90775 3.52076C5.37731 4.17128 4.1592 5.39054 3.51012 6.92159C3 8.1183 3 9.64547 3 12.703V54.344C3 56.0444 3.55183 57.6806 4.54 58.8805C5.52175 60.0837 6.85642 60.7606 8.24883 60.7606H55.5012C56.8936 60.7606 58.225 60.0869 59.21 58.8805Z" stroke="black" stroke-opacity="0.5" stroke-width="4.8125" stroke-linecap="round" stroke-linejoin="round"/>
<path d="M36.6873 47.9273C40.0909 47.9273 43.3552 46.5753 45.7619 44.1686C48.1686 41.7618 49.5207 38.4976 49.5207 35.094C49.5207 31.6904 48.1686 28.4262 45.7619 26.0195C43.3552 23.6128 40.0909 22.2607 36.6873 22.2607C33.2837 22.2607 30.0195 23.6128 27.6128 26.0195C25.2061 28.4262 23.854 31.6904 23.854 35.094C23.854 38.4976 25.2061 41.7618 27.6128 44.1686C30.0195 46.5753 33.2837 47.9273 36.6873 47.9273Z" stroke="black" stroke-opacity="0.5" stroke-width="4.8125" stroke-linecap="round" stroke-linejoin="round"/>
</svg>
