<svg width="301" height="123" viewBox="0 0 301 123" fill="none" xmlns="http://www.w3.org/2000/svg">
<mask id="path-1-outside-1_2_1898" maskUnits="userSpaceOnUse" x="10.9448" y="29" width="256" height="64" fill="black">
<rect fill="white" x="10.9448" y="29" width="256" height="64"/>
<path d="M74.2349 32.783C75.5457 32.9703 76.4353 33.3682 76.9034 33.9769C77.4184 34.5855 77.6759 35.3814 77.6759 36.3645C77.6759 39.5949 75.9437 41.0931 72.4792 40.859L70.0213 40.6483C67.2591 40.4142 64.4969 40.2269 61.7347 40.0865C59.0193 39.946 56.1635 39.8758 53.1672 39.8758H50.0071C49.4453 46.8047 48.86 53.125 48.2514 58.8367L60.3302 58.626C62.0624 58.626 63.2095 58.9303 63.7713 59.539C64.3799 60.1476 64.6842 60.9669 64.6842 61.9969C64.6842 63.5886 64.216 64.8527 63.2797 65.789C62.3433 66.6786 61.0091 67.1233 59.2768 67.1233H47.2683L46.8469 70.143C45.8638 77.8678 43.757 83.3688 40.5266 86.646C37.3431 89.9232 32.9423 91.5618 27.3242 91.5618C24.1407 91.5618 21.2146 90.883 18.546 89.5253C15.8775 88.1208 13.9111 86.4353 12.6471 84.469C12.1321 83.6731 11.8746 82.7134 11.8746 81.5898C11.8746 80.4662 12.1321 79.483 12.6471 78.6403C13.2089 77.7976 13.8877 77.3762 14.6836 77.3762C15.2454 77.3762 15.7838 77.5635 16.2988 77.9381C16.8606 78.3126 17.5629 79.0383 18.4056 80.115C20.6528 83.0645 23.4384 84.5393 26.7624 84.5393C29.431 84.5393 31.6548 83.4625 33.4338 81.3089C35.2597 79.1085 36.4301 75.6674 36.9451 70.9857L37.3665 67.1233H33.9956C32.9189 67.1233 31.9825 66.819 31.1866 66.2104C30.4375 65.6018 30.063 64.7356 30.063 63.612C30.063 62.1607 30.4375 61.0605 31.1866 60.3114C31.9357 59.5156 33.0359 59.1176 34.4872 59.1176C35.7981 59.1176 37.0856 59.0942 38.3496 59.0474C38.9114 53.8975 39.5201 47.6474 40.1755 40.2972C35.1193 40.7653 31.5612 41.5846 29.5012 42.7551C27.4413 43.9255 26.4113 45.6577 26.4113 47.9517C26.4113 49.5435 26.8795 51.0651 27.8158 52.5164C28.0967 52.9378 28.2371 53.3591 28.2371 53.7805C28.2371 54.6232 27.769 55.3722 26.8326 56.0277C25.8963 56.6363 24.8429 56.9406 23.6725 56.9406C22.4084 56.9406 21.3316 56.5661 20.4421 55.817C19.8803 55.3488 19.3419 54.3891 18.8269 52.9378C18.3119 51.4864 18.0544 49.8712 18.0544 48.0922C18.0544 42.2869 21.0273 38.0734 26.9731 35.4516C32.9657 32.8298 41.697 31.519 53.1672 31.519C61.1261 31.519 68.1487 31.9403 74.2349 32.783ZM74.5097 53.64C72.5434 53.64 71.0687 53.1953 70.0855 52.3057C69.1024 51.3694 68.6108 50.0819 68.6108 48.4433C68.6108 46.8047 69.2428 45.447 70.5069 44.3702C71.8178 43.2466 73.4329 42.6848 75.3524 42.6848C77.0847 42.6848 78.4892 43.1062 79.566 43.9489C80.6428 44.7916 81.1812 45.9854 81.1812 47.5304C81.1812 49.4031 80.5725 50.9012 79.3553 52.0248C78.1381 53.1016 76.5229 53.64 74.5097 53.64ZM73.9479 91.3511C70.9048 91.3511 68.681 90.2743 67.2765 88.1208C65.9188 85.9672 65.24 83.1113 65.24 79.5532C65.24 77.4465 65.4975 74.7545 66.0125 71.4773C66.5743 68.1533 67.2765 65.0634 68.1192 62.2075C68.5406 60.7094 69.1024 59.6794 69.8046 59.1176C70.5069 58.5558 71.6305 58.2749 73.1755 58.2749C75.5631 58.2749 76.757 59.0708 76.757 60.6626C76.757 61.833 76.3122 64.5484 75.4227 68.8087C74.2991 73.9586 73.7373 77.4465 73.7373 79.2723C73.7373 80.6768 73.9245 81.7536 74.2991 82.5027C74.6736 83.2518 75.3056 83.6263 76.1952 83.6263C77.0379 83.6263 78.0912 83.0411 79.3553 81.8707C80.6194 80.7003 82.3048 78.851 84.4115 76.3229C84.9733 75.6674 85.6054 75.3397 86.3076 75.3397C86.9163 75.3397 87.3844 75.6206 87.7121 76.1824C88.0867 76.7442 88.2739 77.5167 88.2739 78.4999C88.2739 80.3725 87.8292 81.8239 86.9397 82.8538C82.3048 88.5187 77.9742 91.3511 73.9479 91.3511ZM123.464 75.3397C124.072 75.3397 124.54 75.6206 124.868 76.1824C125.243 76.7442 125.43 77.5167 125.43 78.4999C125.43 80.3725 124.985 81.8239 124.096 82.8538C122.036 85.2883 119.765 87.3249 117.284 88.9635C114.849 90.5552 112.087 91.3511 108.997 91.3511C106.609 91.3511 104.479 90.9064 102.607 90.0168C100.781 89.1273 99.3293 87.8633 98.2526 86.2247C95.584 89.5955 92.4238 91.2809 88.7721 91.2809C86.1972 91.2809 84.1606 90.5318 82.6625 89.0337C81.1643 87.5355 80.4153 85.5458 80.4153 83.0645C80.4153 80.7237 80.9537 78.8276 82.0305 77.3762C83.1072 75.9249 84.6288 75.1993 86.5951 75.1993C88.2805 75.1993 89.1232 75.8313 89.1232 77.0953C89.1232 77.4231 89.0764 78.0083 88.9828 78.851C88.8423 80.5364 88.7721 81.4961 88.7721 81.7302C88.7721 83.1347 89.3807 83.837 90.598 83.837C91.4875 83.837 92.3302 83.322 93.1261 82.292C93.9688 81.2152 94.6476 79.7639 95.1626 77.9381C95.7244 76.1122 96.0053 74.0991 96.0053 71.8987C96.0053 70.2132 95.7947 68.8087 95.3733 67.6851C94.952 66.5147 94.437 65.9295 93.8283 65.9295C93.3134 65.9295 92.9388 66.0699 92.7047 66.3508C92.4707 66.5849 92.2366 67.0063 92.0025 67.6149C91.7216 68.364 91.347 68.9726 90.8789 69.4408C90.4107 69.8621 89.5914 70.0728 88.421 70.0728C87.391 70.0728 86.5717 69.7217 85.9631 69.0194C85.3545 68.2703 85.0502 67.1467 85.0502 65.6486C85.0502 63.2609 85.7758 61.3882 87.2271 60.0305C88.6785 58.6728 90.5512 57.994 92.8452 57.994C94.8115 57.994 96.5906 58.4856 98.1823 59.4687C99.7741 60.4051 100.991 61.7862 101.834 63.612C103.239 61.7394 104.807 60.3349 106.539 59.3985C108.318 58.4622 110.05 57.994 111.736 57.994C113.562 57.994 114.943 58.4154 115.879 59.2581C116.862 60.1008 117.354 61.4585 117.354 63.3311C117.354 65.4379 116.956 67.0999 116.16 68.3172C115.364 69.4876 114.404 70.0728 113.281 70.0728C112.251 70.0728 111.549 69.8621 111.174 69.4408C110.8 69.0194 110.519 68.4108 110.331 67.6149C110.238 67.0531 110.097 66.6317 109.91 66.3508C109.723 66.0699 109.395 65.9295 108.927 65.9295C108.365 65.9295 107.756 66.4679 107.101 67.5447C106.492 68.5746 105.954 69.9557 105.486 71.688C105.064 73.4202 104.854 75.2227 104.854 77.0953C104.854 79.2957 105.369 81.0046 106.399 82.2218C107.476 83.3922 108.927 83.9774 110.753 83.9774C112.579 83.9774 114.287 83.3688 115.879 82.1516C117.518 80.8875 119.414 78.9446 121.567 76.3229C122.129 75.6674 122.761 75.3397 123.464 75.3397ZM189.286 75.3397C189.894 75.3397 190.362 75.6206 190.69 76.1824C191.065 76.7442 191.252 77.5167 191.252 78.4999C191.252 80.3257 190.807 81.777 189.918 82.8538C187.671 85.5692 185.4 87.676 183.106 89.1741C180.812 90.6255 178.096 91.3511 174.96 91.3511C171.495 91.3511 168.663 90.3446 166.462 88.3314C164.262 86.2715 162.202 83.0879 160.283 78.7808C158.878 75.6908 157.708 73.3968 156.771 71.8987C155.882 70.3537 154.992 69.2769 154.103 68.6683C153.213 68.0128 152.09 67.6149 150.732 67.4744L149.959 72.6711C148.976 79.366 147.057 84.1881 144.201 87.1376C141.392 90.0871 137.506 91.5618 132.543 91.5618C129.313 91.5618 126.434 90.7893 123.906 89.2444C121.424 87.6526 119.692 85.6395 118.709 83.205C118.381 82.3623 118.217 81.4493 118.217 80.4662C118.217 79.0617 118.545 77.8444 119.201 76.8144C119.856 75.7845 120.699 75.2695 121.729 75.2695C122.337 75.2695 122.852 75.4333 123.274 75.7611C123.695 76.042 124.093 76.5569 124.468 77.306C125.919 80.0214 127.183 81.9175 128.26 82.9943C129.383 84.0711 130.764 84.6095 132.403 84.6095C134.276 84.6095 135.867 83.7668 137.178 82.0814C138.536 80.3491 139.496 77.704 140.058 74.1459L141.041 67.4744H139.917C138.84 67.4744 137.998 67.1701 137.389 66.5615C136.78 65.9529 136.476 65.1102 136.476 64.0334C136.476 62.8162 136.78 61.8564 137.389 61.1541C138.044 60.4051 138.84 60.0305 139.777 60.0305H142.094C142.422 57.7365 142.656 56.1447 142.796 55.2552L144.973 39.4545C143.756 39.314 142.609 39.2438 141.532 39.2438C137.553 39.2438 134.533 39.946 132.473 41.3505C130.413 42.7082 129.383 44.6746 129.383 47.2495C129.383 48.4199 129.5 49.3797 129.734 50.1287C130.015 50.831 130.366 51.6269 130.788 52.5164C130.975 52.8909 131.069 53.3123 131.069 53.7805C131.069 54.8104 130.577 55.7234 129.594 56.5193C128.658 57.2683 127.604 57.6429 126.434 57.6429C124.936 57.6429 123.835 56.9874 123.133 55.6766C121.729 53.1953 121.026 50.5267 121.026 47.6708C121.026 44.7214 121.822 42.0294 123.414 39.5949C125.053 37.1604 127.511 35.2175 130.788 33.7662C134.065 32.268 138.115 31.519 142.937 31.519C145.044 31.519 146.963 31.636 148.695 31.8701C150.474 32.1042 152.417 32.5489 154.524 33.2044C156.818 33.9066 157.965 35.2175 157.965 37.137C157.965 39.712 156.865 40.9994 154.665 40.9994L151.926 59.8901C157.403 59.3283 161.851 56.9874 165.269 52.8675C168.733 48.7008 171.612 43.0594 173.906 35.9432C174.328 34.6323 175.03 33.6257 176.013 32.9235C177.043 32.2212 178.331 31.8701 179.875 31.8701C181.186 31.8701 182.193 32.1744 182.895 32.783C183.644 33.3448 184.019 34.1641 184.019 35.2409C184.019 35.5686 183.925 36.107 183.738 36.8561C181.397 44.5809 178.05 50.714 173.696 55.2552C169.342 59.7965 164.59 62.8162 159.44 64.3143C161.219 64.7356 162.67 65.3677 163.794 66.2104C164.964 67.0531 165.947 68.1065 166.743 69.3705C167.539 70.5878 168.452 72.2966 169.482 74.497C170.933 77.5869 172.291 79.7873 173.555 81.0982C174.819 82.3623 176.294 82.9943 177.979 82.9943C179.478 82.9943 180.905 82.5027 182.263 81.5196C183.621 80.4896 185.33 78.7573 187.39 76.3229C187.951 75.6674 188.583 75.3397 189.286 75.3397ZM190.516 91.3511C188.737 91.3511 187.473 90.4148 186.724 88.5421C186.022 86.6694 185.671 83.6731 185.671 79.5532C185.671 73.467 186.537 67.6851 188.269 62.2075C188.69 60.8498 189.369 59.8667 190.306 59.2581C191.289 58.6026 192.646 58.2749 194.379 58.2749C195.315 58.2749 195.97 58.3919 196.345 58.626C196.72 58.8601 196.907 59.3049 196.907 59.9603C196.907 60.7094 196.556 62.3948 195.853 65.0166C195.385 66.8892 195.011 68.5278 194.73 69.9323C194.449 71.3369 194.215 73.0691 194.028 75.129C195.573 71.1028 197.305 67.8256 199.224 65.2975C201.144 62.7693 203.016 60.9669 204.842 59.8901C206.715 58.8133 208.424 58.2749 209.969 58.2749C213.012 58.2749 214.533 59.7965 214.533 62.8396C214.533 64.6654 214.018 67.966 212.988 72.7414C212.099 76.8144 211.654 79.5064 211.654 80.8173C211.654 82.69 212.333 83.6263 213.691 83.6263C214.627 83.6263 215.727 83.0645 216.991 81.9409C218.302 80.7705 220.034 78.8978 222.188 76.3229C222.75 75.6674 223.382 75.3397 224.084 75.3397C224.693 75.3397 225.161 75.6206 225.489 76.1824C225.863 76.7442 226.05 77.5167 226.05 78.4999C226.05 80.3725 225.606 81.8239 224.716 82.8538C222.703 85.3351 220.526 87.3717 218.185 88.9635C215.891 90.5552 213.269 91.3511 210.32 91.3511C207.932 91.3511 206.13 90.6723 204.913 89.3146C203.695 87.9101 203.087 85.8969 203.087 83.2752C203.087 81.9643 203.414 79.6235 204.07 76.2526C204.678 73.3032 204.983 71.2666 204.983 70.143C204.983 69.3939 204.725 69.0194 204.21 69.0194C203.602 69.0194 202.736 69.8153 201.612 71.4071C200.535 72.952 199.412 75.012 198.241 77.5869C197.117 80.1619 196.205 82.8772 195.502 85.7331C194.987 87.9335 194.379 89.4316 193.676 90.2275C193.021 90.9766 191.968 91.3511 190.516 91.3511ZM229.568 53.64C227.602 53.64 226.127 53.1953 225.144 52.3057C224.161 51.3694 223.669 50.0819 223.669 48.4433C223.669 46.8047 224.301 45.447 225.565 44.3702C226.876 43.2466 228.491 42.6848 230.411 42.6848C232.143 42.6848 233.548 43.1062 234.625 43.9489C235.701 44.7916 236.24 45.9854 236.24 47.5304C236.24 49.4031 235.631 50.9012 234.414 52.0248C233.197 53.1016 231.581 53.64 229.568 53.64ZM229.006 91.3511C225.963 91.3511 223.74 90.2743 222.335 88.1208C220.977 85.9672 220.298 83.1113 220.298 79.5532C220.298 77.4465 220.556 74.7545 221.071 71.4773C221.633 68.1533 222.335 65.0634 223.178 62.2075C223.599 60.7094 224.161 59.6794 224.863 59.1176C225.565 58.5558 226.689 58.2749 228.234 58.2749C230.622 58.2749 231.815 59.0708 231.815 60.6626C231.815 61.833 231.371 64.5484 230.481 68.8087C229.358 73.9586 228.796 77.4465 228.796 79.2723C228.796 80.6768 228.983 81.7536 229.358 82.5027C229.732 83.2518 230.364 83.6263 231.254 83.6263C232.096 83.6263 233.15 83.0411 234.414 81.8707C235.678 80.7003 237.363 78.851 239.47 76.3229C240.032 75.6674 240.664 75.3397 241.366 75.3397C241.975 75.3397 242.443 75.6206 242.771 76.1824C243.145 76.7442 243.332 77.5167 243.332 78.4999C243.332 80.3725 242.888 81.8239 241.998 82.8538C237.363 88.5187 233.033 91.3511 229.006 91.3511ZM249.238 64.9463C249.144 67.2872 249.098 69.113 249.098 70.4239C249.098 73.7947 249.261 76.4399 249.589 78.3594C249.964 80.2321 250.549 81.5898 251.345 82.4325C252.187 83.2284 253.334 83.6263 254.786 83.6263C255.535 83.6263 256.424 83.3922 257.454 82.9241C258.484 82.4559 259.421 81.8473 260.263 81.0982C260.778 80.63 261.293 80.3959 261.808 80.3959C262.37 80.3959 262.815 80.7237 263.143 81.3791C263.517 81.9877 263.704 82.7368 263.704 83.6263C263.704 84.5158 263.517 85.382 263.143 86.2247C262.815 87.0674 262.3 87.7696 261.598 88.3314C259.163 90.3446 256.401 91.3511 253.311 91.3511C248.863 91.3511 245.61 89.5019 243.55 85.8033C241.49 82.0579 240.46 77.189 240.46 71.1964C240.46 69.1365 240.53 67.0531 240.67 64.9463H237.932C236.527 64.9463 235.567 64.6888 235.052 64.1738C234.584 63.6589 234.35 62.8396 234.35 61.716C234.35 59.0942 235.404 57.7833 237.51 57.7833H241.513C242.309 52.6335 243.526 47.9283 245.165 43.668C246.804 39.4076 248.77 36.0134 251.064 33.4853C253.405 30.9572 255.909 29.6931 258.578 29.6931C260.544 29.6931 262.089 30.5592 263.213 32.2915C264.336 34.0237 264.898 36.2007 264.898 38.8224C264.898 46.0791 261.855 52.3994 255.769 57.7833H263.634C264.383 57.7833 264.922 57.9472 265.249 58.2749C265.577 58.6026 265.741 59.2112 265.741 60.1008C265.741 63.3311 263.096 64.9463 257.806 64.9463H249.238ZM256.682 36.4348C255.98 36.4348 255.184 37.3243 254.294 39.1033C253.452 40.8356 252.632 43.27 251.836 46.4068C251.087 49.4967 250.455 52.9378 249.94 56.7299C252.702 54.3423 254.762 51.6737 256.12 48.7242C257.525 45.7279 258.227 43.0126 258.227 40.5781C258.227 37.8159 257.712 36.4348 256.682 36.4348Z"/>
</mask>
<path d="M74.2349 32.783C75.5457 32.9703 76.4353 33.3682 76.9034 33.9769C77.4184 34.5855 77.6759 35.3814 77.6759 36.3645C77.6759 39.5949 75.9437 41.0931 72.4792 40.859L70.0213 40.6483C67.2591 40.4142 64.4969 40.2269 61.7347 40.0865C59.0193 39.946 56.1635 39.8758 53.1672 39.8758H50.0071C49.4453 46.8047 48.86 53.125 48.2514 58.8367L60.3302 58.626C62.0624 58.626 63.2095 58.9303 63.7713 59.539C64.3799 60.1476 64.6842 60.9669 64.6842 61.9969C64.6842 63.5886 64.216 64.8527 63.2797 65.789C62.3433 66.6786 61.0091 67.1233 59.2768 67.1233H47.2683L46.8469 70.143C45.8638 77.8678 43.757 83.3688 40.5266 86.646C37.3431 89.9232 32.9423 91.5618 27.3242 91.5618C24.1407 91.5618 21.2146 90.883 18.546 89.5253C15.8775 88.1208 13.9111 86.4353 12.6471 84.469C12.1321 83.6731 11.8746 82.7134 11.8746 81.5898C11.8746 80.4662 12.1321 79.483 12.6471 78.6403C13.2089 77.7976 13.8877 77.3762 14.6836 77.3762C15.2454 77.3762 15.7838 77.5635 16.2988 77.9381C16.8606 78.3126 17.5629 79.0383 18.4056 80.115C20.6528 83.0645 23.4384 84.5393 26.7624 84.5393C29.431 84.5393 31.6548 83.4625 33.4338 81.3089C35.2597 79.1085 36.4301 75.6674 36.9451 70.9857L37.3665 67.1233H33.9956C32.9189 67.1233 31.9825 66.819 31.1866 66.2104C30.4375 65.6018 30.063 64.7356 30.063 63.612C30.063 62.1607 30.4375 61.0605 31.1866 60.3114C31.9357 59.5156 33.0359 59.1176 34.4872 59.1176C35.7981 59.1176 37.0856 59.0942 38.3496 59.0474C38.9114 53.8975 39.5201 47.6474 40.1755 40.2972C35.1193 40.7653 31.5612 41.5846 29.5012 42.7551C27.4413 43.9255 26.4113 45.6577 26.4113 47.9517C26.4113 49.5435 26.8795 51.0651 27.8158 52.5164C28.0967 52.9378 28.2371 53.3591 28.2371 53.7805C28.2371 54.6232 27.769 55.3722 26.8326 56.0277C25.8963 56.6363 24.8429 56.9406 23.6725 56.9406C22.4084 56.9406 21.3316 56.5661 20.4421 55.817C19.8803 55.3488 19.3419 54.3891 18.8269 52.9378C18.3119 51.4864 18.0544 49.8712 18.0544 48.0922C18.0544 42.2869 21.0273 38.0734 26.9731 35.4516C32.9657 32.8298 41.697 31.519 53.1672 31.519C61.1261 31.519 68.1487 31.9403 74.2349 32.783ZM74.5097 53.64C72.5434 53.64 71.0687 53.1953 70.0855 52.3057C69.1024 51.3694 68.6108 50.0819 68.6108 48.4433C68.6108 46.8047 69.2428 45.447 70.5069 44.3702C71.8178 43.2466 73.4329 42.6848 75.3524 42.6848C77.0847 42.6848 78.4892 43.1062 79.566 43.9489C80.6428 44.7916 81.1812 45.9854 81.1812 47.5304C81.1812 49.4031 80.5725 50.9012 79.3553 52.0248C78.1381 53.1016 76.5229 53.64 74.5097 53.64ZM73.9479 91.3511C70.9048 91.3511 68.681 90.2743 67.2765 88.1208C65.9188 85.9672 65.24 83.1113 65.24 79.5532C65.24 77.4465 65.4975 74.7545 66.0125 71.4773C66.5743 68.1533 67.2765 65.0634 68.1192 62.2075C68.5406 60.7094 69.1024 59.6794 69.8046 59.1176C70.5069 58.5558 71.6305 58.2749 73.1755 58.2749C75.5631 58.2749 76.757 59.0708 76.757 60.6626C76.757 61.833 76.3122 64.5484 75.4227 68.8087C74.2991 73.9586 73.7373 77.4465 73.7373 79.2723C73.7373 80.6768 73.9245 81.7536 74.2991 82.5027C74.6736 83.2518 75.3056 83.6263 76.1952 83.6263C77.0379 83.6263 78.0912 83.0411 79.3553 81.8707C80.6194 80.7003 82.3048 78.851 84.4115 76.3229C84.9733 75.6674 85.6054 75.3397 86.3076 75.3397C86.9163 75.3397 87.3844 75.6206 87.7121 76.1824C88.0867 76.7442 88.2739 77.5167 88.2739 78.4999C88.2739 80.3725 87.8292 81.8239 86.9397 82.8538C82.3048 88.5187 77.9742 91.3511 73.9479 91.3511ZM123.464 75.3397C124.072 75.3397 124.54 75.6206 124.868 76.1824C125.243 76.7442 125.43 77.5167 125.43 78.4999C125.43 80.3725 124.985 81.8239 124.096 82.8538C122.036 85.2883 119.765 87.3249 117.284 88.9635C114.849 90.5552 112.087 91.3511 108.997 91.3511C106.609 91.3511 104.479 90.9064 102.607 90.0168C100.781 89.1273 99.3293 87.8633 98.2526 86.2247C95.584 89.5955 92.4238 91.2809 88.7721 91.2809C86.1972 91.2809 84.1606 90.5318 82.6625 89.0337C81.1643 87.5355 80.4153 85.5458 80.4153 83.0645C80.4153 80.7237 80.9537 78.8276 82.0305 77.3762C83.1072 75.9249 84.6288 75.1993 86.5951 75.1993C88.2805 75.1993 89.1232 75.8313 89.1232 77.0953C89.1232 77.4231 89.0764 78.0083 88.9828 78.851C88.8423 80.5364 88.7721 81.4961 88.7721 81.7302C88.7721 83.1347 89.3807 83.837 90.598 83.837C91.4875 83.837 92.3302 83.322 93.1261 82.292C93.9688 81.2152 94.6476 79.7639 95.1626 77.9381C95.7244 76.1122 96.0053 74.0991 96.0053 71.8987C96.0053 70.2132 95.7947 68.8087 95.3733 67.6851C94.952 66.5147 94.437 65.9295 93.8283 65.9295C93.3134 65.9295 92.9388 66.0699 92.7047 66.3508C92.4707 66.5849 92.2366 67.0063 92.0025 67.6149C91.7216 68.364 91.347 68.9726 90.8789 69.4408C90.4107 69.8621 89.5914 70.0728 88.421 70.0728C87.391 70.0728 86.5717 69.7217 85.9631 69.0194C85.3545 68.2703 85.0502 67.1467 85.0502 65.6486C85.0502 63.2609 85.7758 61.3882 87.2271 60.0305C88.6785 58.6728 90.5512 57.994 92.8452 57.994C94.8115 57.994 96.5906 58.4856 98.1823 59.4687C99.7741 60.4051 100.991 61.7862 101.834 63.612C103.239 61.7394 104.807 60.3349 106.539 59.3985C108.318 58.4622 110.05 57.994 111.736 57.994C113.562 57.994 114.943 58.4154 115.879 59.2581C116.862 60.1008 117.354 61.4585 117.354 63.3311C117.354 65.4379 116.956 67.0999 116.16 68.3172C115.364 69.4876 114.404 70.0728 113.281 70.0728C112.251 70.0728 111.549 69.8621 111.174 69.4408C110.8 69.0194 110.519 68.4108 110.331 67.6149C110.238 67.0531 110.097 66.6317 109.91 66.3508C109.723 66.0699 109.395 65.9295 108.927 65.9295C108.365 65.9295 107.756 66.4679 107.101 67.5447C106.492 68.5746 105.954 69.9557 105.486 71.688C105.064 73.4202 104.854 75.2227 104.854 77.0953C104.854 79.2957 105.369 81.0046 106.399 82.2218C107.476 83.3922 108.927 83.9774 110.753 83.9774C112.579 83.9774 114.287 83.3688 115.879 82.1516C117.518 80.8875 119.414 78.9446 121.567 76.3229C122.129 75.6674 122.761 75.3397 123.464 75.3397ZM189.286 75.3397C189.894 75.3397 190.362 75.6206 190.69 76.1824C191.065 76.7442 191.252 77.5167 191.252 78.4999C191.252 80.3257 190.807 81.777 189.918 82.8538C187.671 85.5692 185.4 87.676 183.106 89.1741C180.812 90.6255 178.096 91.3511 174.96 91.3511C171.495 91.3511 168.663 90.3446 166.462 88.3314C164.262 86.2715 162.202 83.0879 160.283 78.7808C158.878 75.6908 157.708 73.3968 156.771 71.8987C155.882 70.3537 154.992 69.2769 154.103 68.6683C153.213 68.0128 152.09 67.6149 150.732 67.4744L149.959 72.6711C148.976 79.366 147.057 84.1881 144.201 87.1376C141.392 90.0871 137.506 91.5618 132.543 91.5618C129.313 91.5618 126.434 90.7893 123.906 89.2444C121.424 87.6526 119.692 85.6395 118.709 83.205C118.381 82.3623 118.217 81.4493 118.217 80.4662C118.217 79.0617 118.545 77.8444 119.201 76.8144C119.856 75.7845 120.699 75.2695 121.729 75.2695C122.337 75.2695 122.852 75.4333 123.274 75.7611C123.695 76.042 124.093 76.5569 124.468 77.306C125.919 80.0214 127.183 81.9175 128.26 82.9943C129.383 84.0711 130.764 84.6095 132.403 84.6095C134.276 84.6095 135.867 83.7668 137.178 82.0814C138.536 80.3491 139.496 77.704 140.058 74.1459L141.041 67.4744H139.917C138.84 67.4744 137.998 67.1701 137.389 66.5615C136.78 65.9529 136.476 65.1102 136.476 64.0334C136.476 62.8162 136.78 61.8564 137.389 61.1541C138.044 60.4051 138.84 60.0305 139.777 60.0305H142.094C142.422 57.7365 142.656 56.1447 142.796 55.2552L144.973 39.4545C143.756 39.314 142.609 39.2438 141.532 39.2438C137.553 39.2438 134.533 39.946 132.473 41.3505C130.413 42.7082 129.383 44.6746 129.383 47.2495C129.383 48.4199 129.5 49.3797 129.734 50.1287C130.015 50.831 130.366 51.6269 130.788 52.5164C130.975 52.8909 131.069 53.3123 131.069 53.7805C131.069 54.8104 130.577 55.7234 129.594 56.5193C128.658 57.2683 127.604 57.6429 126.434 57.6429C124.936 57.6429 123.835 56.9874 123.133 55.6766C121.729 53.1953 121.026 50.5267 121.026 47.6708C121.026 44.7214 121.822 42.0294 123.414 39.5949C125.053 37.1604 127.511 35.2175 130.788 33.7662C134.065 32.268 138.115 31.519 142.937 31.519C145.044 31.519 146.963 31.636 148.695 31.8701C150.474 32.1042 152.417 32.5489 154.524 33.2044C156.818 33.9066 157.965 35.2175 157.965 37.137C157.965 39.712 156.865 40.9994 154.665 40.9994L151.926 59.8901C157.403 59.3283 161.851 56.9874 165.269 52.8675C168.733 48.7008 171.612 43.0594 173.906 35.9432C174.328 34.6323 175.03 33.6257 176.013 32.9235C177.043 32.2212 178.331 31.8701 179.875 31.8701C181.186 31.8701 182.193 32.1744 182.895 32.783C183.644 33.3448 184.019 34.1641 184.019 35.2409C184.019 35.5686 183.925 36.107 183.738 36.8561C181.397 44.5809 178.05 50.714 173.696 55.2552C169.342 59.7965 164.59 62.8162 159.44 64.3143C161.219 64.7356 162.67 65.3677 163.794 66.2104C164.964 67.0531 165.947 68.1065 166.743 69.3705C167.539 70.5878 168.452 72.2966 169.482 74.497C170.933 77.5869 172.291 79.7873 173.555 81.0982C174.819 82.3623 176.294 82.9943 177.979 82.9943C179.478 82.9943 180.905 82.5027 182.263 81.5196C183.621 80.4896 185.33 78.7573 187.39 76.3229C187.951 75.6674 188.583 75.3397 189.286 75.3397ZM190.516 91.3511C188.737 91.3511 187.473 90.4148 186.724 88.5421C186.022 86.6694 185.671 83.6731 185.671 79.5532C185.671 73.467 186.537 67.6851 188.269 62.2075C188.69 60.8498 189.369 59.8667 190.306 59.2581C191.289 58.6026 192.646 58.2749 194.379 58.2749C195.315 58.2749 195.97 58.3919 196.345 58.626C196.72 58.8601 196.907 59.3049 196.907 59.9603C196.907 60.7094 196.556 62.3948 195.853 65.0166C195.385 66.8892 195.011 68.5278 194.73 69.9323C194.449 71.3369 194.215 73.0691 194.028 75.129C195.573 71.1028 197.305 67.8256 199.224 65.2975C201.144 62.7693 203.016 60.9669 204.842 59.8901C206.715 58.8133 208.424 58.2749 209.969 58.2749C213.012 58.2749 214.533 59.7965 214.533 62.8396C214.533 64.6654 214.018 67.966 212.988 72.7414C212.099 76.8144 211.654 79.5064 211.654 80.8173C211.654 82.69 212.333 83.6263 213.691 83.6263C214.627 83.6263 215.727 83.0645 216.991 81.9409C218.302 80.7705 220.034 78.8978 222.188 76.3229C222.75 75.6674 223.382 75.3397 224.084 75.3397C224.693 75.3397 225.161 75.6206 225.489 76.1824C225.863 76.7442 226.05 77.5167 226.05 78.4999C226.05 80.3725 225.606 81.8239 224.716 82.8538C222.703 85.3351 220.526 87.3717 218.185 88.9635C215.891 90.5552 213.269 91.3511 210.32 91.3511C207.932 91.3511 206.13 90.6723 204.913 89.3146C203.695 87.9101 203.087 85.8969 203.087 83.2752C203.087 81.9643 203.414 79.6235 204.07 76.2526C204.678 73.3032 204.983 71.2666 204.983 70.143C204.983 69.3939 204.725 69.0194 204.21 69.0194C203.602 69.0194 202.736 69.8153 201.612 71.4071C200.535 72.952 199.412 75.012 198.241 77.5869C197.117 80.1619 196.205 82.8772 195.502 85.7331C194.987 87.9335 194.379 89.4316 193.676 90.2275C193.021 90.9766 191.968 91.3511 190.516 91.3511ZM229.568 53.64C227.602 53.64 226.127 53.1953 225.144 52.3057C224.161 51.3694 223.669 50.0819 223.669 48.4433C223.669 46.8047 224.301 45.447 225.565 44.3702C226.876 43.2466 228.491 42.6848 230.411 42.6848C232.143 42.6848 233.548 43.1062 234.625 43.9489C235.701 44.7916 236.24 45.9854 236.24 47.5304C236.24 49.4031 235.631 50.9012 234.414 52.0248C233.197 53.1016 231.581 53.64 229.568 53.64ZM229.006 91.3511C225.963 91.3511 223.74 90.2743 222.335 88.1208C220.977 85.9672 220.298 83.1113 220.298 79.5532C220.298 77.4465 220.556 74.7545 221.071 71.4773C221.633 68.1533 222.335 65.0634 223.178 62.2075C223.599 60.7094 224.161 59.6794 224.863 59.1176C225.565 58.5558 226.689 58.2749 228.234 58.2749C230.622 58.2749 231.815 59.0708 231.815 60.6626C231.815 61.833 231.371 64.5484 230.481 68.8087C229.358 73.9586 228.796 77.4465 228.796 79.2723C228.796 80.6768 228.983 81.7536 229.358 82.5027C229.732 83.2518 230.364 83.6263 231.254 83.6263C232.096 83.6263 233.15 83.0411 234.414 81.8707C235.678 80.7003 237.363 78.851 239.47 76.3229C240.032 75.6674 240.664 75.3397 241.366 75.3397C241.975 75.3397 242.443 75.6206 242.771 76.1824C243.145 76.7442 243.332 77.5167 243.332 78.4999C243.332 80.3725 242.888 81.8239 241.998 82.8538C237.363 88.5187 233.033 91.3511 229.006 91.3511ZM249.238 64.9463C249.144 67.2872 249.098 69.113 249.098 70.4239C249.098 73.7947 249.261 76.4399 249.589 78.3594C249.964 80.2321 250.549 81.5898 251.345 82.4325C252.187 83.2284 253.334 83.6263 254.786 83.6263C255.535 83.6263 256.424 83.3922 257.454 82.9241C258.484 82.4559 259.421 81.8473 260.263 81.0982C260.778 80.63 261.293 80.3959 261.808 80.3959C262.37 80.3959 262.815 80.7237 263.143 81.3791C263.517 81.9877 263.704 82.7368 263.704 83.6263C263.704 84.5158 263.517 85.382 263.143 86.2247C262.815 87.0674 262.3 87.7696 261.598 88.3314C259.163 90.3446 256.401 91.3511 253.311 91.3511C248.863 91.3511 245.61 89.5019 243.55 85.8033C241.49 82.0579 240.46 77.189 240.46 71.1964C240.46 69.1365 240.53 67.0531 240.67 64.9463H237.932C236.527 64.9463 235.567 64.6888 235.052 64.1738C234.584 63.6589 234.35 62.8396 234.35 61.716C234.35 59.0942 235.404 57.7833 237.51 57.7833H241.513C242.309 52.6335 243.526 47.9283 245.165 43.668C246.804 39.4076 248.77 36.0134 251.064 33.4853C253.405 30.9572 255.909 29.6931 258.578 29.6931C260.544 29.6931 262.089 30.5592 263.213 32.2915C264.336 34.0237 264.898 36.2007 264.898 38.8224C264.898 46.0791 261.855 52.3994 255.769 57.7833H263.634C264.383 57.7833 264.922 57.9472 265.249 58.2749C265.577 58.6026 265.741 59.2112 265.741 60.1008C265.741 63.3311 263.096 64.9463 257.806 64.9463H249.238ZM256.682 36.4348C255.98 36.4348 255.184 37.3243 254.294 39.1033C253.452 40.8356 252.632 43.27 251.836 46.4068C251.087 49.4967 250.455 52.9378 249.94 56.7299C252.702 54.3423 254.762 51.6737 256.12 48.7242C257.525 45.7279 258.227 43.0126 258.227 40.5781C258.227 37.8159 257.712 36.4348 256.682 36.4348Z" fill="#00A550"/>
<path d="M74.2349 32.783L74.3176 32.2037L74.3151 32.2033L74.2349 32.783ZM76.9034 33.9769L76.4396 34.3337L76.4479 34.3445L76.4567 34.3549L76.9034 33.9769ZM72.4792 40.859L72.4293 41.4421L72.4398 41.4428L72.4792 40.859ZM70.0213 40.6483L70.0713 40.0652L70.0708 40.0652L70.0213 40.6483ZM61.7347 40.0865L61.7045 40.6709L61.705 40.6709L61.7347 40.0865ZM50.0071 39.8758V39.2906H49.4674L49.4238 39.8285L50.0071 39.8758ZM48.2514 58.8367L47.6695 58.7747L47.5993 59.4334L48.2616 59.4218L48.2514 58.8367ZM60.3302 58.626V58.0407L60.32 58.0409L60.3302 58.626ZM63.7713 59.539L63.3413 59.9359L63.3492 59.9445L63.3575 59.9528L63.7713 59.539ZM63.2797 65.789L63.6828 66.2133L63.6882 66.2081L63.6935 66.2028L63.2797 65.789ZM47.2683 67.1233V66.5381H46.759L46.6887 67.0424L47.2683 67.1233ZM46.8469 70.143L46.2673 70.0621L46.2664 70.0691L46.8469 70.143ZM40.5266 86.646L40.1098 86.2352L40.1069 86.2382L40.5266 86.646ZM18.546 89.5253L18.2734 90.0432L18.2807 90.0469L18.546 89.5253ZM12.6471 84.469L13.1394 84.1526L13.1384 84.1511L12.6471 84.469ZM12.6471 78.6403L12.1602 78.3157L12.1537 78.3253L12.1477 78.3351L12.6471 78.6403ZM16.2988 77.9381L15.9546 78.4113L15.9643 78.4184L15.9742 78.425L16.2988 77.9381ZM18.4056 80.115L18.8711 79.7603L18.8664 79.7544L18.4056 80.115ZM33.4338 81.3089L32.9835 80.9352L32.9827 80.9362L33.4338 81.3089ZM36.9451 70.9857L37.5268 71.0497L37.5269 71.0492L36.9451 70.9857ZM37.3665 67.1233L37.9482 67.1868L38.019 66.5381H37.3665V67.1233ZM31.1866 66.2104L30.8176 66.6646L30.8243 66.67L30.8311 66.6753L31.1866 66.2104ZM31.1866 60.3114L31.6004 60.7253L31.6067 60.719L31.6128 60.7125L31.1866 60.3114ZM38.3496 59.0474L38.3713 59.6322L38.8766 59.6135L38.9314 59.1108L38.3496 59.0474ZM40.1755 40.2972L40.7584 40.3491L40.8208 39.6497L40.1215 39.7144L40.1755 40.2972ZM29.5012 42.7551L29.2121 42.2462L29.2121 42.2462L29.5012 42.7551ZM27.8158 52.5164L27.324 52.8337L27.3289 52.841L27.8158 52.5164ZM26.8326 56.0277L27.1516 56.5184L27.16 56.5129L27.1682 56.5071L26.8326 56.0277ZM20.4421 55.817L20.8191 55.3694L20.8168 55.3674L20.4421 55.817ZM18.8269 52.9378L19.3784 52.7421L19.3784 52.7421L18.8269 52.9378ZM26.9731 35.4516L26.7385 34.9155L26.737 34.9161L26.9731 35.4516ZM74.1521 33.3624C75.4134 33.5426 76.1125 33.9085 76.4396 34.3337L77.3673 33.6201C76.758 32.828 75.6781 32.398 74.3176 32.2037L74.1521 33.3624ZM76.4567 34.3549C76.8628 34.8349 77.0907 35.4864 77.0907 36.3645H78.2611C78.2611 35.2764 77.974 34.3361 77.3502 33.5989L76.4567 34.3549ZM77.0907 36.3645C77.0907 37.8821 76.6854 38.8702 75.9939 39.4683C75.2926 40.0748 74.1751 40.387 72.5187 40.2751L72.4398 41.4428C74.2479 41.565 75.7286 41.2452 76.7596 40.3536C77.8003 39.4535 78.2611 38.0774 78.2611 36.3645H77.0907ZM72.5292 40.2759L70.0713 40.0652L69.9714 41.2314L72.4293 41.442L72.5292 40.2759ZM70.0708 40.0652C67.302 39.8305 64.5332 39.6428 61.7644 39.502L61.705 40.6709C64.4606 40.8111 67.2163 40.9979 69.9719 41.2314L70.0708 40.0652ZM61.765 39.5021C59.0385 39.361 56.1726 39.2906 53.1672 39.2906V40.461C56.1544 40.461 59.0001 40.531 61.7045 40.6709L61.765 39.5021ZM53.1672 39.2906H50.0071V40.461H53.1672V39.2906ZM49.4238 39.8285C48.8623 46.7535 48.2775 53.0688 47.6695 58.7747L48.8333 58.8987C49.4426 53.1812 50.0282 46.856 50.5904 39.9231L49.4238 39.8285ZM48.2616 59.4218L60.3404 59.2112L60.32 58.0409L48.2412 58.2516L48.2616 59.4218ZM60.3302 59.2112C61.1666 59.2112 61.8318 59.2852 62.3396 59.4199C62.8498 59.5553 63.1617 59.7414 63.3413 59.9359L64.2013 59.142C63.819 58.7279 63.2765 58.4576 62.6397 58.2886C62.0004 58.119 61.226 58.0408 60.3302 58.0408V59.2112ZM63.3575 59.9528C63.8352 60.4305 64.099 61.0894 64.099 61.9969H65.2694C65.2694 60.8444 64.9246 59.8647 64.1851 59.1252L63.3575 59.9528ZM64.099 61.9969C64.099 63.467 63.6708 64.5703 62.8659 65.3752L63.6935 66.2028C64.7612 65.1351 65.2694 63.7103 65.2694 61.9969H64.099ZM62.8766 65.3648C62.0819 66.1198 60.9114 66.5381 59.2768 66.5381V67.7085C61.1067 67.7085 62.6048 67.2373 63.6828 66.2133L62.8766 65.3648ZM59.2768 66.5381H47.2683V67.7085H59.2768V66.5381ZM46.6887 67.0424L46.2673 70.0621L47.4265 70.2239L47.8479 67.2042L46.6887 67.0424ZM46.2664 70.0691C45.2893 77.7465 43.2066 83.0936 40.1098 86.2352L40.9434 87.0568C44.3074 83.6441 46.4382 77.9892 47.4274 70.2169L46.2664 70.0691ZM40.1069 86.2382C37.0578 89.3769 32.8229 90.9766 27.3242 90.9766V92.147C33.0617 92.147 37.6283 90.4695 40.9464 87.0538L40.1069 86.2382ZM27.3242 90.9766C24.2269 90.9766 21.3926 90.3169 18.8114 89.0037L18.2807 90.0469C21.0366 91.449 24.0544 92.147 27.3242 92.147V90.9766ZM18.8186 89.0074C16.2141 87.6366 14.3352 86.0127 13.1393 84.1526L12.1548 84.7855C13.4871 86.858 15.5408 88.6049 18.2735 90.0431L18.8186 89.0074ZM13.1384 84.1511C12.6953 83.4663 12.4598 82.6218 12.4598 81.5898H11.2894C11.2894 82.805 11.5689 83.88 12.1558 84.7869L13.1384 84.1511ZM12.4598 81.5898C12.4598 80.5587 12.695 79.6842 13.1464 78.9455L12.1477 78.3351C11.5692 79.2819 11.2894 80.3737 11.2894 81.5898H12.4598ZM13.134 78.9649C13.6206 78.235 14.1367 77.9615 14.6836 77.9615V76.791C13.6388 76.791 12.7972 77.3602 12.1602 78.3157L13.134 78.9649ZM14.6836 77.9615C15.1056 77.9615 15.5257 78.0994 15.9546 78.4113L16.643 77.4648C16.0419 77.0276 15.3853 76.791 14.6836 76.791V77.9615ZM15.9742 78.425C16.4544 78.7451 17.1094 79.4084 17.9447 80.4757L18.8664 79.7544C18.0163 78.6681 17.2668 77.88 16.6234 77.4511L15.9742 78.425ZM17.9401 80.4697C20.2833 83.5452 23.2329 85.1245 26.7624 85.1245V83.954C23.6439 83.954 21.0223 82.5838 18.8711 79.7604L17.9401 80.4697ZM26.7624 85.1245C29.6147 85.1245 32.0008 83.9625 33.885 81.6816L32.9827 80.9362C31.3088 82.9624 29.2472 83.954 26.7624 83.954V85.1245ZM33.8842 81.6826C35.8166 79.3537 37.0066 75.7788 37.5268 71.0497L36.3634 70.9217C35.8536 75.5561 34.7028 78.8632 32.9835 80.9352L33.8842 81.6826ZM37.5269 71.0492L37.9482 67.1868L36.7847 67.0599L36.3634 70.9223L37.5269 71.0492ZM37.3665 66.5381H33.9956V67.7085H37.3665V66.5381ZM33.9956 66.5381C33.0371 66.5381 32.2281 66.2701 31.5421 65.7455L30.8311 66.6753C31.7369 67.3679 32.8006 67.7085 33.9956 67.7085V66.5381ZM31.5557 65.7562C30.9666 65.2776 30.6482 64.5918 30.6482 63.612H29.4778C29.4778 64.8795 29.9085 65.9259 30.8176 66.6646L31.5557 65.7562ZM30.6482 63.612C30.6482 62.2572 30.9966 61.329 31.6004 60.7253L30.7728 59.8976C29.8785 60.792 29.4778 62.0643 29.4778 63.612H30.6482ZM31.6128 60.7125C32.2184 60.0691 33.142 59.7028 34.4872 59.7028V58.5324C32.9298 58.5324 31.653 58.962 30.7605 59.9104L31.6128 60.7125ZM34.4872 59.7028C35.8051 59.7028 37.0998 59.6793 38.3713 59.6322L38.328 58.4626C37.0714 58.5091 35.7911 58.5324 34.4872 58.5324V59.7028ZM38.9314 59.1108C39.4937 53.9559 40.1027 47.7018 40.7584 40.3491L39.5926 40.2452C38.9374 47.5931 38.3291 53.8391 37.7679 58.9839L38.9314 59.1108ZM40.1215 39.7144C35.0559 40.1835 31.3887 41.0096 29.2121 42.2462L29.7903 43.2639C31.7336 42.1597 35.1826 41.3472 40.2294 40.8799L40.1215 39.7144ZM29.2121 42.2462C26.9765 43.5164 25.8261 45.4388 25.8261 47.9517H26.9965C26.9965 45.8766 27.906 44.3345 29.7903 43.2639L29.2121 42.2462ZM25.8261 47.9517C25.8261 49.6656 26.3321 51.2962 27.324 52.8337L28.3075 52.1991C27.4268 50.834 26.9965 49.4214 26.9965 47.9517H25.8261ZM27.3289 52.841C27.5588 53.1859 27.6519 53.4962 27.6519 53.7805H28.8224C28.8224 53.222 28.6346 52.6896 28.3027 52.1918L27.3289 52.841ZM27.6519 53.7805C27.6519 54.3684 27.3378 54.9597 26.497 55.5483L27.1682 56.5071C28.2002 55.7847 28.8224 54.878 28.8224 53.7805H27.6519ZM26.5137 55.537C25.677 56.0809 24.7354 56.3554 23.6725 56.3554V57.5258C24.9504 57.5258 26.1156 57.1917 27.1516 56.5184L26.5137 55.537ZM23.6725 56.3554C22.5335 56.3554 21.5936 56.0216 20.8191 55.3694L20.0652 56.2646C21.0697 57.1105 22.2834 57.5258 23.6725 57.5258V56.3554ZM20.8168 55.3674C20.3853 55.0079 19.8893 54.1816 19.3784 52.7421L18.2754 53.1335C18.7946 54.5965 19.3753 55.6898 20.0675 56.2666L20.8168 55.3674ZM19.3784 52.7421C18.8889 51.3625 18.6397 49.8147 18.6397 48.0922H17.4692C17.4692 49.9278 17.735 51.6104 18.2754 53.1335L19.3784 52.7421ZM18.6397 48.0922C18.6397 45.2945 19.3541 42.9113 20.7623 40.9154C22.1735 38.9153 24.3085 37.2661 27.2092 35.9871L26.737 34.9161C23.6919 36.2588 21.3676 38.0273 19.8059 40.2407C18.2412 42.4584 17.4692 45.0846 17.4692 48.0922H18.6397ZM27.2077 35.9878C33.0902 33.4141 41.726 32.1042 53.1672 32.1042V30.9338C41.6681 30.9338 32.8411 32.2456 26.7385 34.9155L27.2077 35.9878ZM53.1672 32.1042C61.1066 32.1042 68.1014 32.5246 74.1546 33.3627L74.3151 32.2033C68.1959 31.3561 61.1456 30.9338 53.1672 30.9338V32.1042ZM70.0855 52.3057L69.6819 52.7295L69.6874 52.7347L69.6929 52.7397L70.0855 52.3057ZM70.5069 44.3702L70.8864 44.8157L70.8877 44.8146L70.5069 44.3702ZM79.566 43.9489L79.2053 44.4097L79.566 43.9489ZM79.3553 52.0248L79.7431 52.4632L79.7522 52.4548L79.3553 52.0248ZM67.2765 88.1208L66.7814 88.4329L66.7863 88.4404L67.2765 88.1208ZM66.0125 71.4773L65.4354 71.3798L65.4343 71.3865L66.0125 71.4773ZM68.1192 62.2075L68.6805 62.3732L68.6826 62.366L68.1192 62.2075ZM75.4227 68.8087L75.9945 68.9335L75.9955 68.9283L75.4227 68.8087ZM79.3553 81.8707L78.9577 81.4413L78.9577 81.4413L79.3553 81.8707ZM84.4115 76.3229L83.9672 75.942L83.962 75.9482L84.4115 76.3229ZM87.7121 76.1824L87.2066 76.4773L87.2155 76.4924L87.2252 76.507L87.7121 76.1824ZM86.9397 82.8538L86.4968 82.4713L86.4917 82.4772L86.4867 82.4833L86.9397 82.8538ZM74.5097 53.0548C72.62 53.0548 71.3119 52.6261 70.4782 51.8718L69.6929 52.7397C70.8255 53.7644 72.4669 54.2252 74.5097 54.2252V53.0548ZM70.4891 51.882C69.6455 51.0785 69.196 49.9574 69.196 48.4433H68.0256C68.0256 50.2064 68.5593 51.6603 69.6819 52.7295L70.4891 51.882ZM69.196 48.4433C69.196 46.9788 69.7508 45.7831 70.8864 44.8157L70.1274 43.9248C68.7348 45.111 68.0256 46.6306 68.0256 48.4433H69.196ZM70.8877 44.8146C72.0805 43.7922 73.5559 43.27 75.3524 43.27V42.0996C73.31 42.0996 71.555 42.7011 70.126 43.9259L70.8877 44.8146ZM75.3524 43.27C76.9894 43.27 78.2563 43.667 79.2053 44.4097L79.9267 43.488C78.7221 42.5453 77.18 42.0996 75.3524 42.0996V43.27ZM79.2053 44.4097C80.1207 45.1261 80.596 46.1388 80.596 47.5304H81.7664C81.7664 45.832 81.1649 44.4571 79.9267 43.488L79.2053 44.4097ZM80.596 47.5304C80.596 49.2633 80.0393 50.597 78.9584 51.5948L79.7522 52.4548C81.1058 51.2054 81.7664 49.5429 81.7664 47.5304H80.596ZM78.9676 51.5865C77.8812 52.5475 76.4155 53.0548 74.5097 53.0548V54.2252C76.6302 54.2252 78.3949 53.6557 79.743 52.4632L78.9676 51.5865ZM73.9479 90.7659C71.0605 90.7659 69.042 89.7566 67.7667 87.8011L66.7863 88.4404C68.32 90.7921 70.7491 91.9363 73.9479 91.9363V90.7659ZM67.7716 87.8087C66.4918 85.7787 65.8252 83.043 65.8252 79.5532H64.6548C64.6548 83.1797 65.3459 86.1557 66.7815 88.4328L67.7716 87.8087ZM65.8252 79.5532C65.8252 77.489 66.078 74.8303 66.5906 71.5681L65.4343 71.3865C64.917 74.6787 64.6548 77.4039 64.6548 79.5532H65.8252ZM66.5895 71.5748C67.1479 68.2709 67.8452 65.2039 68.6805 62.3732L67.5579 62.0419C66.7078 64.9228 66.0006 68.0357 65.4354 71.3798L66.5895 71.5748ZM68.6826 62.366C69.0924 60.909 69.611 60.022 70.1702 59.5746L69.439 58.6606C68.5938 59.3368 67.9888 60.5098 67.5559 62.0491L68.6826 62.366ZM70.1702 59.5746C70.717 59.1372 71.677 58.8601 73.1755 58.8601V57.6897C71.584 57.6897 70.2968 57.9744 69.439 58.6606L70.1702 59.5746ZM73.1755 58.8601C74.3227 58.8601 75.0809 59.0547 75.537 59.3587C75.9512 59.6349 76.1717 60.0372 76.1717 60.6626H77.3422C77.3422 59.6962 76.9658 58.9046 76.1862 58.3849C75.4485 57.8931 74.4158 57.6897 73.1755 57.6897V58.8601ZM76.1717 60.6626C76.1717 61.7596 75.7434 64.4094 74.8498 68.6891L75.9955 68.9283C76.881 64.6874 77.3422 61.9064 77.3422 60.6626H76.1717ZM74.8509 68.684C73.7292 73.825 73.152 77.3735 73.152 79.2723H74.3225C74.3225 77.5195 74.8689 74.0922 75.9944 68.9335L74.8509 68.684ZM73.152 79.2723C73.152 80.7139 73.3418 81.8968 73.7756 82.7644L74.8225 82.241C74.5073 81.6105 74.3225 80.6398 74.3225 79.2723H73.152ZM73.7756 82.7644C74.0059 83.225 74.3299 83.5966 74.7556 83.8489C75.1793 84.0999 75.6675 84.2115 76.1952 84.2115V83.0411C75.8332 83.0411 75.5607 82.9655 75.3523 82.842C75.146 82.7197 74.9667 82.5295 74.8225 82.241L73.7756 82.7644ZM76.1952 84.2115C77.2779 84.2115 78.4766 83.4819 79.7529 82.3001L78.9577 81.4413C77.7059 82.6003 76.7978 83.0411 76.1952 83.0411V84.2115ZM79.7529 82.3001C81.0452 81.1035 82.7499 79.2309 84.8611 76.6975L83.962 75.9482C81.8596 78.471 80.1935 80.297 78.9577 81.4413L79.7529 82.3001ZM84.8559 76.7037C85.3343 76.1456 85.8147 75.9249 86.3076 75.9249V74.7545C85.396 74.7545 84.6124 75.1893 83.9672 75.942L84.8559 76.7037ZM86.3076 75.9249C86.6912 75.9249 86.975 76.0802 87.2066 76.4773L88.2176 75.8875C87.7938 75.161 87.1413 74.7545 86.3076 74.7545V75.9249ZM87.2252 76.507C87.5126 76.9382 87.6887 77.5822 87.6887 78.4999H88.8592C88.8592 77.4512 88.6607 76.5503 88.1991 75.8578L87.2252 76.507ZM87.6887 78.4999C87.6887 80.2849 87.265 81.5818 86.4968 82.4713L87.3826 83.2363C88.3933 82.066 88.8592 80.4602 88.8592 78.4999H87.6887ZM86.4867 82.4833C81.8777 88.1165 77.698 90.7659 73.9479 90.7659V91.9363C78.2504 91.9363 82.7318 88.9209 87.3926 83.2244L86.4867 82.4833ZM124.868 76.1824L124.363 76.4773L124.371 76.4924L124.381 76.507L124.868 76.1824ZM124.096 82.8538L123.653 82.4713L123.649 82.4758L124.096 82.8538ZM117.284 88.9635L117.604 89.4533L117.606 89.4518L117.284 88.9635ZM102.607 90.0168L102.35 90.543L102.355 90.5455L102.607 90.0168ZM98.2526 86.2247L98.7416 85.9033L98.2966 85.2261L97.7937 85.8614L98.2526 86.2247ZM82.6625 89.0337L83.0763 88.6199L83.0763 88.6199L82.6625 89.0337ZM82.0305 77.3762L82.5004 77.7249L82.5004 77.7249L82.0305 77.3762ZM88.9828 78.851L88.4012 78.7864L88.4003 78.7944L88.3996 78.8024L88.9828 78.851ZM93.1261 82.292L92.6652 81.9314L92.663 81.9342L93.1261 82.292ZM95.1626 77.9381L94.6031 77.7659L94.5994 77.7792L95.1626 77.9381ZM95.3733 67.6851L94.8226 67.8834L94.8254 67.8906L95.3733 67.6851ZM92.7047 66.3508L93.1185 66.7646L93.1373 66.7459L93.1543 66.7255L92.7047 66.3508ZM92.0025 67.6149L91.4563 67.4048L91.4545 67.4094L92.0025 67.6149ZM90.8789 69.4408L91.2704 69.8757L91.2818 69.8655L91.2927 69.8546L90.8789 69.4408ZM85.9631 69.0194L85.5089 69.3884L85.5148 69.3957L85.5208 69.4027L85.9631 69.0194ZM87.2271 60.0305L87.6269 60.4579L87.6269 60.4579L87.2271 60.0305ZM98.1823 59.4687L97.8747 59.9667L97.8856 59.9731L98.1823 59.4687ZM101.834 63.612L101.303 63.8573L101.714 64.7478L102.302 63.9632L101.834 63.612ZM106.539 59.3985L106.267 58.8806L106.261 58.8837L106.539 59.3985ZM115.879 59.2581L115.488 59.693L115.493 59.6978L115.498 59.7024L115.879 59.2581ZM116.16 68.3172L116.644 68.6463L116.65 68.6374L116.16 68.3172ZM111.174 69.4408L110.737 69.8296L110.737 69.8296L111.174 69.4408ZM110.331 67.6149L109.754 67.7111L109.757 67.7301L109.762 67.7489L110.331 67.6149ZM109.91 66.3508L109.423 66.6755L109.423 66.6755L109.91 66.3508ZM107.101 67.5447L106.601 67.2404L106.597 67.247L107.101 67.5447ZM105.486 71.688L104.921 71.5353L104.919 71.5425L104.917 71.5497L105.486 71.688ZM106.399 82.2218L105.952 82.5998L105.96 82.6091L105.968 82.618L106.399 82.2218ZM115.879 82.1516L116.235 82.6165L116.237 82.6149L115.879 82.1516ZM121.567 76.3229L121.123 75.9419L121.115 75.9514L121.567 76.3229ZM123.464 75.9249C123.847 75.9249 124.131 76.0802 124.363 76.4773L125.374 75.8875C124.95 75.161 124.297 74.7545 123.464 74.7545V75.9249ZM124.381 76.507C124.669 76.9382 124.845 77.5822 124.845 78.4999H126.015C126.015 77.4512 125.817 76.5503 125.355 75.8578L124.381 76.507ZM124.845 78.4999C124.845 80.2849 124.421 81.5818 123.653 82.4713L124.538 83.2363C125.549 82.066 126.015 80.4602 126.015 78.4999H124.845ZM123.649 82.4758C121.622 84.8709 119.393 86.8693 116.961 88.4751L117.606 89.4518C120.137 87.7804 122.449 85.7058 124.542 83.2319L123.649 82.4758ZM116.963 88.4737C114.63 89.9992 111.981 90.7659 108.997 90.7659V91.9363C112.193 91.9363 115.068 91.1112 117.604 89.4533L116.963 88.4737ZM108.997 90.7659C106.683 90.7659 104.641 90.3352 102.858 89.4882L102.355 90.5455C104.318 91.4775 106.536 91.9363 108.997 91.9363V90.7659ZM102.863 89.4907C101.128 88.6456 99.7585 87.4507 98.7416 85.9033L97.7635 86.546C98.9002 88.2758 100.433 89.6091 102.35 90.5429L102.863 89.4907ZM97.7937 85.8614C95.2141 89.1199 92.2123 90.6957 88.7721 90.6957V91.8661C92.6354 91.8661 95.9539 90.0711 98.7114 86.5879L97.7937 85.8614ZM88.7721 90.6957C86.3168 90.6957 84.4418 89.9854 83.0763 88.6199L82.2487 89.4475C83.8794 91.0782 86.0776 91.8661 88.7721 91.8661V90.6957ZM83.0763 88.6199C81.7066 87.2502 81.0005 85.4193 81.0005 83.0645H79.8301C79.8301 85.6724 80.6221 87.8209 82.2487 89.4475L83.0763 88.6199ZM81.0005 83.0645C81.0005 80.8121 81.5179 79.0492 82.5004 77.7249L81.5605 77.0275C80.3894 78.606 79.8301 80.6352 79.8301 83.0645H81.0005ZM82.5004 77.7249C83.456 76.437 84.7951 75.7845 86.5951 75.7845V74.614C84.4625 74.614 82.7585 75.4129 81.5605 77.0275L82.5004 77.7249ZM86.5951 75.7845C87.3816 75.7845 87.8647 75.9349 88.1401 76.1414C88.3838 76.3243 88.538 76.6061 88.538 77.0953H89.7084C89.7084 76.3205 89.4413 75.6543 88.8423 75.2051C88.275 74.7796 87.4941 74.614 86.5951 74.614V75.7845ZM88.538 77.0953C88.538 77.3866 88.495 77.9419 88.4012 78.7864L89.5644 78.9156C89.6579 78.0747 89.7084 77.4596 89.7084 77.0953H88.538ZM88.3996 78.8024C88.2606 80.4702 88.1869 81.4646 88.1869 81.7302H89.3573C89.3573 81.5276 89.4241 80.6026 89.566 78.8996L88.3996 78.8024ZM88.1869 81.7302C88.1869 82.5038 88.3527 83.1932 88.7863 83.6936C89.2338 84.2099 89.8756 84.4222 90.598 84.4222V83.2518C90.1031 83.2518 89.8319 83.1129 89.6708 82.927C89.4958 82.7251 89.3573 82.3612 89.3573 81.7302H88.1869ZM90.598 84.4222C91.7412 84.4222 92.7359 83.7541 93.5892 82.6499L92.663 81.9342C91.9245 82.89 91.2338 83.2518 90.598 83.2518V84.4222ZM93.5869 82.6527C94.491 81.4976 95.1977 79.9696 95.7259 78.0969L94.5994 77.7792C94.0976 79.5582 93.4466 80.9329 92.6652 81.9314L93.5869 82.6527ZM95.722 78.1102C96.3033 76.2208 96.5906 74.1487 96.5906 71.8987H95.4201C95.4201 74.0494 95.1456 76.0036 94.6033 77.7659L95.722 78.1102ZM96.5906 71.8987C96.5906 70.1693 96.375 68.6897 95.9213 67.4796L94.8254 67.8906C95.2143 68.9278 95.4201 70.2572 95.4201 71.8987H96.5906ZM95.9239 67.4869C95.7014 66.8688 95.4368 66.3527 95.1104 65.9818C94.7752 65.6009 94.3455 65.3443 93.8283 65.3443V66.5147C93.9198 66.5147 94.052 66.5507 94.2317 66.755C94.4203 66.9693 94.6239 67.331 94.8227 67.8833L95.9239 67.4869ZM93.8283 65.3443C93.2137 65.3443 92.6404 65.5139 92.2552 65.9762L93.1543 66.7255C93.2372 66.626 93.413 66.5147 93.8283 66.5147V65.3443ZM92.2909 65.937C91.9663 66.2616 91.6967 66.7796 91.4563 67.4048L92.5487 67.825C92.7764 67.2329 92.975 66.9082 93.1185 66.7646L92.2909 65.937ZM91.4545 67.4094C91.197 68.0963 90.8632 68.6288 90.4651 69.027L91.2927 69.8546C91.8309 69.3163 92.2462 68.6317 92.5504 67.8204L91.4545 67.4094ZM90.4874 69.0058C90.1871 69.276 89.5568 69.4876 88.421 69.4876V70.658C89.626 70.658 90.6343 70.4482 91.2704 69.8757L90.4874 69.0058ZM88.421 69.4876C87.5401 69.4876 86.89 69.1953 86.4053 68.6361L85.5208 69.4027C86.2535 70.248 87.2419 70.658 88.421 70.658V69.4876ZM86.4173 68.6504C85.9291 68.0495 85.6354 67.0826 85.6354 65.6486H84.4649C84.4649 67.2109 84.7798 68.4911 85.5089 69.3884L86.4173 68.6504ZM85.6354 65.6486C85.6354 63.3876 86.3174 61.6829 87.6269 60.4579L86.8274 59.6032C85.2342 61.0935 84.4649 63.1342 84.4649 65.6486H85.6354ZM87.6269 60.4579C88.9532 59.2173 90.6751 58.5792 92.8452 58.5792V57.4088C90.4273 57.4088 88.4038 58.1284 86.8274 59.6032L87.6269 60.4579ZM92.8452 58.5792C94.7087 58.5792 96.3803 59.0435 97.8748 59.9666L98.4899 58.9708C96.8008 57.9276 94.9143 57.4088 92.8452 57.4088V58.5792ZM97.8856 59.9731C99.3654 60.8436 100.505 62.1296 101.303 63.8573L102.365 63.3668C101.477 61.4428 100.183 59.9665 98.479 58.9643L97.8856 59.9731ZM102.302 63.9632C103.665 62.1455 105.172 60.8026 106.817 59.9133L106.261 58.8837C104.442 59.8671 102.812 61.3332 101.366 63.2609L102.302 63.9632ZM106.812 59.9164C108.523 59.0158 110.162 58.5792 111.736 58.5792V57.4088C109.939 57.4088 108.114 57.9086 106.267 58.8806L106.812 59.9164ZM111.736 58.5792C113.481 58.5792 114.698 58.9827 115.488 59.693L116.271 58.8231C115.187 57.848 113.642 57.4088 111.736 57.4088V58.5792ZM115.498 59.7024C116.302 60.3914 116.769 61.551 116.769 63.3311H117.939C117.939 61.366 117.422 59.8101 116.26 58.8137L115.498 59.7024ZM116.769 63.3311C116.769 65.3726 116.382 66.9086 115.67 67.9969L116.65 68.6374C117.53 67.2912 117.939 65.5032 117.939 63.3311H116.769ZM115.676 67.9881C114.957 69.0451 114.16 69.4876 113.281 69.4876V70.658C114.649 70.658 115.771 69.93 116.644 68.6462L115.676 67.9881ZM113.281 69.4876C112.29 69.4876 111.812 69.2772 111.611 69.052L110.737 69.8296C111.285 70.447 112.211 70.658 113.281 70.658V69.4876ZM111.611 69.052C111.324 68.7286 111.075 68.2219 110.901 67.4809L109.762 67.7489C109.962 68.5997 110.275 69.3102 110.737 69.8296L111.611 69.052ZM110.909 67.5187C110.809 66.9239 110.651 66.4077 110.397 66.0262L109.423 66.6755C109.543 66.8557 109.666 67.1823 109.754 67.7111L110.909 67.5187ZM110.397 66.0262C110.062 65.524 109.508 65.3443 108.927 65.3443V66.5147C109.282 66.5147 109.383 66.6158 109.423 66.6755L110.397 66.0262ZM108.927 65.3443C108.451 65.3443 108.026 65.5727 107.661 65.895C107.296 66.2182 106.944 66.6763 106.601 67.2404L107.601 67.849C107.913 67.3362 108.194 66.9868 108.437 66.7716C108.681 66.5555 108.841 66.5147 108.927 66.5147V65.3443ZM106.597 67.247C105.952 68.3389 105.397 69.7749 104.921 71.5353L106.051 71.8407C106.511 70.1366 107.033 68.8104 107.605 67.8424L106.597 67.247ZM104.917 71.5497C104.484 73.3294 104.269 75.1784 104.269 77.0953H105.439C105.439 75.2669 105.645 73.511 106.054 71.8263L104.917 71.5497ZM104.269 77.0953C104.269 79.3818 104.804 81.2428 105.952 82.5998L106.845 81.8438C105.934 80.7663 105.439 79.2097 105.439 77.0953H104.269ZM105.968 82.618C107.172 83.9272 108.79 84.5627 110.753 84.5627V83.3922C109.064 83.3922 107.779 82.8573 106.829 81.8256L105.968 82.618ZM110.753 84.5627C112.72 84.5627 114.551 83.9037 116.235 82.6165L115.524 81.6867C114.023 82.834 112.437 83.3922 110.753 83.3922V84.5627ZM116.237 82.6149C117.925 81.3123 119.853 79.3315 122.02 76.6943L121.115 75.9514C118.974 78.5577 117.11 80.4627 115.522 81.6882L116.237 82.6149ZM122.012 76.7037C122.49 76.1456 122.971 75.9249 123.464 75.9249V74.7545C122.552 74.7545 121.768 75.1893 121.123 75.942L122.012 76.7037ZM190.69 76.1824L190.185 76.4773L190.194 76.4924L190.203 76.507L190.69 76.1824ZM189.918 82.8538L190.369 83.227L190.369 83.2265L189.918 82.8538ZM183.106 89.1741L183.419 89.6687L183.426 89.6641L183.106 89.1741ZM166.462 88.3314L166.062 88.7587L166.067 88.7632L166.462 88.3314ZM160.283 78.7808L160.817 78.5425L160.815 78.5386L160.283 78.7808ZM156.771 71.8987L156.264 72.1907L156.269 72.1998L156.275 72.2088L156.771 71.8987ZM154.103 68.6683L153.756 69.1394L153.764 69.1455L153.772 69.1513L154.103 68.6683ZM150.732 67.4744L150.792 66.8923L150.235 66.8347L150.153 67.3884L150.732 67.4744ZM149.959 72.6711L149.381 72.5851L149.38 72.5861L149.959 72.6711ZM144.201 87.1376L143.78 86.7305L143.777 86.734L144.201 87.1376ZM123.906 89.2444L123.59 89.737L123.601 89.7437L123.906 89.2444ZM118.709 83.205L118.164 83.4171L118.166 83.4241L118.709 83.205ZM119.201 76.8144L119.694 77.1286L119.694 77.1286L119.201 76.8144ZM123.274 75.7611L122.914 76.223L122.931 76.2361L122.949 76.248L123.274 75.7611ZM124.468 77.306L123.944 77.5677L123.948 77.5749L123.951 77.5819L124.468 77.306ZM128.26 82.9943L127.846 83.4082L127.855 83.4168L128.26 82.9943ZM137.178 82.0814L136.718 81.7203L136.716 81.7221L137.178 82.0814ZM140.058 74.1459L140.636 74.2371L140.637 74.2312L140.058 74.1459ZM141.041 67.4744L141.62 67.5598L141.719 66.8892H141.041V67.4744ZM137.389 66.5615L137.803 66.1477L137.803 66.1477L137.389 66.5615ZM137.389 61.1541L136.949 60.7688L136.947 60.7709L137.389 61.1541ZM142.094 60.0305V60.6158H142.602L142.673 60.1133L142.094 60.0305ZM142.796 55.2552L143.375 55.3465L143.376 55.3351L142.796 55.2552ZM144.973 39.4545L145.553 39.5343L145.635 38.9417L145.04 38.8731L144.973 39.4545ZM132.473 41.3505L132.795 41.8392L132.803 41.8341L132.473 41.3505ZM129.734 50.1287L129.176 50.3033L129.183 50.325L129.191 50.3461L129.734 50.1287ZM130.788 52.5164L130.259 52.767L130.264 52.7781L130.788 52.5164ZM129.594 56.5193L129.96 56.9762L129.962 56.9741L129.594 56.5193ZM123.133 55.6766L123.649 55.4001L123.643 55.3883L123.133 55.6766ZM123.414 39.5949L122.929 39.2681L122.924 39.2746L123.414 39.5949ZM130.788 33.7662L131.025 34.3013L131.031 34.2984L130.788 33.7662ZM148.695 31.8701L148.617 32.45L148.619 32.4503L148.695 31.8701ZM154.524 33.2044L154.35 33.7632L154.353 33.764L154.524 33.2044ZM154.665 40.9994V40.4142H154.158L154.085 40.9155L154.665 40.9994ZM151.926 59.8901L151.347 59.8061L151.239 60.5488L151.985 60.4722L151.926 59.8901ZM165.269 52.8675L164.819 52.4934L164.818 52.4939L165.269 52.8675ZM173.906 35.9432L174.463 36.1227L174.463 36.1223L173.906 35.9432ZM176.013 32.9235L175.683 32.4398L175.673 32.4473L176.013 32.9235ZM182.895 32.783L182.512 33.2253L182.528 33.2388L182.544 33.2512L182.895 32.783ZM183.738 36.8561L184.298 37.0258L184.302 37.012L184.306 36.998L183.738 36.8561ZM173.696 55.2552L174.118 55.6602L174.118 55.6602L173.696 55.2552ZM159.44 64.3143L159.276 63.7524L157.145 64.3723L159.305 64.8838L159.44 64.3143ZM163.794 66.2104L163.443 66.6786L163.452 66.6853L163.794 66.2104ZM166.743 69.3705L166.248 69.6824L166.253 69.6908L166.743 69.3705ZM169.482 74.497L168.952 74.7451L168.952 74.7458L169.482 74.497ZM173.555 81.0982L173.134 81.5045L173.141 81.512L173.555 81.0982ZM182.263 81.5196L182.606 81.9937L182.617 81.9858L182.263 81.5196ZM187.39 76.3229L186.945 75.942L186.943 75.9448L187.39 76.3229ZM189.286 75.9249C189.669 75.9249 189.953 76.0802 190.185 76.4773L191.196 75.8875C190.772 75.161 190.119 74.7545 189.286 74.7545V75.9249ZM190.203 76.507C190.491 76.9382 190.667 77.5822 190.667 78.4999H191.837C191.837 77.4512 191.639 76.5503 191.177 75.8578L190.203 76.507ZM190.667 78.4999C190.667 80.232 190.246 81.5378 189.467 82.4811L190.369 83.2265C191.369 82.0163 191.837 80.4194 191.837 78.4999H190.667ZM189.467 82.4807C187.247 85.1631 185.019 87.2259 182.786 88.6842L183.426 89.6641C185.781 88.1261 188.094 85.9754 190.369 83.227L189.467 82.4807ZM182.793 88.6796C180.606 90.0629 178.003 90.7659 174.96 90.7659V91.9363C178.19 91.9363 181.017 91.188 183.419 89.6687L182.793 88.6796ZM174.96 90.7659C171.616 90.7659 168.933 89.7983 166.857 87.8997L166.067 88.7632C168.393 90.8908 171.374 91.9363 174.96 91.9363V90.7659ZM166.862 87.9042C164.742 85.9192 162.721 82.8143 160.817 78.5425L159.748 79.019C161.683 83.3616 163.782 86.6238 166.062 88.7586L166.862 87.9042ZM160.815 78.5386C159.408 75.4424 158.225 73.1201 157.268 71.5885L156.275 72.2088C157.19 73.6735 158.348 75.9393 159.75 79.0229L160.815 78.5386ZM157.278 71.6067C156.37 70.0293 155.428 68.8657 154.433 68.1853L153.772 69.1513C154.557 69.6881 155.393 70.6781 156.264 72.1907L157.278 71.6067ZM154.45 68.1972C153.459 67.4668 152.229 67.041 150.792 66.8923L150.672 68.0566C151.95 68.1888 152.968 68.5589 153.756 69.1394L154.45 68.1972ZM150.153 67.3884L149.381 72.5851L150.538 72.7572L151.311 67.5605L150.153 67.3884ZM149.38 72.5861C148.405 79.2312 146.512 83.9098 143.78 86.7305L144.621 87.5447C147.602 84.4665 149.548 79.5007 150.538 72.7562L149.38 72.5861ZM143.777 86.734C141.102 89.5429 137.383 90.9766 132.543 90.9766V92.147C137.629 92.147 141.682 90.6313 144.625 87.5412L143.777 86.734ZM132.543 90.9766C129.411 90.9766 126.639 90.2288 124.211 88.745L123.601 89.7437C126.229 91.3499 129.215 92.147 132.543 92.147V90.9766ZM124.222 88.7518C121.829 87.2171 120.184 85.2943 119.252 82.9858L118.166 83.4241C119.2 85.9846 121.019 88.0881 123.59 89.7369L124.222 88.7518ZM119.254 82.9929C118.955 82.2235 118.803 81.3831 118.803 80.4662H117.632C117.632 81.5155 117.807 82.5011 118.164 83.4171L119.254 82.9929ZM118.803 80.4662C118.803 79.1558 119.107 78.0512 119.694 77.1286L118.707 76.5003C117.983 77.6376 117.632 78.9675 117.632 80.4662H118.803ZM119.694 77.1286C120.266 76.2311 120.938 75.8547 121.729 75.8547V74.6843C120.459 74.6843 119.447 75.3379 118.707 76.5003L119.694 77.1286ZM121.729 75.8547C122.226 75.8547 122.61 75.9862 122.914 76.223L123.633 75.2991C123.095 74.8805 122.448 74.6843 121.729 74.6843V75.8547ZM122.949 76.248C123.247 76.4468 123.589 76.8568 123.944 77.5677L124.991 77.0443C124.597 76.2571 124.143 75.6372 123.598 75.2741L122.949 76.248ZM123.951 77.5819C125.408 80.3073 126.705 82.2674 127.846 83.4081L128.674 82.5805C127.661 81.5676 126.43 79.7355 124.984 77.0302L123.951 77.5819ZM127.855 83.4168C129.094 84.604 130.622 85.1947 132.403 85.1947V84.0243C130.906 84.0243 129.673 83.5382 128.665 82.5718L127.855 83.4168ZM132.403 85.1947C134.483 85.1947 136.236 84.2459 137.64 82.4406L136.716 81.7221C135.499 83.2876 134.068 84.0243 132.403 84.0243V85.1947ZM137.639 82.4424C139.085 80.5968 140.067 77.8378 140.636 74.2371L139.48 74.0546C138.924 77.5701 137.987 80.1015 136.718 81.7203L137.639 82.4424ZM140.637 74.2312L141.62 67.5598L140.462 67.3891L139.479 74.0606L140.637 74.2312ZM141.041 66.8892H139.917V68.0597H141.041V66.8892ZM139.917 66.8892C138.954 66.8892 138.276 66.6206 137.803 66.1477L136.975 66.9753C137.72 67.7197 138.726 68.0597 139.917 68.0597V66.8892ZM137.803 66.1477C137.33 65.6749 137.061 64.9961 137.061 64.0334H135.891C135.891 65.2243 136.231 66.2309 136.975 66.9753L137.803 66.1477ZM137.061 64.0334C137.061 62.9125 137.34 62.1039 137.831 61.5374L136.947 60.7709C136.221 61.6089 135.891 62.7198 135.891 64.0334H137.061ZM137.829 61.5395C138.382 60.9084 139.021 60.6158 139.777 60.6158V59.4453C138.66 59.4453 137.707 59.9018 136.949 60.7688L137.829 61.5395ZM139.777 60.6158H142.094V59.4453H139.777V60.6158ZM142.673 60.1133C143.001 57.8191 143.235 56.2312 143.374 55.3465L142.218 55.1639C142.077 56.0582 141.842 57.654 141.515 59.9478L142.673 60.1133ZM143.376 55.3351L145.553 39.5343L144.394 39.3746L142.217 55.1753L143.376 55.3351ZM145.04 38.8731C143.804 38.7304 142.634 38.6586 141.532 38.6586V39.829C142.584 39.829 143.708 39.8976 144.906 40.0358L145.04 38.8731ZM141.532 38.6586C137.5 38.6586 134.343 39.3675 132.144 40.867L132.803 41.8341C134.723 40.5246 137.606 39.829 141.532 39.829V38.6586ZM132.151 40.8619C129.919 42.3334 128.798 44.4881 128.798 47.2495H129.969C129.969 44.861 130.908 43.083 132.795 41.8392L132.151 40.8619ZM128.798 47.2495C128.798 48.453 128.918 49.4773 129.176 50.3033L130.293 49.9542C130.083 49.282 129.969 48.3868 129.969 47.2495H128.798ZM129.191 50.3461C129.478 51.0623 129.834 51.8695 130.259 52.7669L131.317 52.2659C130.899 51.3842 130.553 50.5997 130.278 49.9114L129.191 50.3461ZM130.264 52.7781C130.406 53.0622 130.484 53.3923 130.484 53.7805H131.654C131.654 53.2323 131.544 52.7197 131.311 52.2547L130.264 52.7781ZM130.484 53.7805C130.484 54.5938 130.106 55.3517 129.226 56.0644L129.962 56.9741C131.048 56.095 131.654 55.0271 131.654 53.7805H130.484ZM129.228 56.0623C128.393 56.7306 127.468 57.0577 126.434 57.0577V58.2281C127.741 58.2281 128.922 57.8061 129.96 56.9762L129.228 56.0623ZM126.434 57.0577C125.772 57.0577 125.23 56.9137 124.785 56.6485C124.34 56.3835 123.958 55.9773 123.649 55.4002L122.617 55.9529C123.011 56.6867 123.53 57.2637 124.186 57.654C124.841 58.0443 125.597 58.2281 126.434 58.2281V57.0577ZM123.643 55.3883C122.288 52.9951 121.612 50.4258 121.612 47.6708H120.441C120.441 50.6275 121.17 53.3955 122.624 55.9648L123.643 55.3883ZM121.612 47.6708C121.612 44.8334 122.375 42.253 123.904 39.9152L122.924 39.2746C121.269 41.8058 120.441 44.6093 120.441 47.6708H121.612ZM123.9 39.9217C125.464 37.597 127.826 35.7179 131.025 34.3013L130.551 33.2311C127.195 34.7172 124.641 36.7238 122.929 39.2681L123.9 39.9217ZM131.031 34.2984C134.211 32.8449 138.172 32.1042 142.937 32.1042V30.9338C138.058 30.9338 133.919 31.6912 130.545 33.234L131.031 34.2984ZM142.937 32.1042C145.023 32.1042 146.915 32.2201 148.617 32.45L148.774 31.2902C147.011 31.0519 145.065 30.9338 142.937 30.9338V32.1042ZM148.619 32.4503C150.358 32.6792 152.268 33.1155 154.35 33.7632L154.698 32.6456C152.566 31.9824 150.59 31.5292 148.772 31.2899L148.619 32.4503ZM154.353 33.764C155.433 34.0948 156.185 34.5515 156.664 35.0996C157.135 35.6372 157.38 36.3035 157.38 37.137H158.55C158.55 36.0511 158.222 35.1021 157.545 34.3289C156.878 33.5661 155.909 33.0162 154.695 32.6448L154.353 33.764ZM157.38 37.137C157.38 38.3548 157.118 39.159 156.695 39.6536C156.287 40.1307 155.648 40.4142 154.665 40.4142V41.5846C155.881 41.5846 156.892 41.2244 157.585 40.414C158.262 39.6212 158.55 38.4942 158.55 37.137H157.38ZM154.085 40.9155L151.347 59.8061L152.505 59.9741L155.244 41.0834L154.085 40.9155ZM151.985 60.4722C157.611 59.8953 162.2 57.4828 165.719 53.2412L164.818 52.4939C161.501 56.4921 157.196 58.7613 151.866 59.3079L151.985 60.4722ZM165.719 53.2417C169.245 49.0002 172.154 43.2848 174.463 36.1227L173.349 35.7636C171.07 42.8339 168.221 48.4014 164.819 52.4934L165.719 53.2417ZM174.463 36.1223C174.852 34.9137 175.486 34.0188 176.353 33.3997L175.673 32.4473C174.573 33.2327 173.803 34.3509 173.349 35.7641L174.463 36.1223ZM176.343 33.407C177.254 32.7853 178.42 32.4553 179.875 32.4553V31.2849C178.241 31.2849 176.832 31.6571 175.683 32.44L176.343 33.407ZM179.875 32.4553C181.103 32.4553 181.953 32.7405 182.512 33.2253L183.278 32.3408C182.433 31.6083 181.27 31.2849 179.875 31.2849V32.4553ZM182.544 33.2512C183.122 33.6849 183.434 34.3169 183.434 35.2409H184.604C184.604 34.0114 184.166 33.0048 183.246 32.3149L182.544 33.2512ZM183.434 35.2409C183.434 35.4896 183.357 35.966 183.17 36.7142L184.306 36.998C184.493 36.2481 184.604 35.6477 184.604 35.2409H183.434ZM183.178 36.6864C180.856 44.3472 177.548 50.3916 173.273 54.8502L174.118 55.6602C178.551 51.0363 181.938 44.8146 184.298 37.0258L183.178 36.6864ZM173.273 54.8502C168.978 59.3303 164.312 62.2875 159.276 63.7524L159.603 64.8762C164.868 63.3448 169.705 60.2627 174.118 55.6602L173.273 54.8502ZM159.305 64.8838C161.028 65.2919 162.4 65.8963 163.443 66.6786L164.145 65.7422C162.941 64.839 161.409 64.1794 159.575 63.7448L159.305 64.8838ZM163.452 66.6853C164.559 67.4824 165.491 68.4797 166.248 69.6823L167.239 69.0587C166.404 67.7333 165.369 66.6237 164.136 65.7355L163.452 66.6853ZM166.253 69.6908C167.028 70.8748 167.927 72.5555 168.952 74.7451L170.012 74.2489C168.977 72.0377 168.051 70.3008 167.233 69.0503L166.253 69.6908ZM168.952 74.7458C170.412 77.8523 171.802 80.1231 173.134 81.5044L173.976 80.692C172.78 79.4516 171.455 77.3216 170.012 74.2482L168.952 74.7458ZM173.141 81.512C174.508 82.8784 176.129 83.5795 177.979 83.5795V82.4091C176.459 82.4091 175.131 81.8461 173.969 80.6844L173.141 81.512ZM177.979 83.5795C179.615 83.5795 181.161 83.04 182.606 81.9935L181.92 81.0456C180.65 81.9654 179.34 82.4091 177.979 82.4091V83.5795ZM182.617 81.9858C184.026 80.9164 185.768 79.145 187.836 76.7009L186.943 75.9448C184.891 78.3697 183.215 80.0627 181.909 81.0533L182.617 81.9858ZM187.834 76.7037C188.312 76.1456 188.793 75.9249 189.286 75.9249V74.7545C188.374 74.7545 187.59 75.1893 186.945 75.942L187.834 76.7037ZM186.724 88.5421L186.176 88.7476L186.181 88.7594L186.724 88.5421ZM188.269 62.2075L188.827 62.384L188.828 62.381L188.269 62.2075ZM190.306 59.2581L190.625 59.7488L190.63 59.745L190.306 59.2581ZM195.853 65.0166L195.288 64.8651L195.286 64.8746L195.853 65.0166ZM194.028 75.129L193.445 75.076L194.574 75.3387L194.028 75.129ZM199.224 65.2975L198.758 64.9436L198.758 64.9436L199.224 65.2975ZM204.842 59.8901L204.551 59.3827L204.545 59.386L204.842 59.8901ZM212.988 72.7414L213.56 72.8662L213.561 72.8647L212.988 72.7414ZM216.991 81.9409L217.38 82.3783L217.381 82.3774L216.991 81.9409ZM222.188 76.3229L221.744 75.942L221.739 75.9474L222.188 76.3229ZM225.489 76.1824L224.983 76.4773L224.992 76.4924L225.002 76.507L225.489 76.1824ZM224.716 82.8538L224.273 82.4713L224.267 82.4781L224.262 82.4851L224.716 82.8538ZM218.185 88.9635L217.856 88.4795L217.852 88.4827L218.185 88.9635ZM204.913 89.3146L204.47 89.6979L204.477 89.7052L204.913 89.3146ZM204.07 76.2526L203.497 76.1344L203.495 76.1409L204.07 76.2526ZM201.612 71.4071L201.134 71.0696L201.132 71.0725L201.612 71.4071ZM198.241 77.5869L197.708 77.3447L197.705 77.3529L198.241 77.5869ZM195.502 85.7331L194.934 85.5933L194.932 85.5997L195.502 85.7331ZM193.676 90.2275L193.238 89.8403L193.236 89.8422L193.676 90.2275ZM190.516 90.7659C189.735 90.7659 189.101 90.5625 188.582 90.1786C188.059 89.7909 187.613 89.1884 187.267 88.3248L186.181 88.7594C186.584 89.7685 187.145 90.5705 187.886 91.1191C188.631 91.6716 189.519 91.9363 190.516 91.9363V90.7659ZM187.272 88.3366C186.609 86.5681 186.256 83.6613 186.256 79.5532H185.086C185.086 83.685 185.435 86.7707 186.176 88.7476L187.272 88.3366ZM186.256 79.5532C186.256 73.5233 187.114 67.8012 188.827 62.384L187.711 62.0311C185.96 67.569 185.086 73.4107 185.086 79.5532H186.256ZM188.828 62.381C189.22 61.1174 189.831 60.2644 190.625 59.7487L189.987 58.7674C188.907 59.4689 188.161 60.5823 187.71 62.0341L188.828 62.381ZM190.63 59.745C191.482 59.177 192.711 58.8601 194.379 58.8601V57.6897C192.582 57.6897 191.095 58.0282 189.981 58.7711L190.63 59.745ZM194.379 58.8601C195.303 58.8601 195.811 58.9825 196.035 59.1223L196.655 58.1298C196.13 57.8014 195.327 57.6897 194.379 57.6897V58.8601ZM196.035 59.1223C196.165 59.2036 196.322 59.4016 196.322 59.9603H197.492C197.492 59.2082 197.274 58.5166 196.655 58.1298L196.035 59.1223ZM196.322 59.9603C196.322 60.2692 196.246 60.8261 196.071 61.6668C195.898 62.4945 195.638 63.5596 195.288 64.8651L196.419 65.168C196.771 63.8518 197.038 62.7633 197.216 61.9055C197.392 61.0608 197.492 60.4005 197.492 59.9603H196.322ZM195.286 64.8746C194.816 66.7534 194.439 68.4015 194.156 69.8176L195.304 70.0471C195.582 68.6542 195.955 67.025 196.421 65.1585L195.286 64.8746ZM194.156 69.8176C193.87 71.2493 193.633 73.0036 193.445 75.076L194.61 75.182C194.797 73.1346 195.028 71.4244 195.304 70.0471L194.156 69.8176ZM194.574 75.3387C196.106 71.3469 197.814 68.1229 199.69 65.6513L198.758 64.9436C196.796 67.5283 195.039 70.8586 193.481 74.9194L194.574 75.3387ZM199.69 65.6513C201.585 63.1565 203.403 61.4181 205.14 60.3942L204.545 59.386C202.63 60.5157 200.703 62.3822 198.758 64.9436L199.69 65.6513ZM205.134 60.3974C206.952 59.3523 208.559 58.8601 209.969 58.8601V57.6897C208.289 57.6897 206.478 58.2743 204.551 59.3828L205.134 60.3974ZM209.969 58.8601C211.4 58.8601 212.366 59.2176 212.978 59.8299C213.591 60.4422 213.948 61.4082 213.948 62.8396H215.119C215.119 61.2278 214.715 59.9115 213.806 59.0023C212.897 58.093 211.581 57.6897 209.969 57.6897V58.8601ZM213.948 62.8396C213.948 64.5945 213.447 67.8375 212.416 72.618L213.561 72.8647C214.589 68.0946 215.119 64.7363 215.119 62.8396H213.948ZM212.417 72.6165C211.53 76.6763 211.069 79.4318 211.069 80.8173H212.239C212.239 79.581 212.668 76.9526 213.56 72.8662L212.417 72.6165ZM211.069 80.8173C211.069 81.8069 211.245 82.6547 211.69 83.2676C212.159 83.9153 212.861 84.2115 213.691 84.2115V83.0411C213.162 83.0411 212.846 82.8691 212.637 82.5806C212.403 82.2571 212.239 81.7004 212.239 80.8173H211.069ZM213.691 84.2115C214.848 84.2115 216.086 83.5283 217.38 82.3783L216.603 81.5035C215.368 82.6007 214.406 83.0411 213.691 83.0411V84.2115ZM217.381 82.3774C218.724 81.1781 220.478 79.2792 222.637 76.6983L221.739 75.9474C219.591 78.5164 217.88 80.3629 216.602 81.5044L217.381 82.3774ZM222.632 76.7037C223.111 76.1456 223.591 75.9249 224.084 75.9249V74.7545C223.173 74.7545 222.389 75.1893 221.744 75.942L222.632 76.7037ZM224.084 75.9249C224.468 75.9249 224.751 76.0802 224.983 76.4773L225.994 75.8875C225.57 75.161 224.918 74.7545 224.084 74.7545V75.9249ZM225.002 76.507C225.289 76.9382 225.465 77.5822 225.465 78.4999H226.636C226.636 77.4512 226.437 76.5503 225.976 75.8578L225.002 76.507ZM225.465 78.4999C225.465 80.2849 225.041 81.5818 224.273 82.4713L225.159 83.2363C226.17 82.066 226.636 80.4602 226.636 78.4999H225.465ZM224.262 82.4851C222.28 84.9277 220.144 86.9237 217.856 88.4795L218.514 89.4474C220.908 87.8197 223.126 85.7426 225.171 83.2225L224.262 82.4851ZM217.852 88.4827C215.661 90.0025 213.157 90.7659 210.32 90.7659V91.9363C213.382 91.9363 216.121 91.108 218.519 89.4443L217.852 88.4827ZM210.32 90.7659C208.044 90.7659 206.423 90.1224 205.348 88.9239L204.477 89.7052C205.837 91.2222 207.82 91.9363 210.32 91.9363V90.7659ZM205.355 88.9313C204.261 87.6697 203.672 85.8135 203.672 83.2752H202.501C202.501 85.9804 203.129 88.1504 204.47 89.6979L205.355 88.9313ZM203.672 83.2752C203.672 82.028 203.988 79.7389 204.644 76.3643L203.495 76.1409C202.841 79.508 202.501 81.9006 202.501 83.2752H203.672ZM204.643 76.3709C205.251 73.4265 205.568 71.3345 205.568 70.143H204.398C204.398 71.1987 204.106 73.1799 203.497 76.1344L204.643 76.3709ZM205.568 70.143C205.568 69.7196 205.498 69.2984 205.272 68.9688C205.018 68.5996 204.631 68.4342 204.21 68.4342V69.6046C204.268 69.6046 204.29 69.6149 204.293 69.6162C204.295 69.6171 204.295 69.6176 204.296 69.6183C204.297 69.6192 204.301 69.6229 204.307 69.6318C204.338 69.6768 204.398 69.8174 204.398 70.143H205.568ZM204.21 68.4342C203.673 68.4342 203.161 68.769 202.708 69.1854C202.231 69.6238 201.706 70.2588 201.134 71.0696L202.09 71.7446C202.641 70.9636 203.111 70.4048 203.5 70.0472C203.913 69.6678 204.139 69.6046 204.21 69.6046V68.4342ZM201.132 71.0725C200.027 72.6572 198.887 74.7518 197.708 77.3448L198.774 77.8291C199.936 75.2721 201.043 73.2469 202.092 71.7417L201.132 71.0725ZM197.705 77.3529C196.567 79.9597 195.644 82.7067 194.934 85.5933L196.071 85.8728C196.765 83.0478 197.668 80.3641 198.777 77.821L197.705 77.3529ZM194.932 85.5997C194.42 87.7896 193.836 89.1617 193.238 89.8403L194.115 90.6147C194.921 89.7016 195.555 88.0774 196.072 85.8664L194.932 85.5997ZM193.236 89.8422C192.735 90.4149 191.878 90.7659 190.516 90.7659V91.9363C192.057 91.9363 193.307 91.5382 194.117 90.6129L193.236 89.8422ZM225.144 52.3057L224.74 52.7295L224.746 52.7347L224.751 52.7397L225.144 52.3057ZM225.565 44.3702L225.945 44.8157L225.946 44.8146L225.565 44.3702ZM234.625 43.9489L234.264 44.4097L234.625 43.9489ZM234.414 52.0248L234.802 52.4632L234.811 52.4548L234.414 52.0248ZM222.335 88.1208L221.84 88.4329L221.845 88.4404L222.335 88.1208ZM221.071 71.4773L220.494 71.3798L220.493 71.3865L221.071 71.4773ZM223.178 62.2075L223.739 62.3732L223.741 62.366L223.178 62.2075ZM230.481 68.8087L231.053 68.9335L231.054 68.9283L230.481 68.8087ZM234.414 81.8707L234.016 81.4413L234.016 81.4413L234.414 81.8707ZM239.47 76.3229L239.026 75.942L239.02 75.9482L239.47 76.3229ZM242.771 76.1824L242.265 76.4773L242.274 76.4924L242.284 76.507L242.771 76.1824ZM241.998 82.8538L241.555 82.4713L241.55 82.4772L241.545 82.4833L241.998 82.8538ZM229.568 53.0548C227.678 53.0548 226.37 52.6261 225.537 51.8718L224.751 52.7397C225.884 53.7644 227.525 54.2252 229.568 54.2252V53.0548ZM225.548 51.882C224.704 51.0785 224.255 49.9574 224.255 48.4433H223.084C223.084 50.2064 223.618 51.6603 224.74 52.7295L225.548 51.882ZM224.255 48.4433C224.255 46.9788 224.809 45.7831 225.945 44.8157L225.186 43.9248C223.793 45.111 223.084 46.6306 223.084 48.4433H224.255ZM225.946 44.8146C227.139 43.7922 228.614 43.27 230.411 43.27V42.0996C228.368 42.0996 226.614 42.7011 225.185 43.9259L225.946 44.8146ZM230.411 43.27C232.048 43.27 233.315 43.667 234.264 44.4097L234.985 43.488C233.781 42.5453 232.238 42.0996 230.411 42.0996V43.27ZM234.264 44.4097C235.179 45.1261 235.654 46.1388 235.654 47.5304H236.825C236.825 45.832 236.223 44.4571 234.985 43.488L234.264 44.4097ZM235.654 47.5304C235.654 49.2633 235.098 50.597 234.017 51.5948L234.811 52.4548C236.164 51.2054 236.825 49.5429 236.825 47.5304H235.654ZM234.026 51.5865C232.94 52.5475 231.474 53.0548 229.568 53.0548V54.2252C231.689 54.2252 233.453 53.6557 234.802 52.4632L234.026 51.5865ZM229.006 90.7659C226.119 90.7659 224.101 89.7566 222.825 87.8011L221.845 88.4404C223.379 90.7921 225.808 91.9363 229.006 91.9363V90.7659ZM222.83 87.8087C221.55 85.7787 220.884 83.043 220.884 79.5532H219.713C219.713 83.1797 220.404 86.1557 221.84 88.4328L222.83 87.8087ZM220.884 79.5532C220.884 77.489 221.136 74.8303 221.649 71.5681L220.493 71.3865C219.976 74.6787 219.713 77.4039 219.713 79.5532H220.884ZM221.648 71.5748C222.206 68.2709 222.904 65.2039 223.739 62.3732L222.616 62.0419C221.766 64.9228 221.059 68.0357 220.494 71.3798L221.648 71.5748ZM223.741 62.366C224.151 60.909 224.669 60.022 225.229 59.5746L224.498 58.6606C223.652 59.3368 223.047 60.5098 222.614 62.0491L223.741 62.366ZM225.229 59.5746C225.776 59.1372 226.736 58.8601 228.234 58.8601V57.6897C226.642 57.6897 225.355 57.9744 224.498 58.6606L225.229 59.5746ZM228.234 58.8601C229.381 58.8601 230.139 59.0547 230.595 59.3587C231.01 59.6349 231.23 60.0372 231.23 60.6626H232.401C232.401 59.6962 232.024 58.9046 231.245 58.3849C230.507 57.8931 229.474 57.6897 228.234 57.6897V58.8601ZM231.23 60.6626C231.23 61.7596 230.802 64.4094 229.908 68.6891L231.054 68.9283C231.94 64.6874 232.401 61.9064 232.401 60.6626H231.23ZM229.909 68.684C228.788 73.825 228.211 77.3735 228.211 79.2723H229.381C229.381 77.5195 229.927 74.0922 231.053 68.9335L229.909 68.684ZM228.211 79.2723C228.211 80.7139 228.4 81.8968 228.834 82.7644L229.881 82.241C229.566 81.6105 229.381 80.6398 229.381 79.2723H228.211ZM228.834 82.7644C229.064 83.225 229.388 83.5966 229.814 83.8489C230.238 84.0999 230.726 84.2115 231.254 84.2115V83.0411C230.892 83.0411 230.619 82.9655 230.411 82.842C230.205 82.7197 230.025 82.5295 229.881 82.241L228.834 82.7644ZM231.254 84.2115C232.336 84.2115 233.535 83.4819 234.811 82.3001L234.016 81.4413C232.764 82.6003 231.856 83.0411 231.254 83.0411V84.2115ZM234.811 82.3001C236.104 81.1035 237.808 79.2309 239.92 76.6975L239.02 75.9482C236.918 78.471 235.252 80.297 234.016 81.4413L234.811 82.3001ZM239.914 76.7037C240.393 76.1456 240.873 75.9249 241.366 75.9249V74.7545C240.455 74.7545 239.671 75.1893 239.026 75.942L239.914 76.7037ZM241.366 75.9249C241.75 75.9249 242.034 76.0802 242.265 76.4773L243.276 75.8875C242.852 75.161 242.2 74.7545 241.366 74.7545V75.9249ZM242.284 76.507C242.571 76.9382 242.747 77.5822 242.747 78.4999H243.918C243.918 77.4512 243.719 76.5503 243.258 75.8578L242.284 76.507ZM242.747 78.4999C242.747 80.2849 242.324 81.5818 241.555 82.4713L242.441 83.2363C243.452 82.066 243.918 80.4602 243.918 78.4999H242.747ZM241.545 82.4833C236.936 88.1165 232.757 90.7659 229.006 90.7659V91.9363C233.309 91.9363 237.79 88.9209 242.451 83.2244L241.545 82.4833ZM249.238 64.9463V64.3611H248.676L248.653 64.9229L249.238 64.9463ZM249.589 78.3594L249.012 78.4579L249.014 78.4661L249.015 78.4742L249.589 78.3594ZM251.345 82.4325L250.919 82.8343L250.931 82.8465L250.943 82.8579L251.345 82.4325ZM257.454 82.9241L257.212 82.3913L257.212 82.3913L257.454 82.9241ZM260.263 81.0982L260.652 81.5356L260.657 81.5312L260.263 81.0982ZM263.143 81.3791L262.619 81.6408L262.631 81.6639L262.644 81.6858L263.143 81.3791ZM263.143 86.2247L262.608 85.987L262.602 85.9996L262.597 86.0126L263.143 86.2247ZM261.598 88.3314L261.232 87.8744L261.225 87.8804L261.598 88.3314ZM243.55 85.8033L243.037 86.0853L243.038 86.0881L243.55 85.8033ZM240.67 64.9463L241.254 64.9853L241.296 64.3611H240.67V64.9463ZM235.052 64.1738L234.619 64.5675L234.629 64.5778L234.639 64.5877L235.052 64.1738ZM241.513 57.7833V58.3685H242.015L242.092 57.8727L241.513 57.7833ZM245.165 43.668L244.619 43.4579L244.619 43.4579L245.165 43.668ZM251.064 33.4853L250.634 33.0877L250.63 33.092L251.064 33.4853ZM263.213 32.2915L263.704 31.973L263.704 31.973L263.213 32.2915ZM255.769 57.7833L255.381 57.345L254.224 58.3685H255.769V57.7833ZM254.294 39.1033L253.771 38.8416L253.768 38.8473L254.294 39.1033ZM251.836 46.4068L251.269 46.2628L251.268 46.2689L251.836 46.4068ZM249.94 56.7299L249.36 56.6512L249.152 58.1848L250.323 57.1727L249.94 56.7299ZM256.12 48.7242L255.59 48.4758L255.589 48.4795L256.12 48.7242ZM248.653 64.9229C248.56 67.2666 248.512 69.1015 248.512 70.4239H249.683C249.683 69.1246 249.729 67.3078 249.823 64.9697L248.653 64.9229ZM248.512 70.4239C248.512 73.8076 248.676 76.4907 249.012 78.4579L250.166 78.2609C249.846 76.3891 249.683 73.7819 249.683 70.4239H248.512ZM249.015 78.4742C249.399 80.392 250.014 81.8754 250.919 82.8343L251.77 82.0307C251.084 81.3041 250.528 80.0722 250.163 78.2446L249.015 78.4742ZM250.943 82.8579C251.92 83.7806 253.224 84.2115 254.786 84.2115V83.0411C253.445 83.0411 252.455 82.6761 251.747 82.007L250.943 82.8579ZM254.786 84.2115C255.65 84.2115 256.626 83.9435 257.697 83.4568L257.212 82.3913C256.223 82.8409 255.42 83.0411 254.786 83.0411V84.2115ZM257.697 83.4568C258.78 82.9645 259.766 82.3238 260.652 81.5356L259.875 80.6608C259.076 81.3708 258.189 81.9473 257.212 82.3913L257.697 83.4568ZM260.657 81.5312C261.103 81.1261 261.484 80.9812 261.808 80.9812V79.8107C261.103 79.8107 260.454 80.134 259.87 80.6652L260.657 81.5312ZM261.808 80.9812C262.079 80.9812 262.355 81.1125 262.619 81.6408L263.666 81.1174C263.275 80.3348 262.662 79.8107 261.808 79.8107V80.9812ZM262.644 81.6858C262.95 82.1821 263.119 82.8187 263.119 83.6263H264.29C264.29 82.6549 264.085 81.7934 263.641 81.0724L262.644 81.6858ZM263.119 83.6263C263.119 84.4309 262.95 85.2163 262.608 85.987L263.677 86.4623C264.084 85.5476 264.29 84.6007 264.29 83.6263H263.119ZM262.597 86.0126C262.307 86.7598 261.853 87.3774 261.232 87.8745L261.963 88.7884C262.746 88.1619 263.323 87.375 263.688 86.4368L262.597 86.0126ZM261.225 87.8804C258.893 89.8089 256.262 90.7659 253.311 90.7659V91.9363C256.54 91.9363 259.434 90.8802 261.971 88.7824L261.225 87.8804ZM253.311 90.7659C251.17 90.7659 249.348 90.3213 247.824 89.4554C246.302 88.5904 245.046 87.2868 244.061 85.5186L243.038 86.0881C244.114 88.0184 245.514 89.4887 247.246 90.473C248.976 91.4564 251.005 91.9363 253.311 91.9363V90.7659ZM244.063 85.5213C242.065 81.8901 241.045 77.1279 241.045 71.1964H239.875C239.875 77.2501 240.914 82.2258 243.037 86.0853L244.063 85.5213ZM241.045 71.1964C241.045 69.1498 241.115 67.0794 241.254 64.9853L240.087 64.9074C239.945 67.0268 239.875 69.1231 239.875 71.1964H241.045ZM240.67 64.3611H237.932V65.5315H240.67V64.3611ZM237.932 64.3611C236.555 64.3611 235.806 64.0998 235.466 63.76L234.639 64.5877C235.329 65.2779 236.499 65.5315 237.932 65.5315V64.3611ZM235.485 63.7802C235.16 63.4224 234.935 62.7786 234.935 61.716H233.765C233.765 62.9006 234.008 63.8954 234.619 64.5675L235.485 63.7802ZM234.935 61.716C234.935 60.4681 235.189 59.6405 235.596 59.1331C235.985 58.65 236.585 58.3685 237.51 58.3685V57.1981C236.329 57.1981 235.349 57.572 234.684 58.3999C234.038 59.2033 233.765 60.3421 233.765 61.716H234.935ZM237.51 58.3685H241.513V57.1981H237.51V58.3685ZM242.092 57.8727C242.882 52.7584 244.089 48.0944 245.711 43.8781L244.619 43.4579C242.963 47.7623 241.736 52.5085 240.935 57.6939L242.092 57.8727ZM245.711 43.8781C247.332 39.6638 249.265 36.3384 251.497 33.8785L250.63 33.092C248.275 35.6884 246.275 39.1515 244.619 43.4579L245.711 43.8781ZM251.493 33.8829C253.757 31.4376 256.117 30.2783 258.578 30.2783V29.1079C255.702 29.1079 253.052 30.4768 250.634 33.0877L251.493 33.8829ZM258.578 30.2783C260.334 30.2783 261.7 31.034 262.722 32.6099L263.704 31.973C262.479 30.0844 260.754 29.1079 258.578 29.1079V30.2783ZM262.722 32.6099C263.769 34.2248 264.313 36.2834 264.313 38.8224H265.484C265.484 36.1179 264.904 33.8226 263.704 31.973L262.722 32.6099ZM264.313 38.8224C264.313 45.8903 261.359 52.0573 255.381 57.345L256.157 58.2216C262.352 52.7414 265.484 46.2679 265.484 38.8224H264.313ZM255.769 58.3685H263.634V57.1981H255.769V58.3685ZM263.634 58.3685C264.32 58.3685 264.669 58.5219 264.836 58.6887L265.663 57.8611C265.175 57.3724 264.447 57.1981 263.634 57.1981V58.3685ZM264.836 58.6887C264.988 58.8415 265.156 59.2401 265.156 60.1008H266.326C266.326 59.1824 266.166 58.3637 265.663 57.8611L264.836 58.6887ZM265.156 60.1008C265.156 61.5225 264.592 62.5395 263.452 63.2355C262.265 63.9601 260.41 64.3611 257.806 64.3611V65.5315C260.491 65.5315 262.604 65.125 264.062 64.2344C265.568 63.3152 266.326 61.9094 266.326 60.1008H265.156ZM257.806 64.3611H249.238V65.5315H257.806V64.3611ZM256.682 35.8495C256.079 35.8495 255.557 36.2256 255.122 36.7117C254.674 37.2124 254.226 37.9321 253.771 38.8416L254.818 39.365C255.252 38.4955 255.647 37.8809 255.994 37.4921C256.355 37.0886 256.583 37.02 256.682 37.02V35.8495ZM253.768 38.8473C252.9 40.6314 252.069 43.1097 251.269 46.2629L252.404 46.5507C253.195 43.4304 254.003 41.0397 254.82 39.3593L253.768 38.8473ZM251.268 46.2689C250.513 49.3818 249.878 52.843 249.36 56.6512L250.52 56.8087C251.033 53.0325 251.662 49.6116 252.405 46.5447L251.268 46.2689ZM250.323 57.1727C253.14 54.7372 255.255 52.0032 256.652 48.9689L255.589 48.4795C254.27 51.3442 252.264 53.9473 249.558 56.2872L250.323 57.1727ZM256.65 48.9726C258.079 45.925 258.812 43.1234 258.812 40.5781H257.642C257.642 42.9017 256.971 45.5309 255.59 48.4758L256.65 48.9726ZM258.812 40.5781C258.812 39.1772 258.684 38.0566 258.389 37.2661C258.24 36.8671 258.035 36.5144 257.748 36.2574C257.448 35.9895 257.084 35.8495 256.682 35.8495V37.02C256.795 37.02 256.881 37.0526 256.968 37.13C257.067 37.2183 257.184 37.3835 257.292 37.675C257.513 38.2657 257.642 39.2167 257.642 40.5781H258.812Z" fill="#00A550" mask="url(#path-1-outside-1_2_1898)"/>
<path d="M293.088 86.6777C293.97 88.2168 294.688 89.8447 295.228 91.5345C295.253 91.614 295.3 91.685 295.363 91.7397C295.427 91.7944 295.503 91.8308 295.586 91.8448C295.668 91.8588 295.753 91.8499 295.83 91.8191C295.908 91.7883 295.976 91.7368 296.026 91.6701C297.194 90.0528 297.933 88.1657 298.173 86.1852C298.181 86.1197 298.174 86.0533 298.154 85.9905C298.133 85.9278 298.1 85.8702 298.055 85.8218C298.01 85.7733 297.955 85.7352 297.894 85.7099C297.834 85.6847 297.768 85.673 297.702 85.6756C296.117 85.7374 294.556 86.0766 293.088 86.6777ZM295.984 78.9536C293.476 79.2328 291.041 79.9717 288.801 81.1335C287.992 80.3371 287.131 79.5948 286.225 78.9115C288.661 77.4716 291.336 76.4829 294.123 75.9928C294.193 75.9804 294.264 75.9842 294.332 76.004C294.399 76.0238 294.461 76.059 294.513 76.1068C295.196 76.7495 295.801 77.47 296.317 78.2536C296.359 78.3189 296.383 78.3938 296.388 78.4713C296.393 78.5487 296.378 78.6262 296.345 78.6963C296.312 78.7664 296.261 78.8268 296.198 78.8718C296.135 78.9169 296.061 78.945 295.984 78.9536ZM273.686 95.3948C273.748 95.2151 273.864 95.0593 274.019 94.9498C274.175 94.8403 274.36 94.7826 274.55 94.7848H280.096C278.711 93.9123 277.521 92.7633 276.602 91.4096C275.682 90.056 275.051 88.5269 274.75 86.9183C274.735 86.8394 274.741 86.7579 274.767 86.682C274.794 86.6062 274.84 86.5387 274.901 86.4864C274.962 86.4341 275.036 86.3989 275.114 86.3842C275.193 86.3695 275.275 86.376 275.351 86.4029C277.297 87.078 279.066 88.1817 280.528 89.6325C281.991 91.0833 283.108 92.8441 283.799 94.7848H285.723C284.946 92.2785 283.548 90.0094 281.659 88.1882C279.769 86.367 277.45 85.0528 274.917 84.3679C274.816 84.3397 274.727 84.2771 274.666 84.1909C274.606 84.1046 274.577 84 274.584 83.8948C274.641 83.1016 274.777 82.3162 274.993 81.5507C275.025 81.4347 275.101 81.3361 275.206 81.2763C275.31 81.2165 275.434 81.2004 275.55 81.2315C278.978 82.12 282.085 83.9607 284.51 86.5407C286.936 89.1207 288.582 92.3347 289.257 95.8109C289.281 95.9283 289.257 96.0501 289.191 96.1502C289.126 96.2502 289.023 96.3204 288.906 96.3456C288.085 96.5217 287.247 96.61 286.407 96.609H274.55C274.404 96.6096 274.26 96.5751 274.13 96.5084C274 96.4417 273.888 96.3448 273.804 96.2258C273.719 96.1068 273.664 95.9692 273.644 95.8246C273.623 95.68 273.638 95.5326 273.686 95.3948ZM297.742 83.8492C295.802 83.9072 293.892 84.3327 292.111 85.1033C291.5 84.1995 290.832 83.3358 290.11 82.5175C292.329 81.4448 294.737 80.8202 297.197 80.6797C297.297 80.6748 297.396 80.7028 297.478 80.7594C297.56 80.8161 297.622 80.8982 297.653 80.9932C297.909 81.7563 298.086 82.5437 298.181 83.343C298.188 83.4054 298.182 83.4686 298.163 83.5286C298.144 83.5887 298.114 83.6442 298.072 83.6917C298.031 83.7392 297.981 83.7778 297.924 83.8049C297.867 83.8319 297.806 83.847 297.743 83.8492H297.742ZM291.214 74.7946C288.872 75.465 286.639 76.4686 284.583 77.7748C283.186 76.8838 281.704 76.1327 280.159 75.5322C280.082 75.5014 280.014 75.4497 279.963 75.3828C279.913 75.3159 279.882 75.2364 279.873 75.153C279.865 75.0696 279.88 74.9855 279.916 74.91C279.953 74.8345 280.009 74.7705 280.08 74.7251C281.736 73.6791 283.625 73.0602 285.579 72.924C287.533 72.7877 289.49 73.1382 291.275 73.9441C291.359 73.9831 291.429 74.0467 291.476 74.1264C291.523 74.2062 291.545 74.2983 291.538 74.3906C291.531 74.4829 291.497 74.571 291.439 74.6431C291.381 74.7153 291.302 74.7681 291.214 74.7946ZM276.374 79.5659C276.307 79.5474 276.245 79.5137 276.192 79.4674C276.14 79.421 276.099 79.3633 276.073 79.2986C276.046 79.234 276.035 79.1641 276.04 79.0944C276.045 79.0247 276.066 78.957 276.101 78.8966C276.516 78.1706 277.006 77.4901 277.562 76.8661C277.621 76.7994 277.697 76.751 277.782 76.7269C277.867 76.7028 277.958 76.704 278.042 76.7305C281.903 77.9585 285.386 80.1513 288.162 83.1013C290.939 86.0514 292.916 89.6611 293.908 93.5889C293.929 93.6748 293.925 93.7651 293.896 93.8488C293.867 93.9324 293.814 94.0057 293.744 94.0598C293.088 94.5783 292.379 95.0261 291.629 95.3959C291.566 95.4273 291.498 95.4439 291.428 95.4445C291.358 95.445 291.289 95.4296 291.226 95.3993C291.163 95.369 291.108 95.3247 291.065 95.2698C291.022 95.2148 290.992 95.1507 290.978 95.0824C290.19 91.4102 288.413 88.0233 285.839 85.2883C283.265 82.5534 279.992 80.5745 276.374 79.5659Z" fill="#00A550"/>
<path d="M1 95.6969C1 95.6969 25.9766 109.729 42.8148 109.729C59.6529 109.729 62.1183 102.208 83.7877 102.432C104.495 102.647 109.667 109.425 130.373 109.729C152.469 110.053 154.58 102.432 176.678 102.432C194.078 102.432 202.216 109.729 220.457 109.729C234.428 109.729 252.093 97.0376 264.517 95.6969C267.244 95.4027 274.34 95.6969 274.34 95.6969" stroke="#00A550" stroke-width="1.68382"/>
</svg>
