<svg width="481" height="487" viewBox="0 0 481 487" fill="none" xmlns="http://www.w3.org/2000/svg">
<g clip-path="url(#clip0_56_1647)">
<path d="M143.146 24.9854C131.887 24.3891 120.506 26.1969 109.984 30.2483C108.182 30.9417 106.356 31.7353 105.007 33.117C103.445 34.7155 102.7 36.9157 101.868 38.9902C96.451 52.5227 75.5545 57.009 66.9151 68.7512C46.4726 96.5363 47.081 137.359 45.1756 171.801C43.2673 206.242 48.7351 240.692 56.2729 274.353C56.8271 276.827 57.4371 279.395 59.031 281.369C62.5282 285.699 69.4331 285.447 74.3447 282.829C79.2563 280.212 82.9643 275.837 87.4182 272.5C99.3099 263.595 115.157 262.837 129.904 261.031C150.448 258.513 170.658 253.288 189.85 245.537C204.75 239.519 222.243 232.098 235.868 240.621C241.743 244.297 247.395 250.942 254.044 248.994C259.343 247.442 261.526 241.211 262.506 235.775C268.062 204.969 260.214 173.409 250.802 143.554C243.056 118.979 234.04 94.4198 219.195 73.3612C204.351 52.2998 182.956 34.8448 157.756 29.473C150.184 27.8598 142.214 27.2897 135.355 23.7029" fill="#B0D4F1"/>
<path d="M50.3274 160.913C48.9819 160.995 47.556 161.139 46.4853 161.958C45.4145 162.777 44.9365 164.509 45.865 165.487C46.2531 165.893 46.8013 166.097 47.3295 166.289C55.7407 169.328 64.5281 172.416 73.4109 171.377C74.8107 171.215 76.2838 170.906 77.3107 169.939C78.3376 168.973 78.6683 167.15 77.6484 166.177C77.1862 165.734 76.5464 165.544 75.9311 165.365C66.757 162.709 57.3404 160.023 47.8187 160.76" fill="white"/>
<path d="M83.8925 163.317C81.1439 163.495 80.3532 167.707 82.2415 169.713C84.132 171.718 87.2373 171.906 89.9776 171.619C98.5584 170.715 106.388 166.546 114.458 163.496C144.219 152.245 178.638 155.839 206.884 141.195C208.413 140.402 209.952 139.528 211.043 138.197C212.134 136.865 212.696 134.967 212.024 133.383C204.995 135.038 197.841 136.157 190.645 136.729C181.887 137.425 173.038 137.313 164.397 138.892C158.722 139.93 153.207 141.682 147.744 143.535C135.725 147.613 123.878 152.194 112.241 157.264C103.093 161.251 93.1566 165.637 83.4877 163.165" fill="white"/>
<path d="M218.203 133.02C224.4 129.366 230.759 125.989 237.257 122.903C237.803 122.643 238.41 122.379 238.994 122.536C239.938 122.79 240.273 124.065 239.888 124.964C239.499 125.863 238.641 126.453 237.813 126.975C231.917 130.693 225.434 133.474 218.678 135.184C218.087 135.333 217.266 135.357 217.077 134.778C217.001 134.547 217.069 134.293 217.161 134.068C217.67 132.788 218.924 131.834 220.296 131.688" fill="white"/>
<path d="M92.6084 236.232C115.66 234.529 138.44 229.216 159.866 220.544C164.377 218.717 168.829 216.743 173.419 215.126C182.049 212.086 191.131 210.329 200.272 209.934C206.147 209.679 212.057 209.983 217.895 209.26C223.73 208.538 229.634 206.679 233.97 202.704C225.327 201.559 216.56 202.523 207.9 203.501C191.184 205.387 174.314 207.361 158.435 212.912C143.978 217.964 130.356 225.97 115.179 228.032C107.728 229.045 100.113 228.582 92.7124 229.909C92.1005 230.019 91.4629 230.154 90.9826 230.549C90.0998 231.276 90.0635 232.678 90.5854 233.695C91.1097 234.713 92.0543 235.433 92.9691 236.12" fill="white"/>
<path d="M88.27 233.084C73.5604 231.028 58.8194 229.183 44.0549 227.552C44.2087 229.472 45.9476 230.841 47.6233 231.789C52.6022 234.604 58.2736 235.9 63.852 237.16C66.8387 237.835 69.8604 238.514 72.9211 238.467C76.006 238.418 79.0254 237.634 82.012 236.854C84.4846 236.208 86.9554 235.565 89.4279 234.918" fill="white"/>
<path d="M236.738 203.898C235.335 204.229 234.243 205.576 234.208 207.016C242.728 206.312 251.619 205.487 258.85 200.929C261.718 199.121 264.437 196.316 264.362 192.926C261.918 191.968 259.353 193.742 257.154 195.174C250.526 199.491 242.647 201.337 235.091 203.678" fill="white"/>
<path d="M98.986 68.1178C102.768 58.1732 106.55 48.2286 110.331 38.2839C110.729 37.2363 111.512 35.9709 112.601 36.2326C113.626 36.4799 113.814 37.8399 113.775 38.8946C113.397 49.1624 111.838 60.0727 105.124 67.8512C104.421 68.6651 103.632 69.4602 102.62 69.8253C101.609 70.1899 100.326 70.0022 99.6983 69.1281C98.971 68.1164 99.3958 66.6589 100.17 65.6824" fill="white"/>
<path d="M122.076 35.4313C120.547 43.5134 119.765 51.7344 119.739 59.9581C119.733 61.8273 119.773 63.7273 120.326 65.5112C120.881 67.2946 122.024 68.9789 123.713 69.7757C124.03 69.924 124.4 70.0405 124.72 69.9031C125.128 69.7288 125.274 69.2331 125.366 68.8008C127.479 58.93 127.587 48.6321 125.681 38.719C125.39 37.2077 124.896 35.5001 123.494 34.8608" fill="white"/>
<path d="M132.617 32.9881C131.855 34.47 132.028 36.2396 132.25 37.8882C132.705 41.2926 133.288 44.682 133.992 48.0437C134.692 51.3939 135.527 54.7471 137.047 57.8131C138.567 60.8792 140.832 63.6639 143.843 65.2865C144.166 65.4602 144.56 65.6196 144.879 65.4415C145.221 65.2505 145.275 64.7881 145.28 64.3979C145.358 58.6257 143.654 52.9414 141.158 47.7342C138.662 42.5293 135.386 37.7432 132.122 32.9809" fill="white"/>
<path d="M141.987 28.3296C141.99 28.0663 141.553 28.2424 141.451 28.4848C140.853 29.9364 141.414 31.5797 141.974 33.0458C144.733 40.2766 147.575 47.656 152.532 53.5986C154.055 55.4237 156.362 57.2405 158.577 56.3884C160.184 55.7719 161.013 53.9049 160.99 52.1835C160.952 49.4293 159.242 47.0174 157.601 44.8062C154.282 40.3315 150.96 35.8572 147.641 31.3825C146.904 30.3902 146.147 29.3757 145.123 28.6829C144.1 27.9901 142.738 27.6625 141.608 28.1641" fill="white"/>
<path d="M155.188 34.4288C155.326 35.2797 156.063 35.8926 156.767 36.3916C161.509 39.7574 167.169 41.8142 172.964 42.276C173.786 42.3415 174.715 42.3387 175.303 41.7579C176.073 40.9964 175.773 39.6016 174.97 38.8748C174.168 38.1481 173.044 37.9139 171.978 37.7222C168.218 37.046 164.425 36.5353 160.619 36.1906C157.87 35.9425 154.668 35.5167 153.288 33.1286" fill="white"/>
<path d="M103.388 37.1656C102.867 50.2147 93.6484 62.4845 81.2573 66.6147C80.2522 66.9489 78.8366 67.0642 78.4306 66.0853C78.2439 65.6347 78.3751 65.118 78.5467 64.6601C79.3839 62.419 81.0839 60.6281 82.7436 58.9049C85.5967 55.9358 88.4499 52.9666 91.3059 49.9992C92.9158 48.324 94.5357 46.6391 95.8295 44.7109C97.9036 41.6225 99.3238 37.756 102.633 36.058" fill="white"/>
<path d="M257.676 163.807C252.941 150.799 247.351 138.122 242.193 125.28C241.209 122.813 240.215 120.35 239.214 117.889C239.261 117.62 239.188 117.374 238.923 117.175C236.503 111.245 234.033 105.339 231.505 99.4556C229.757 95.2018 227.956 90.9724 225.908 86.8511C224.46 83.8973 223.057 80.9184 221.554 77.9918C219.904 74.9291 218.037 71.9867 216.188 69.0428C213.734 65.1465 211.276 61.2414 208.273 57.737C204.042 52.8525 199.448 48.1932 194.013 44.647C190.556 42.4294 187.014 40.2482 183.051 39.0596C181.207 38.4785 179.279 38.2619 177.39 37.8955C176.704 37.7572 176.691 37.872 175.661 37.2952C175.621 37.2703 175.579 37.246 175.535 37.2245C175.535 37.2245 175.532 37.2227 175.529 37.2209C175.279 37.0939 174.96 36.9974 174.552 36.9382C173.116 36.6812 171.659 36.5945 170.212 36.4154C165.738 35.8844 161.344 34.8122 157.091 33.2453C155.334 32.5881 153.611 31.8113 152.077 30.7184C150.966 29.878 149.913 28.9634 148.869 28.0443C146.977 26.4017 145.17 23.988 143.585 22.0314C143.288 21.6403 142.864 21.3004 142.291 21.0411C141.331 20.6645 140.312 20.6564 139.289 20.5643C134.771 20.474 130.275 21.2445 125.854 22.1096C121.398 23.0775 116.924 24.0204 112.556 25.3451C109.713 26.2761 106.927 27.4058 104.243 28.7283C102.426 29.7606 99.2729 31.0601 99.5429 33.5782C99.4346 33.8148 99.4833 34.0784 99.6233 34.2844C99.6339 34.3306 99.6441 34.3744 99.6634 34.4162C99.6791 34.8211 99.6534 35.2259 99.6225 35.6295C99.1677 38.5581 98.7561 41.5789 97.5159 44.2973C95.0888 48.4692 91.3746 51.6907 87.7737 54.8446C85.9333 56.3858 83.906 57.9385 81.9889 59.4634C81.1238 60.1617 80.0365 60.9088 79.444 61.8822C79.4405 61.8879 79.4341 61.8918 79.4311 61.8998C79.4281 61.9078 79.4245 61.9135 79.421 61.9192C79.3373 62.0625 79.264 62.2084 79.202 62.3613C78.1837 64.3767 77.6349 64.7806 76.5613 65.6924C73.2319 68.5478 69.4992 70.9198 66.3933 74.0373C64.7322 75.7122 63.1931 77.5365 61.923 79.5249C60.6839 81.6374 59.7501 83.913 58.8924 86.2026C54.6544 97.7847 52.6519 109.979 50.2518 122.032C48.7202 130.115 46.7967 138.132 45.6984 146.29C44.7538 153.734 44.0175 161.195 43.4854 168.687C43.1402 174.934 42.969 181.188 42.7047 187.438C42.4004 197.75 42.0372 208.07 42.2059 218.387C42.6431 227.36 43.3996 236.357 44.9668 245.21C46.0741 251.397 47.7052 257.482 49.6193 263.466C50.6993 266.648 51.6853 270.392 54.7807 273.634C54.8655 273.748 54.9751 273.823 55.1006 273.872C55.0213 274.286 54.9442 274.701 54.8873 275.117C54.4788 278.026 54.4166 280.864 54.7819 283.805C54.9869 284.893 55.0043 286.127 55.7006 287.036C55.9168 287.288 56.287 287.353 56.601 287.376C57.4641 287.427 58.3298 287.363 59.193 287.342C60.5411 287.303 61.8841 287.421 63.2223 287.55C68.3304 288.143 73.5773 288.284 78.7166 287.949C79.8564 287.766 80.2905 286.644 80.5745 285.662C81.2524 283.584 81.4945 281.388 81.6643 279.216C81.7276 278.289 81.7392 277.36 81.6997 276.43C82.0361 276.391 82.3695 276.329 82.695 276.222C85.8682 274.882 88.5522 272.56 91.2315 270.428C96.4513 266.344 100.302 260.751 102.846 254.663C103.866 255.743 104.927 256.787 106.043 257.769C106.123 257.841 106.213 257.891 106.306 257.925C106.418 258.062 106.576 258.16 106.761 258.192C107.544 258.325 108.348 258.356 109.14 258.392C114.211 258.678 119.288 258.211 124.24 257.095C128.733 256.191 133.227 255.275 137.655 254.083C146.513 251.714 155.112 248.506 163.894 245.892C172.067 243.38 180.387 241.348 188.856 240.129C194.841 239.159 200.924 238.686 206.811 237.176C211.337 235.975 215.758 234.424 220.162 232.841C222.104 234.924 224.468 236.558 226.812 238.164C229.371 239.799 231.845 241.574 234.485 243.086C237.265 244.613 239.994 246.048 242.941 247.274C242.942 247.291 242.941 247.306 242.942 247.323C242.975 247.551 243.114 247.743 243.302 247.85C244.348 249.474 245.174 251.207 246.007 252.951C247.635 256.896 252.674 254.67 255.701 253.918C258.552 253.099 261.42 252.248 264.044 250.839C266.241 250.05 266.309 247.383 266.128 245.411C266.018 243.367 265.733 240.38 265.514 238.337C265.662 238.03 265.821 237.731 265.975 237.428C267.412 235.097 268.105 232.43 268.587 229.757C269.929 221.288 269.529 212.632 267.925 204.23C265.763 190.473 262.266 176.958 257.682 163.813L257.676 163.807ZM251.524 151.783C256.44 163.679 260.459 175.959 263.395 188.497C260.318 191.664 256.893 194.473 253.187 196.878C249.441 199.309 245.431 201.325 241.24 202.859C238.921 203.708 236.549 204.409 234.143 204.964C234.093 200.725 233.822 196.485 233.3 192.276C232.532 186.169 231.186 180.147 229.86 174.139C227.692 164.603 224.753 155.295 221.651 146.021C220.63 143.022 219.427 140.087 218.183 137.164C224.075 133.902 230.264 131.13 235.796 127.258C237.293 126.21 238.731 125.077 240.091 123.859C243.863 133.181 247.724 142.467 251.523 151.778L251.524 151.783ZM232.428 201.729C222.979 202.663 213.547 203.758 204.136 205.026C194.784 206.286 185.4 207.569 176.148 209.428C171.518 210.358 166.929 211.486 162.426 212.914C157.887 214.354 153.435 216.046 148.999 217.773C140.197 221.196 131.43 224.652 122.213 226.814C112.968 228.983 103.532 230.152 94.1081 231.206C92.9325 231.339 91.7581 231.467 90.5819 231.597C90.5773 231.598 90.5726 231.6 90.568 231.601C89.9821 229.832 89.4523 228.042 88.9391 226.252C86.1831 217.337 84.578 208.13 83.0034 198.95C81.578 189.374 80.2531 179.737 79.6475 170.066C88.2242 171.579 96.9758 170.003 105.144 167.259C114.224 164.209 122.72 159.706 131.637 156.242C140.734 152.707 150.253 150.738 159.904 149.444C169.389 148.173 178.962 147.542 188.421 146.061C197.146 144.696 205.998 142.47 213.419 137.488C214.299 136.898 215.148 136.267 215.976 135.606C217.805 139.78 219.468 143.983 220.939 148.32C222.305 152.465 223.55 156.646 224.861 160.808C227.785 170.576 230.006 180.439 231.627 190.527C232.159 194.245 232.484 197.988 232.633 201.74C232.569 201.728 232.502 201.724 232.429 201.731L232.428 201.729ZM78.0469 167.79C73.7001 168.324 69.3262 167.877 65.0161 167.243C60.6406 166.599 56.2724 165.776 51.8452 165.572C49.5983 165.469 47.3556 165.551 45.132 165.875C45.2328 164.499 45.3433 163.124 45.4659 161.748C49.7523 161.595 56.1688 161.841 60.2505 162.581C64.0502 163.185 67.8262 163.95 71.6513 164.39C73.5685 164.509 75.5349 164.989 77.4393 164.547C77.6287 164.503 77.7912 164.449 77.9349 164.387C77.9655 165.52 78.0111 166.655 78.0682 167.787C78.0613 167.789 78.0556 167.785 78.0487 167.787L78.0469 167.79ZM238.535 120.013C238.868 120.846 239.208 121.674 239.543 122.506C239.457 122.543 239.374 122.597 239.302 122.664C234.283 127.228 228.159 130.303 222.191 133.412C220.661 134.211 219.132 135.016 217.62 135.849C217.266 135.021 216.909 134.194 216.555 133.366C217.019 133.057 217.344 132.666 217.969 132.347C221.629 130.303 224.924 127.657 228.607 125.661C231.993 124.04 235.596 122.622 238.08 119.666C238.134 119.585 238.206 119.495 238.283 119.397C238.367 119.604 238.451 119.809 238.535 120.015L238.535 120.013ZM215.136 133.718C215.219 133.901 215.298 134.084 215.379 134.267C215.377 134.268 215.373 134.269 215.371 134.272C208.413 139.889 199.762 142.596 191.082 144.177C181.847 145.857 172.436 146.463 163.126 147.601C153.636 148.76 144.133 150.336 135.069 153.463C125.929 156.614 117.361 161.165 108.336 164.598C100.27 167.669 91.5986 169.888 82.905 169.081C81.8267 168.982 80.7541 168.824 79.6896 168.627C79.6438 168.618 79.6018 168.615 79.5582 168.616C79.4598 166.809 79.3884 165.004 79.3452 163.195C83.6383 164.23 87.9812 165.501 92.4463 165.1C97.702 164.911 102.676 163.047 107.409 160.877C111.807 158.986 115.922 156.531 120.188 154.374C124.105 152.419 128.17 150.802 132.221 149.154C136.655 147.345 141.232 145.933 145.895 144.852C150.855 143.655 155.969 143.071 161.045 142.441C166.932 141.617 172.873 141.296 178.792 140.79C186.171 140.169 193.475 138.811 200.678 137.112C204.549 136.16 208.165 134.462 211.699 132.651C212.514 132.242 213.346 131.833 214.191 131.448C214.505 132.205 214.818 132.962 215.138 133.718L215.136 133.718ZM154.185 33.5853C158.796 35.6484 163.749 36.9055 168.731 37.6693C170.749 37.9938 172.829 37.9757 174.811 38.4812C174.509 39.3828 173.916 40.147 173.386 40.9261C173.199 41.1882 173.005 41.4469 172.814 41.705C172.75 41.6687 172.677 41.6369 172.596 41.6142C168.498 41.0865 164.384 40.2781 160.645 38.4417C157.685 36.851 154.485 35.2624 151.837 33.1157C150.681 32.1544 149.618 30.9843 148.648 29.7614C150.341 31.248 152.11 32.6562 154.18 33.5841L154.185 33.5853ZM143.786 25.2098C144.094 25.6908 144.397 26.1728 144.705 26.6538C147.735 31.463 150.808 34.8636 155.932 37.5039C157.868 38.5576 159.754 39.7005 161.805 40.5257C165.018 41.8025 168.449 42.5256 171.875 42.9434C171.224 43.772 170.55 44.5819 169.843 45.3629C169.008 46.2951 168.114 47.1458 167.177 47.9434C166.24 47.6977 164.843 47.22 164.225 46.9519C162.889 46.4236 161.522 45.9465 160.271 45.2283C158.459 43.9613 156.758 42.5372 155.13 41.0454C152.934 39.0276 151.006 36.7124 149.064 34.398C147.175 32.0737 145.393 29.6105 143.054 27.7086C142.823 27.5579 142.578 27.3419 142.322 27.1481C142.437 27.0364 142.556 26.9288 142.668 26.8129C143.15 26.3417 143.533 25.7887 143.784 25.2104L143.786 25.2098ZM137.468 63.8325C135.3 64.586 133.098 65.2452 130.863 65.7733C130.1 65.9543 129.334 66.1216 128.566 66.2842C128.467 64.5487 128.388 62.8135 128.322 61.0752C128.222 58.1043 128.112 55.131 127.631 52.1947C127.265 49.9566 126.987 47.708 126.739 45.4524C126.523 43.9166 126.365 42.3697 126.444 40.8168C126.511 38.6101 126.605 36.4044 126.857 34.2085C126.869 34.157 126.872 34.1076 126.873 34.0587C127.816 33.8752 128.753 33.676 129.687 33.4555C129.701 33.5178 129.719 33.5768 129.745 33.6341C130.36 37.2983 131.389 40.8694 132.23 44.4837C132.822 47.3628 133.839 50.1266 134.518 52.9809C134.97 55.1407 135.379 57.3129 135.961 59.4429C136.33 60.9458 136.739 62.4662 137.465 63.8308L137.468 63.8325ZM100.2 63.5694C102.227 60.302 104.887 57.2851 106.551 53.7782C107.769 51.0163 108.498 48.0219 108.661 45.0099C108.841 42.3321 108.842 39.5471 109.611 36.9472C109.683 36.5829 109.987 36.2475 110.004 35.8909C111.378 35.8973 112.753 35.8521 114.124 35.7619C113.836 37.0443 113.561 38.3287 113.406 39.6365C112.309 46.6411 112.969 54.0207 109.987 60.624C109.118 62.5368 107.89 64.2017 106.823 66.0167C106.404 66.7409 105.985 67.4674 105.614 68.2172C105.306 68.2128 104.999 68.2107 104.694 68.2034C102.41 68.1834 100.159 67.8495 97.9117 67.4806C98.6204 66.1472 99.4265 64.8667 100.2 63.5694ZM96.4227 67.2358C95.8742 67.146 95.3257 67.0562 94.7765 66.9738C92.7355 66.6765 90.6893 66.4096 88.6475 66.1197C87.6507 65.9631 86.6463 65.8472 85.6456 65.7159C87.3408 64.3152 89.1577 62.9886 90.7783 61.486C95.1793 57.4785 100.545 53.8466 102.654 48.0335C104.097 44.3904 103.897 40.3773 105.113 36.6796C105.172 36.4082 105.366 36.0254 105.468 35.6542C106.473 35.7551 107.481 35.8216 108.493 35.8555C108.455 35.9445 108.42 36.0352 108.387 36.1232C107.895 37.5111 107.675 38.9799 107.531 40.4431C107.309 42.7367 107.341 45.0107 106.989 47.3003C106.638 49.3099 106.099 51.2827 105.273 53.1515C104.026 55.8422 102.122 58.1301 100.482 60.5785C99.6337 61.8031 98.8191 63.0467 98.0783 64.3364C97.5132 65.2913 96.9252 66.2418 96.4245 67.233L96.4227 67.2358ZM107.718 67.3252C108.383 66.1283 109.069 65.1043 109.825 63.9057C114.408 56.8916 113.622 48.1888 114.768 40.2389C114.936 38.7312 115.221 37.3763 115.57 35.8513C115.583 35.7848 115.585 35.7188 115.582 35.6514C116.331 35.588 117.079 35.5124 117.825 35.4253C118.306 35.3702 118.786 35.3105 119.269 35.2502C119.237 35.4813 119.225 35.7248 119.165 35.9307C118.698 38.5216 118.427 41.2012 118.61 43.8367C118.765 46.4349 119.177 48.9589 119.172 51.5795C119.294 56.3741 118.112 61.0658 117.937 65.8464C117.903 66.5109 117.877 67.1979 117.858 67.8977C116.907 67.9886 115.955 68.0697 115.001 68.1318C112.419 68.2173 109.806 68.2585 107.207 68.2385C107.374 67.9323 107.548 67.6296 107.718 67.3252ZM119.352 66.0767C119.404 65.0797 119.489 64.0678 119.585 63.063C119.786 60.1177 120.44 57.2209 120.557 54.2707C120.601 52.7573 120.624 51.2442 120.544 49.7304C120.374 46.7589 119.845 43.8337 120.013 40.8229C120.097 39.2275 120.299 37.6366 120.588 36.0645C120.61 35.7723 120.764 35.4083 120.725 35.0598C122.291 34.849 123.854 34.61 125.409 34.3335C125.401 34.4448 125.395 34.5557 125.378 34.6617C125.257 35.7672 125.192 36.8766 125.131 37.985C125.059 39.4851 124.981 40.9892 125.009 42.4906C125.237 45.5 125.634 48.5043 126.084 51.489C126.773 55.4207 126.826 59.4116 126.984 63.3906C127.036 64.4509 127.091 65.5108 127.151 66.5695C124.548 67.0732 121.925 67.4649 119.289 67.7546C119.304 67.1944 119.325 66.6349 119.352 66.0767ZM137.32 58.9857C136.646 56.5753 136.265 54.1001 135.673 51.6515C134.601 48.1245 133.685 44.5612 132.849 40.97C132.146 38.3671 131.606 35.7752 131.077 33.115C131.107 33.1081 131.137 33.1012 131.167 33.0942C131.811 32.8897 132.454 32.6732 133.096 32.4445C133.085 32.615 133.139 32.7971 133.289 32.9642C134.213 34.7307 135.179 36.4727 136.148 38.2141C137.37 40.5246 138.198 43.0086 139.09 45.4585C140.922 50.6462 143.402 55.6042 146.364 60.2392C143.891 61.3574 141.384 62.4128 138.835 63.3491C138.074 62.0121 137.692 60.4732 137.325 58.9893L137.32 58.9857ZM144.435 54.1473C142.81 51.0253 141.428 47.7887 140.244 44.4723C140.246 44.4838 140.25 44.4879 140.251 44.4925C140.253 44.5041 140.258 44.5151 140.263 44.5238C139.391 42.0742 138.533 39.6018 137.282 37.3126C136.284 35.6097 135.316 33.5981 134.322 31.9815C135.611 31.4748 136.877 30.9005 138.081 30.2284C138.377 30.8874 138.792 31.4944 139.168 32.1129C139.953 33.3739 140.83 34.5722 141.631 35.8197C142.929 37.9522 143.985 40.177 145.129 42.4275C146.47 45.0729 147.725 47.7623 149.087 50.3955C150.244 52.6578 151.912 54.7631 153.773 56.5563C151.76 57.6316 149.72 58.6547 147.675 59.6277C146.549 57.8277 145.449 56.0097 144.437 54.1444L144.435 54.1473ZM150.287 49.6176C147.824 44.8066 145.623 39.8473 142.909 35.1697C141.741 33.343 140.419 31.6101 139.395 29.6917C139.403 29.7068 139.411 29.7219 139.42 29.737C139.423 29.7509 139.429 29.7665 139.434 29.7798C139.396 29.6745 139.344 29.5891 139.28 29.5212C139.946 29.0975 140.587 28.6406 141.199 28.1418C144.663 30.4722 146.836 34.2094 149.608 37.2614C152.498 40.7069 155.776 43.8266 159.463 46.4071C160.662 47.1444 162.017 47.6173 163.324 48.1301C164.154 48.4785 164.998 48.7944 165.876 48.9977C164.529 50.0385 163.106 50.9969 161.633 51.9377C159.514 53.3244 157.314 54.6251 155.072 55.8601C155.042 55.8136 155.007 55.7704 154.963 55.7271C154.55 55.3287 154.144 54.9265 153.755 54.5055C152.402 53.0716 151.197 51.3897 150.289 49.6171L150.287 49.6176ZM100.972 32.9418C100.965 32.9727 100.958 32.9985 100.952 33.034C101.901 30.5604 110.196 27.692 112.876 26.7351C116.811 25.5324 120.84 24.685 124.849 23.7717C129.835 22.7737 134.935 21.7421 140.041 22.0518C141.71 22.0848 143.426 22.8293 142.408 24.7837C141.507 26.3051 139.965 27.3274 138.54 28.3156C136.358 29.6242 134.008 30.6508 131.6 31.4741C128.278 32.4746 124.864 32.9906 121.435 33.5292C114.679 34.459 107.653 35.1252 100.971 33.4235C100.909 33.2701 100.923 33.099 100.972 32.9418ZM80.4618 63.4251C80.4618 63.4251 80.4591 63.4136 80.4575 63.4066C80.4506 63.345 80.4477 63.28 80.45 63.2162C80.4484 63.2093 80.4497 63.2042 80.4504 63.1967C80.4544 63.1301 80.4655 63.0619 80.4834 62.9921C80.4859 62.9818 80.4889 62.9738 80.4914 62.9635C80.5116 62.8931 80.5365 62.8217 80.5706 62.7482C80.5937 62.7113 80.6224 62.6779 80.6484 62.6427C80.7304 62.524 80.813 62.4077 80.9046 62.299C81.7015 61.3367 82.8196 60.67 83.7694 59.8646C84.5485 59.247 85.3344 58.6375 86.1118 58.0227C90.735 54.2509 95.474 50.3697 98.6323 45.2142C99.5929 43.4335 100.018 41.4287 100.417 39.4613C100.671 38.0093 101.023 36.5464 101.077 35.07C101.348 35.0974 101.724 35.1346 102.272 35.2124C102.848 35.3176 103.428 35.4052 104.008 35.4852C104.006 35.4955 104.003 35.5058 104.001 35.5161C103.551 36.8215 103.191 38.1497 102.948 39.5094C102.434 43.2785 101.993 47.2231 99.866 50.4842C97.2675 54.3771 93.3811 57.2321 89.9107 60.3511C88.2702 61.8413 86.5263 63.1997 84.7778 64.5592C84.4986 64.8352 84.0592 65.102 83.8534 65.4535C83.4585 65.3866 83.0649 65.3145 82.6733 65.2299C81.9113 65.0264 80.7968 64.4446 80.5176 63.6457C80.5149 63.6342 80.5104 63.6255 80.5078 63.6139C80.4888 63.5526 80.4721 63.4908 80.4646 63.4269L80.4618 63.4251ZM47.4081 144.31C48.3317 138.25 49.6759 132.263 50.8687 126.253C53.5921 112.946 55.5784 99.427 60.2555 86.6077C61.0959 84.4437 61.952 82.2737 63.131 80.2699C64.125 78.7076 65.3224 77.2784 66.5539 75.9021C69.7879 72.434 73.8564 69.8726 77.4454 66.804C78.1837 66.1885 78.882 65.5263 79.5674 64.8501C80.9848 66.8916 84.2336 66.932 86.5665 67.2714C88.6205 67.5511 90.6684 67.8468 92.7224 68.1266C93.8638 68.2668 95.0004 68.4494 96.1335 68.6378C96.2727 68.6616 96.4143 68.6848 96.5559 68.7081C98.3514 69.0061 100.143 69.3099 101.957 69.4847C106.184 69.7905 110.434 69.68 114.668 69.5732C115.729 69.5153 116.792 69.4328 117.852 69.3365L117.854 69.3411C118.042 69.3244 118.231 69.3025 118.42 69.2858C118.577 69.2714 118.731 69.2552 118.888 69.2385C119.014 69.2264 119.142 69.2138 119.268 69.2017C119.268 69.2017 119.268 69.1994 119.267 69.1971C122.151 68.8888 125.023 68.4447 127.868 67.8828C127.883 67.8842 127.898 67.8856 127.912 67.887C128.012 67.886 128.108 67.8613 128.196 67.8192C129.002 67.6573 129.81 67.4879 130.612 67.3076C133.239 66.6791 135.827 65.9091 138.375 65.0216C138.762 64.8861 139.147 64.751 139.533 64.6108C139.533 64.6108 139.532 64.6085 139.532 64.6062C146.58 62.0475 153.327 58.6148 159.761 54.797C162.376 53.1767 164.986 51.5333 167.407 49.6318C170.535 47.0735 173.142 43.9131 175.367 40.5514C175.681 40.0703 175.956 39.574 176.114 39.1095C177.528 39.3351 178.965 39.6623 180.396 39.8744C184.071 40.5922 187.462 42.2292 190.63 44.2144C196.708 47.7142 201.832 52.5602 206.444 57.797C210.247 62.1017 213.233 67.0206 216.278 71.8675C217.49 73.8301 218.712 75.7928 219.834 77.8078C226.612 90.7647 232.105 104.33 237.647 117.852C237.615 117.905 237.586 117.956 237.553 118.005C237.053 118.735 236.439 119.376 235.787 119.971C233.637 121.856 230.897 122.99 228.318 124.218C224.976 125.87 222.077 128.273 218.864 130.146C217.807 130.784 216.9 131.309 215.935 131.914C215.514 130.919 215.099 129.923 214.696 128.924C211.763 121.371 208.091 114.147 203.907 107.211C202.298 104.501 200.584 101.857 198.781 99.2718C197.132 96.9139 195.394 94.6084 193.205 92.7231C192.834 92.4002 192.199 92.6342 192.082 93.0965C192.006 93.3768 192.109 93.6448 192.316 93.8331C193.056 94.5524 193.915 95.3025 194.605 96.1112C196.137 97.9462 197.504 99.9144 198.856 101.884C202.523 107.402 205.799 113.102 208.8 119.02C210.592 122.641 212.113 126.385 213.647 130.124C210.829 131.424 208.126 132.946 205.237 134.118C203.109 134.97 200.893 135.63 198.643 136.125C192.457 137.502 186.175 138.678 179.837 139.258C172.443 139.866 165.042 140.37 157.695 141.425C147.311 142.504 137.163 145.277 127.621 149.499C124.91 150.574 122.25 151.767 119.634 153.057C115.237 155.283 110.993 157.81 106.451 159.741C100.026 162.779 92.7679 164.766 85.6631 163.203C84.0304 162.863 82.3971 162.488 80.7762 162.072C80.3019 161.977 79.8124 161.774 79.322 161.746C79.2839 159.148 79.3068 156.55 79.4113 153.948C79.6898 146.242 81.096 138.607 82.6201 131.061C83.6418 125.995 85.0117 120.941 85.1133 115.735C85.1175 114.9 85.1638 114.057 85.0621 113.227C85.0024 112.842 84.6557 112.562 84.261 112.612C83.8134 112.664 83.5525 113.135 83.6639 113.555C83.7536 115.365 83.6581 117.185 83.4685 118.987C82.8713 123.848 81.5938 128.596 80.6882 133.406C79.6612 138.734 78.7313 144.092 78.2478 149.498C77.9155 153.442 77.8697 157.405 77.8861 161.363C77.887 161.82 77.8954 162.277 77.901 162.733C77.7388 162.768 77.5669 162.866 77.4031 163.053C76.2575 163.495 74.9986 163.245 73.8078 163.165C72.2968 163.025 70.7888 162.877 69.287 162.64C64.6879 161.965 60.1395 160.9 55.4923 160.596C52.9108 160.37 48.3003 160.226 45.5965 160.281C45.6577 159.629 45.7194 158.98 45.7853 158.328C46.2351 153.735 46.7446 148.926 47.4047 144.305L47.4081 144.31ZM43.621 218.301C43.4606 211.497 43.7101 204.697 43.8297 197.894C44.1325 187.702 44.3395 177.496 45.0334 167.323C49.223 166.645 53.5118 166.997 57.6919 167.574C62.0457 168.176 66.3717 169.016 70.7622 169.335C73.2015 169.514 75.6537 169.517 78.0826 169.219C78.1033 169.214 78.1241 169.209 78.1472 169.204C78.3685 172.828 78.7049 176.444 79.0885 180.055C79.9362 187.982 80.9662 195.899 82.3861 203.746C83.5096 209.865 84.5787 216.003 86.2395 222.006C87.3448 225.856 88.3748 229.738 89.7137 233.515C84.0952 234.503 78.3447 234.751 72.6601 234.273C66.5911 233.763 60.7016 232.25 54.8406 230.661C51.3301 229.708 47.8173 228.756 44.3067 227.803C44.2861 227.798 44.2666 227.798 44.246 227.793C43.9686 224.632 43.7344 221.468 43.6204 218.299L43.621 218.301ZM80.2818 276.736C80.3059 279.79 80.0174 283.028 78.9461 285.972C78.8229 286.523 78.3685 286.599 77.8769 286.576C76.492 286.614 75.0805 286.663 73.6906 286.689C69.6905 286.808 65.7528 286.333 61.7651 285.989C60.074 285.796 58.3762 286.005 56.682 285.946C56.1892 284.465 56.099 282.873 55.9989 281.323C55.9341 279.883 55.9591 278.275 56.1164 276.796C56.1932 276.013 56.3197 275.054 56.4777 274.201C56.7273 274.26 56.9792 274.318 57.2293 274.38C59.3689 274.915 61.5471 275.29 63.7323 275.59C67.456 276.107 71.2337 276.047 74.9816 276.269C76.4935 276.297 77.9972 276.395 79.5068 276.455C79.7637 276.461 80.0239 276.472 80.2848 276.475C80.2889 276.566 80.2896 276.654 80.2813 276.733L80.2818 276.736ZM98.4752 260.088C97.1985 262.153 95.7041 264.087 94.0888 265.897C92.1267 267.911 90.0379 269.588 87.788 271.335C86.7889 272.096 85.7787 272.84 84.7191 273.518C83.784 274.081 82.8278 274.796 81.7143 274.987C81.4253 275.01 81.1365 275.023 80.8466 275.032C80.7667 275.033 80.6891 275.034 80.6115 275.035C78.5413 275.075 76.4627 274.825 74.3911 274.817C71.4032 274.653 68.4018 274.631 65.4208 274.371C62.8936 274.064 60.3608 273.659 57.8801 273.069C57.3885 272.952 56.895 272.837 56.4039 272.722C56.2325 272.569 55.99 272.499 55.7556 272.558C55.7487 272.56 55.7394 272.562 55.7325 272.563C55.6449 272.542 55.5574 272.521 55.4675 272.5C54.2997 271.561 52.9863 268.316 52.5581 267.42C50.9274 263.728 50.4374 261.521 49.3452 257.612C46.9189 249.314 45.4282 240.772 44.6526 232.166C44.5612 231.212 44.4722 230.257 44.3854 229.302C47.4028 230.121 50.4203 230.939 53.4383 231.76C56.4609 232.58 59.4805 233.408 62.5364 234.098C68.4663 235.438 74.5182 236.106 80.5986 235.896C83.8248 235.786 87.0359 235.432 90.2135 234.868C90.293 235.076 90.3652 235.283 90.4471 235.491C92.129 239.816 94.5015 243.845 97.0773 247.691C98.5604 249.691 100.117 251.649 101.781 253.507C100.893 255.792 99.6782 257.967 98.4775 260.088L98.4752 260.088ZM219.118 231.693C218.19 232.012 217.256 232.337 216.316 232.7C212.302 234.057 208.078 235.499 203.883 236.397C198.307 237.495 192.638 238.035 187.034 238.959C180.991 239.953 174.967 241.164 169.092 242.895C160.084 245.361 151.301 248.539 142.366 251.247C136.613 253.032 130.735 254.343 124.833 255.523C119.39 256.758 113.8 257.35 108.222 256.914C107.895 256.931 107.459 256.813 107.069 256.788C107.06 256.778 107.052 256.766 107.04 256.756C106.288 256.081 105.54 255.398 104.825 254.685C104.321 254.186 103.838 253.675 103.363 253.152C103.018 252.774 102.678 252.388 102.345 252.001C101.604 251.138 100.884 250.254 100.161 249.365C97.3841 246.049 95.2697 242.242 93.267 238.424C92.4086 236.655 91.684 234.833 91.0333 232.984C100.261 231.965 109.504 230.926 118.608 229.065C123.234 228.118 127.808 226.945 132.299 225.49C136.784 224.036 141.188 222.348 145.581 220.636C154.428 217.188 163.254 213.774 172.536 211.66C181.794 209.55 191.241 208.249 200.639 206.943C210.043 205.635 219.471 204.494 228.914 203.521C230.095 203.399 231.276 203.279 232.458 203.164C232.539 203.156 232.607 203.135 232.674 203.11C232.759 206.152 232.729 209.197 232.597 212.238C232.386 216.137 232.579 220.258 230.837 223.89C230.405 224.79 230.04 225.759 229.241 226.416C227.909 227.536 226.508 228.591 224.999 229.46C223.424 230.201 221.828 230.768 220.213 231.324C219.848 231.449 219.485 231.574 219.117 231.698L219.118 231.693ZM264.698 245.484C264.724 246.713 265.05 248.756 263.671 249.42C261.196 250.762 258.41 251.653 255.685 252.426C253.54 252.987 251.392 253.86 249.144 253.751C247.399 253.736 247.103 251.681 246.388 250.45C245.87 249.427 245.322 248.412 244.721 247.435C244.746 247.402 244.765 247.371 244.784 247.335C245.471 247.028 246.154 246.834 246.902 246.554C249.031 245.781 251.15 244.983 253.269 244.187C256.921 242.782 260.583 241.377 264.187 239.847C264.392 241.724 264.588 243.597 264.697 245.481L264.698 245.484ZM265.002 195.911C266.22 202.902 267.752 209.888 267.94 217.002C267.995 222.739 267.822 228.601 266.001 234.117C265.645 235.208 264.978 236.153 264.486 237.183C264.28 237.535 264.055 237.971 264.118 238.328C259.311 240.355 254.441 242.236 249.552 244.058C247.701 244.801 245.777 245.382 243.931 246.126C240.148 244.565 236.52 242.703 233.016 240.526C229.529 238.208 225.932 236.04 222.708 233.347C222.346 233.01 221.991 232.664 221.645 232.314C222.834 231.903 224.067 231.47 225.183 230.952C226.546 230.312 227.74 229.377 228.943 228.486C229.909 227.76 230.902 226.986 231.455 225.885C231.904 224.994 232.336 224.096 232.69 223.165C233.18 221.978 233.401 220.703 233.571 219.436C233.909 216.605 233.985 213.751 234.074 210.902C234.128 209.399 234.155 207.894 234.156 206.391C234.233 206.396 234.312 206.392 234.39 206.374C238.849 205.356 243.174 203.82 247.295 201.833C251.391 199.856 255.264 197.418 258.816 194.577C260.551 193.189 262.207 191.705 263.778 190.136C264.212 192.056 264.622 193.98 265.005 195.911L265.002 195.911Z" fill="#010101"/>
<path d="M55.0345 255.95C54.7282 255.087 53.3584 255.496 53.6681 256.363C55.2877 260.924 57.6683 265.2 60.72 268.958C60.9641 269.257 61.3506 269.403 61.7053 269.18C62.0024 268.993 62.1723 268.496 61.9277 268.195C58.9548 264.535 56.6119 260.392 55.0345 255.95Z" fill="#010101"/>
<path d="M61.2638 262.168C60.9089 262.275 60.653 262.694 60.7861 263.059C61.4587 264.898 61.945 266.805 62.2037 268.747C62.2554 269.129 62.5202 269.454 62.936 269.443C63.2892 269.435 63.6827 269.096 63.6328 268.711C63.3587 266.639 62.8729 264.608 62.1548 262.646C62.0222 262.283 61.6505 262.052 61.2638 262.168Z" fill="#010101"/>
<path d="M88.3162 260.96C87.247 264.872 84.4482 268.171 80.8058 269.934C80.4579 270.102 80.3922 270.618 80.5833 270.919C80.8068 271.276 81.2212 271.312 81.5686 271.142C85.5375 269.223 88.5485 265.537 89.7065 261.293C89.949 260.405 88.5593 260.074 88.3186 260.959L88.3162 260.96Z" fill="#010101"/>
<path d="M237.94 235.422C237.679 235.137 237.177 235.192 236.929 235.459C236.648 235.759 236.705 236.182 236.968 236.469C239.009 238.695 241.051 240.923 243.092 243.149C243.352 243.434 243.855 243.379 244.102 243.11C244.383 242.809 244.327 242.387 244.064 242.1C242.022 239.874 239.981 237.646 237.939 235.42L237.94 235.422Z" fill="#010101"/>
<path d="M244.599 237.368C244.399 237.051 243.93 236.924 243.614 237.145C243.295 237.365 243.177 237.791 243.391 238.13C244.005 239.103 244.618 240.075 245.232 241.047C245.431 241.363 245.901 241.491 246.217 241.27C246.536 241.05 246.654 240.624 246.44 240.284C245.826 239.312 245.213 238.34 244.599 237.368Z" fill="#010101"/>
<path d="M263.568 223.197C263.142 223.207 262.908 223.544 262.871 223.929C262.41 228.642 261.221 233.299 259.372 237.658C259.223 238.014 259.302 238.431 259.663 238.625C259.98 238.795 260.478 238.69 260.63 238.334C262.58 233.729 263.81 228.871 264.298 223.894C264.336 223.511 263.919 223.189 263.565 223.197L263.568 223.197Z" fill="#010101"/>
<path d="M258.996 235.605C259.043 234.746 259.09 233.886 259.137 233.026C259.158 232.652 258.768 232.304 258.405 232.33C257.993 232.359 257.73 232.66 257.708 233.062C257.661 233.922 257.614 234.781 257.566 235.641C257.546 236.015 257.935 236.363 258.299 236.338C258.71 236.308 258.974 236.007 258.996 235.605Z" fill="#010101"/>
<path d="M102.783 242.478C102.629 242.124 102.295 241.88 101.892 242C101.558 242.102 101.26 242.535 101.415 242.891C102.905 246.28 105.389 249.131 108.568 251.038C109.359 251.512 110.03 250.251 109.243 249.781C106.417 248.084 104.111 245.501 102.782 242.481L102.783 242.478Z" fill="#010101"/>
<path d="M107.995 245.258C107.749 244.962 107.225 245.04 106.985 245.297C106.695 245.61 106.774 246.007 107.024 246.307C108.207 247.734 109.271 249.259 110.226 250.845C110.7 251.633 111.908 250.873 111.434 250.085C110.413 248.387 109.259 246.783 107.996 245.261L107.995 245.258Z" fill="#010101"/>
<path d="M225.639 224.195C227.117 221.04 228.166 217.697 228.74 214.262C228.803 213.882 228.605 213.495 228.213 213.401C227.858 213.315 227.415 213.546 227.352 213.928C226.8 217.244 225.807 220.474 224.382 223.52C223.992 224.349 225.251 225.029 225.639 224.195Z" fill="#010101"/>
<path d="M222.352 220.143C221.97 220.278 221.782 220.645 221.875 221.034C221.912 221.198 221.951 221.365 221.984 221.53C222.001 221.601 222.01 221.672 222.024 221.744C222.033 221.793 222.035 221.814 222.035 221.812C222.04 221.845 222.045 221.878 222.051 221.913C222.096 222.224 222.127 222.538 222.145 222.849C222.164 223.164 222.171 223.478 222.163 223.791C222.158 223.96 222.151 224.13 222.139 224.298C222.134 224.37 222.129 224.441 222.121 224.516C222.118 224.553 222.115 224.593 222.111 224.63C222.109 224.64 222.108 224.66 222.103 224.69C222.06 225.06 222.223 225.473 222.63 225.551C222.972 225.618 223.444 225.419 223.491 225.024C223.665 223.544 223.588 222.071 223.238 220.62C223.149 220.256 222.698 220.02 222.347 220.142L222.352 220.143Z" fill="#010101"/>
<path d="M71.0784 78.3499C72.2583 75.9811 74.0094 73.9376 76.1854 72.4284C76.9381 71.9068 76.1817 70.6952 75.4249 71.2201C73.0521 72.8672 71.1109 75.0883 69.8213 77.677C69.4127 78.4986 70.6685 79.1766 71.0789 78.3522L71.0784 78.3499Z" fill="#010101"/>
<path d="M71.0336 82.3368C71.4031 82.4095 71.8144 82.2003 71.8945 81.8097C72.3195 79.7635 73.3233 77.9801 74.8686 76.5411C75.151 76.2789 75.099 75.7801 74.8299 75.531C74.5297 75.2525 74.104 75.3046 73.8198 75.5696C72.1429 77.1339 70.9714 79.2332 70.5043 81.4764C70.4281 81.8418 70.647 82.2631 71.0313 82.3373L71.0336 82.3368Z" fill="#010101"/>
<path d="M181.415 44.2041C181.532 44.2062 181.65 44.2129 181.768 44.2197C181.815 44.2234 181.863 44.2271 181.91 44.2308C181.907 44.2314 181.987 44.2374 182.024 44.241C182.054 44.2438 182.151 44.2553 182.147 44.2564C182.194 44.2624 182.239 44.269 182.287 44.275C182.403 44.2921 182.519 44.3114 182.636 44.3331C183.076 44.414 183.51 44.5277 183.933 44.6733C183.978 44.6873 184.023 44.7036 184.066 44.7205C184.087 44.7278 184.1 44.7321 184.113 44.7363C184.118 44.7376 184.119 44.7399 184.126 44.7406C184.225 44.7786 184.322 44.8194 184.419 44.8626C184.625 44.9514 184.827 45.0481 185.026 45.1506C185.225 45.2531 185.419 45.3664 185.608 45.4831C185.708 45.5452 185.808 45.6097 185.903 45.6752C185.932 45.6953 185.961 45.7153 185.99 45.7354L186.099 45.815C186.398 46.0377 186.839 46.0939 187.109 45.7763C187.336 45.5074 187.39 45.006 187.072 44.7657C185.416 43.5309 183.447 42.8302 181.378 42.7727C181.004 42.7619 180.657 43.1338 180.682 43.505C180.709 43.9073 181.012 44.1899 181.414 44.2018L181.415 44.2041Z" fill="#010101"/>
<path d="M182.672 45.9519C182.511 46.2858 182.605 46.7456 182.963 46.9183C184.595 47.6968 186.227 48.4753 187.86 49.2533C188.197 49.414 188.654 49.3205 188.827 48.9621C188.988 48.6282 188.894 48.1683 188.536 47.9957C186.904 47.2172 185.272 46.4387 183.638 45.6607C183.302 45.4999 182.845 45.5934 182.672 45.9519Z" fill="#010101"/>
</g>
<path d="M454.158 290.013C452.823 305.126 449.334 319.907 446.706 334.799C445.85 340.329 444.861 345.835 443.607 351.289C442.681 355.463 441.697 359.671 439.973 363.599C437.635 369.241 434.446 372.039 428.79 374.407C424.767 376.019 420.35 377.014 416.019 376.375C414.761 376.137 413.88 375.189 413.208 374.163C412.444 373.076 411.801 371.916 411.26 370.703C406.814 360.686 406.175 349.601 403.956 338.993C402.461 331.136 400.025 323.467 399.05 315.518C398.293 309.765 398.801 303.956 398.476 298.181C398.317 296.834 398.471 295.347 397.395 294.422C396.854 293.622 394.26 295.422 393.466 295.685C391.156 296.781 388.76 297.685 386.313 298.421C384.403 299.006 382.384 299.331 380.405 298.94C377.034 298.275 373.847 296.895 370.603 295.798C364.792 293.831 359.24 291.155 353.449 289.15C348.435 287.455 343.309 286.119 338.149 284.953C332 283.465 325.887 282.345 319.595 281.887C314.006 281.552 308.449 282.517 302.858 282.418C297.587 282.563 292.432 281.403 287.282 280.453C285.94 280.061 284.848 280.789 283.976 281.764C281.394 284.83 281.003 289.024 280.085 292.784C278.932 298.191 277.541 303.55 275.877 308.822C274.568 312.73 273.12 316.592 271.681 320.453C269.878 325.032 268.108 329.643 265.809 334.002C262.973 339.204 259.544 344.091 255.712 348.605C253.67 350.907 251.088 352.896 248.051 353.555C245.345 354.304 242.503 353.826 239.819 353.205C235.83 352.272 231.276 351.715 228.492 348.389C227.332 346.89 226.913 344.974 226.473 343.168C225.246 337.786 225.048 332.222 225.21 326.722C225.373 318.236 226.459 309.803 227.741 301.422C231.325 278.398 237.927 255.952 245.329 233.895C249.32 222.76 253.236 211.595 257.211 200.453C264.486 181.26 272.037 162.154 280.82 143.59C283.456 137.85 285.889 131.979 289.134 126.547C291.851 122.311 295.035 118.393 298.098 114.407C299.87 112.132 301.866 110.049 303.999 108.112C307.076 105.221 310.493 102.728 314.092 100.527C318.621 97.6641 323.2 94.6904 328.319 93.0006C334.916 91.2824 341.828 91.0089 348.609 91.1037C354.217 91.1668 359.829 91.4308 365.404 92.0509C369.2 92.455 373.004 92.7859 376.814 93.0389C379.306 93.2398 381.845 93.3056 384.27 93.9543C384.817 92.823 387.705 94.9921 388.282 95.3638C391.477 97.7353 394.447 100.459 398.044 102.235C400.319 103.343 402.69 104.26 404.865 105.565C410.194 108.793 414.932 112.899 419.509 117.102C422.682 119.979 425.395 123.294 427.743 126.87C431.409 132.208 434.297 138.027 436.684 144.036C439.947 151.862 442.231 160.035 444.343 168.231C446.391 175.929 448.283 183.682 449.385 191.582C450.671 199.702 451.129 208.05 451.647 216.217C452.217 223.222 452.709 230.059 453.171 237.032C453.419 240.882 453.598 244.736 453.854 248.585C454.431 255.255 455.154 261.914 455.334 268.612C455.414 272.086 455.411 275.567 455.207 279.037C454.978 282.707 454.533 286.358 454.158 290.015L454.158 290.013Z" fill="#EB6D80"/>
<path d="M448.889 357.147C449.372 354.167 449.769 351.172 450.106 348.172C451.443 336.231 451.962 324.207 452.026 312.196C451.992 299.602 452.209 287.001 452.029 274.409C451.692 261.518 450.722 248.654 449.955 235.785C449.477 225.541 448.675 215.315 448.281 205.069C448.167 199.891 447.964 194.716 447.805 189.54C447.78 180.953 447.245 172.376 446.253 163.85C445.605 158.203 444.185 152.671 442.623 147.217C441.165 142.235 439.344 137.365 437.051 132.705C436.011 130.519 434.827 128.397 433.38 126.452C431.611 124.007 429.56 121.769 427.307 119.762C424.608 117.377 421.725 115.349 418.859 113.138C415.646 110.738 411.889 109.238 408.405 107.294C407.441 106.727 406.586 106.008 405.726 105.298C405.39 104.338 405.064 103.374 404.703 102.422C403.756 99.9903 402.48 97.6466 400.706 95.717C400.172 95.2288 399.421 94.0741 398.626 93.819C398.098 93.396 397.416 93.1523 396.789 92.9153C394.21 91.9087 391.514 91.3102 388.819 90.6809C384.672 89.8017 380.461 89.2751 376.237 88.9451C372.089 88.5288 367.939 88.122 363.772 87.9565C358.258 87.7116 352.742 87.4688 347.222 87.3927C344.747 87.404 342.205 87.2376 339.8 87.9236C339.292 88.2168 339.158 88.253 338.963 88.4033C338.635 88.566 338.307 88.731 337.985 88.9039C335.984 89.9785 333.983 91.0246 332.157 92.3856C330.381 93.7075 328.862 95.2615 326.892 96.3207C325.557 97.0379 324.038 97.4721 322.618 98.0116C321.103 98.5872 319.587 99.1722 318.112 99.8482C315.289 101.137 312.58 102.683 310 104.406C304.937 107.957 300.168 112.094 296.521 117.119C291.852 123.526 289.074 131.026 286.006 138.275C278.544 155.783 271.707 173.573 266.129 191.776C261.214 207.305 256.465 222.881 251.279 238.322C244.247 260.302 237.093 282.36 232.664 305.04C231.804 310.036 230.989 315.038 230.562 320.095C230.296 323.541 230.29 326.998 230.319 330.451C230.34 332.908 230.203 335.365 230.221 337.824C230.239 340.283 230.504 342.731 230.756 345.176C230.801 345.607 230.846 346.037 230.891 346.465C231.239 349.034 231.578 351.836 233.241 353.931C234.077 354.919 235.354 355.248 236.565 355.518C238.081 356.007 239.783 356.178 241.376 356.429C244.793 357.147 248.117 358.286 251.588 358.757C254.542 359.471 258.144 351.817 259.636 349.644C260.223 348.594 261.144 346.307 261.944 345.367C262.772 344.502 263.483 343.512 264.188 342.548C266.019 340.027 267.66 337.378 269.26 334.71C273.646 327.491 277.616 319.949 279.856 311.765C281.168 307.588 282.044 303.298 282.671 298.968C283.968 290.759 284.845 282.489 285.283 274.191C285.323 274.647 285.365 275.103 285.407 275.557C285.608 277.927 285.885 280.293 286.385 282.62C286.957 285.272 287.608 288.744 290.578 289.637C292.463 290.131 294.448 289.854 296.356 289.611C298.883 289.221 301.402 288.571 303.927 288.119C307.162 287.647 310.44 287.73 313.698 287.54C314.943 287.471 316.206 287.416 317.412 287.08C318.084 286.895 318.725 286.601 319.412 286.468C320.074 286.442 320.654 286.893 321.268 287.097C321.669 287.261 322.075 287.413 322.482 287.556C326.762 289.159 331.297 289.658 335.852 289.814C338.926 289.862 342.018 289.977 345.004 290.78C346.874 291.222 348.675 291.959 350.19 293.155C353.889 296.097 354.57 296.446 359.259 297.267C363.229 298.003 367.244 298.436 371.24 299.008C376.487 299.829 381.783 300.253 387.064 300.803C389.07 301.03 391.081 301.28 393.043 301.766C394.265 302.064 395.457 302.469 396.689 302.72C399.707 303.205 400.536 300.731 401.653 298.519C402.143 297.519 402.609 296.507 403.077 295.497C405.372 290.648 407.772 285.819 409.352 280.674C409.687 279.536 409.99 278.389 410.272 277.24C410.098 278.875 409.935 280.512 409.794 282.149C408.602 296.564 409.054 311.062 409.931 325.48C410.913 337.011 410.93 348.75 413.903 360.002C413.885 360.344 414.94 361.614 415.612 361.602C417.02 364.773 419.254 377.209 422.504 377.845C427.042 378.201 431.564 376.971 436.099 376.788C437.603 376.691 439.116 376.742 440.62 376.624C441.324 376.55 442.079 376.443 442.63 375.961C443.219 375.305 443.545 374.44 443.976 373.674C444.58 372.505 445.149 371.316 445.67 370.108C446.809 367.6 447.463 364.915 448.147 362.259C448.399 361.239 448.684 360.142 448.894 359.091C448.963 358.532 449.225 357.642 448.886 357.152L448.889 357.147ZM340.324 89.141C342.563 88.5468 344.924 88.7222 347.219 88.6983C351.352 88.7569 355.483 88.9037 359.613 89.086C365.17 89.267 370.716 89.6591 376.244 90.2566C379.728 90.5365 383.204 90.9321 386.64 91.5857C390.145 92.2667 393.661 93.0541 396.989 94.3963C398.277 94.9317 398.529 95.3661 397.314 96.2626C395.974 97.3516 394.322 97.9366 392.688 98.4284C389.798 99.3317 386.919 99.8783 383.852 100.077C379.9 100.358 375.91 100.418 371.966 100.01C367.9 99.4436 363.888 98.5426 359.858 97.7661C354.269 96.7527 348.814 94.9729 343.912 92.0646C342.573 91.2651 341.043 90.6021 340.128 89.284C340.2 89.2427 340.265 89.1935 340.324 89.141ZM329.67 96.0722C331.379 94.6417 333.077 93.1957 334.984 92.0308C336.282 91.2661 337.618 90.5707 338.952 89.875C339.541 90.8331 340.454 91.5492 341.405 92.1221C342.714 92.894 344.019 93.6439 345.372 94.3496C348.645 96.0575 352.118 97.3529 355.712 98.2001C359.744 99.1369 363.813 99.8872 367.88 100.661C371.883 101.504 375.983 101.716 380.064 101.57C384.391 101.483 388.726 101.067 392.869 99.7327C394.687 99.2038 396.586 98.5298 398.087 97.3102C398.532 96.9948 398.979 96.5626 399.231 96.0683C402.052 98.795 403.456 102.604 404.688 106.281C404.276 106.527 403.883 106.808 403.615 106.911C402.494 107.523 401.385 108.158 400.239 108.724C390.688 113.511 379.625 113.797 369.203 112.599C364.822 112.073 360.458 111.351 356.159 110.345C354.089 109.802 352.061 109.116 350.007 108.52C344.143 106.81 338.276 104.829 333.054 101.607C331.899 100.92 330.75 100.211 329.77 99.2861C329.196 98.6689 328.252 98.1495 328.057 97.2876C328.061 97.2976 329.54 96.1756 329.668 96.0672L329.67 96.0722ZM258.605 348.235C257.199 350.507 256.192 352.993 254.622 355.162C253.957 356.035 253.19 356.948 252.212 357.485C249.157 357.203 246.212 356.227 243.223 355.502C242.046 355.191 240.804 354.981 239.585 354.858C238.188 354.648 236.732 354.237 235.346 353.833C233.231 353.017 232.732 349.728 232.384 347.742C232.068 345.554 231.862 343.304 231.712 341.084C231.715 340.941 231.706 340.816 231.686 340.73C231.677 340.593 231.665 340.453 231.658 340.316C231.648 340.124 231.639 339.948 231.63 339.783C233.358 340.916 236.376 341.655 238.151 342.429C240.904 343.552 243.872 343.979 246.782 344.489C250.698 345.144 254.647 345.727 258.44 346.935C258.691 347.016 258.955 347.063 259.219 347.069C259.054 347.442 258.862 347.782 258.607 348.238L258.605 348.235ZM415.184 359.737C415.184 359.737 415.182 359.72 415.18 359.712C414.015 355.477 413.378 351.152 412.869 346.787C412.338 341.849 412.081 336.889 411.71 331.937C410.749 319.5 410.18 307.024 410.472 294.55C410.558 283.836 412.057 273.281 413.294 262.643C413.694 260.302 413.771 258.583 414.029 256.017C414.689 249.884 415.326 243.743 416.123 237.623C418.026 221.538 421.652 205.679 422.963 189.519C423.252 184.579 423.515 179.638 423.908 174.704C424.012 173.623 423.984 172.512 424.202 171.45C424.218 171.094 423.934 170.782 423.577 170.767C422.987 170.735 422.797 171.382 422.803 171.858C422.765 172.271 422.74 172.686 422.711 173.1C422.34 178.104 421.993 183.109 421.743 188.118C420.773 201.985 417.932 215.654 415.902 229.39C414.976 235.859 414.21 242.35 413.494 248.844C413.074 252.632 412.671 256.421 412.26 260.212C411.744 263.387 411.147 266.517 410.632 269.331C409.85 273.368 409.039 277.368 407.782 281.305C406.419 285.409 404.577 289.345 402.695 293.237C401.615 295.504 400.619 297.817 399.406 300.019C399.213 300.342 399.034 300.673 398.778 300.95C398.393 301.325 397.841 301.444 397.318 301.47C395.725 301.279 394.149 300.601 392.559 300.308C387.971 299.384 383.279 299.152 378.634 298.658C373.778 298.078 368.882 297.353 364.021 296.711C363.622 296.652 363.226 296.594 362.827 296.533C363.821 296.395 364.824 296.332 365.889 296.31C368.555 296.205 371.449 296.627 373.853 295.172C375.708 294.137 377.011 292.418 377.974 290.557C379.345 288.008 380.452 285.334 381.293 282.565C383.098 277.066 384.693 271.501 386.399 265.971C388.977 257.631 391.754 249.345 394.836 241.177C394.963 240.844 394.745 240.459 394.417 240.352C394.066 240.237 393.719 240.438 393.592 240.771C388.993 252.855 385.229 265.231 381.494 277.603C380.172 281.819 378.958 286.108 376.793 289.99C375.829 291.855 374.445 293.595 372.448 294.403C371.248 294.977 369.949 294.925 368.642 294.967C366.555 295.007 364.454 294.947 362.386 295.268C361.742 295.38 361.101 295.521 360.457 295.631C360.093 295.66 359.601 295.719 359.327 295.951C358.265 295.753 357.208 295.533 356.161 295.275C355.588 295.119 355.019 294.949 354.501 294.651C352.888 293.713 351.521 292.421 349.963 291.401C348.969 290.732 347.863 290.269 346.722 289.912C346.964 288.7 347.262 287.519 347.57 286.315C348.201 283.821 348.898 281.197 349.193 278.617C349.482 276.131 349.71 273.588 349.996 271.087C349.995 271.097 349.994 271.106 349.992 271.115C349.992 271.115 349.992 271.118 349.992 271.12C351.015 261.385 352.678 251.715 354.764 242.151C355.553 238.215 356.337 234.282 357.358 230.401C358.195 227.12 359.073 223.642 360.023 220.323C360.12 219.982 359.952 219.613 359.603 219.498C358.617 219.267 358.664 220.6 358.408 221.225C357.597 224.192 356.819 227.162 356.073 230.145C356.075 230.133 356.078 230.124 356.082 230.11C355.092 233.842 354.331 237.648 353.572 241.439C351.453 251.187 349.73 261.02 348.695 270.949C348.695 270.947 348.696 270.942 348.696 270.94L348.7 270.911C348.46 272.995 348.25 275.094 348.037 277.183L348.038 277.176C348.041 277.15 348.044 277.122 348.048 277.096C347.758 280.489 346.86 283.791 346.024 287.085C345.823 287.863 345.622 288.719 345.453 289.556C345.24 289.501 345.029 289.449 344.818 289.399C341.596 288.554 338.259 288.589 334.956 288.479C332.259 288.315 329.541 288.11 326.897 287.511C326.917 285.916 326.971 283.395 327.123 282C328.344 273.144 329.897 264.346 330.833 255.441C331.285 251.855 331.924 248.269 331.896 244.644C331.784 237.1 330.609 229.635 330.493 222.084C330.473 217.263 330.928 212.453 330.878 207.631C330.826 203.11 330.56 198.474 330.72 193.927C330.883 188.436 331.051 182.944 331.254 177.457C331.267 177.1 330.988 176.791 330.629 176.773C330.275 176.759 329.961 177.045 329.948 177.399C329.75 182.73 329.585 188.062 329.427 193.393C329.193 200.661 329.853 207.923 329.382 215.202C328.773 223.587 329.823 231.967 330.43 240.326C330.877 245.106 330.324 249.899 329.618 254.642C328.886 260.991 328.031 267.333 327.037 273.659C326.421 277.642 325.675 281.622 325.532 285.66C325.515 286.152 325.497 286.647 325.472 287.14C324.229 286.79 322.996 286.388 321.794 285.91C321.054 285.636 320.335 285.154 319.523 285.156C319.207 285.18 318.898 285.245 318.595 285.327C318.346 284.647 318.076 283.952 318.043 283.21C317.862 280.271 318.103 277.313 318.216 274.372C318.856 266.789 320.029 259.199 319.821 251.56C319.698 247.231 319.029 242.94 318.719 238.621C318.29 232.762 318.421 226.99 318.343 221.072C318.339 220.169 317.079 220.203 317.034 221.016C317.036 222.42 317.047 223.823 317.059 225.226C317.12 229.65 317.054 234.054 317.394 238.501C317.675 242.47 318.258 246.417 318.462 250.393C318.647 254.372 318.422 258.36 318.1 262.327C317.686 267.273 316.894 272.189 316.781 277.175C316.789 280.008 316.229 283.012 317.335 285.704C317.339 285.714 317.342 285.724 317.346 285.734C316.938 285.868 316.525 285.987 316.098 286.037C312.2 286.502 308.246 286.252 304.348 286.746C301.026 287.044 291.593 290.37 289.454 287.376C288.276 285.83 287.876 283.639 287.522 281.779C287.039 279.241 286.772 276.666 286.57 274.094C286.446 272.534 286.354 270.97 286.277 269.407C286.208 268.042 286.199 266.675 286.183 265.31C286.17 264.225 286.044 263.156 286.093 262.076C286.319 257.047 286.723 252.025 287.105 247.004C287.689 239.356 288.343 231.713 289.099 224.078C289.204 223.009 289.314 221.941 289.423 220.873C290.882 208.057 292.955 195.316 295.755 182.722C297.697 174.294 299.171 165.772 300.079 157.169C300.42 154.544 300.693 151.978 301.01 149.335C301.045 148.717 301.476 147.877 300.625 147.648C300.268 147.583 299.937 147.826 299.865 148.175C299.624 149.497 299.533 150.842 299.37 152.173C298.607 158.292 297.993 164.436 296.911 170.511C294.484 183.289 291.325 195.935 289.66 208.852C286.635 230.494 285.373 252.34 283.975 274.133C283.425 284.52 282.229 294.886 280.272 305.105C279.194 309.781 277.79 314.393 276.077 318.875C274.602 322.387 272.89 325.794 271.012 329.109C268.963 332.713 266.862 336.294 264.559 339.743C263.378 341.432 262.295 343.116 260.849 344.624C260.347 345.037 259.858 345.736 259.17 345.776L259.166 345.768C253.356 343.95 247.255 343.473 241.339 342.106C239.924 341.768 238.632 341.23 237.283 340.665C236.317 340.31 235.321 340.021 234.425 339.498C234.068 339.294 232.121 338.608 231.535 338.303C231.504 337.776 231.49 337.313 231.513 336.695C231.66 332.619 231.588 328.561 231.649 324.76C232.4 305.576 238.064 286.978 243.2 268.594C247.774 253.064 252.815 237.675 257.938 222.319C262.009 209.349 265.986 196.345 270.156 183.406C275.337 167.654 281.49 152.251 287.946 136.985C293.776 122.963 297.111 115.305 309.922 106.055C313.775 103.336 317.911 101.173 322.344 99.5204C324.236 98.7976 325.293 98.4546 326.837 97.8181C327.255 99.0967 328.622 99.9449 329.565 100.856C335.036 104.913 341.48 107.318 347.969 109.29C350.325 109.97 352.658 110.723 355.015 111.403C359.068 112.441 363.207 113.126 367.351 113.696C377.218 114.97 387.578 115.101 397.011 111.56C399.945 110.472 402.672 108.951 405.401 107.438C405.515 107.4 405.672 107.288 405.826 107.147C406.139 107.379 406.314 107.507 406.959 107.928C408.692 109.084 410.627 109.887 412.46 110.862C413.419 111.357 414.369 111.865 415.315 112.387C417.778 113.793 419.933 115.652 422.209 117.331C426.703 120.6 430.839 124.636 433.79 129.396C436.128 133.396 438.006 137.7 439.582 142.059C441.834 148.586 443.622 155.293 444.721 162.113C445.082 164.91 445.356 167.718 445.622 170.527C446.54 180.104 446.411 189.731 446.819 199.336C446.965 209.546 447.828 219.725 448.324 229.919C449.108 245.29 450.409 260.635 450.758 276.029C450.884 282.221 450.713 288.413 450.726 294.605C450.739 304.77 450.846 314.94 450.434 325.101C450.225 332.675 449.645 340.236 448.835 347.767C448.486 350.926 448.066 354.093 447.547 357.25C447.263 357.48 446.969 357.697 446.655 357.883C444.136 359.288 441.257 359.849 438.478 360.522C435.457 361.171 432.471 361.308 429.355 361.188C425.046 360.931 420.773 360.07 416.44 360.28C415.954 360.08 415.534 359.887 415.181 359.748L415.184 359.737ZM446.881 361.95C446.451 363.612 446.015 365.289 445.503 366.933C444.517 369.732 443.247 372.456 441.738 375.004C441.013 375.409 440.114 375.318 439.309 375.381C438.179 375.403 437.05 375.422 435.923 375.484C431.552 375.668 427.233 376.802 422.844 376.569C420.512 375.748 418.111 364.289 417.013 361.566C422.207 361.399 427.317 362.736 432.515 362.502C435.571 362.484 438.584 361.901 441.53 361.119C443.627 360.572 445.763 359.979 447.614 358.82C447.404 359.89 447.131 360.95 446.87 362.009C446.874 361.988 446.879 361.969 446.886 361.949L446.881 361.95Z" fill="#010101"/>
<path d="M236.956 324.454C236.965 323.059 237.059 321.664 237.234 320.279C237.339 319.445 236.041 319.283 235.936 320.12C235.304 325.149 235.756 330.276 237.216 335.128C237.625 336.484 238.116 337.812 238.683 339.109C239.02 339.881 240.222 339.364 239.885 338.59C237.945 334.152 236.926 329.302 236.958 324.455L236.956 324.454Z" fill="#010101"/>
<path d="M241.387 328.518C241.071 328.479 240.654 328.731 240.658 329.087C240.687 331.882 240.718 334.679 240.748 337.474C240.752 337.827 240.934 338.155 241.317 338.202C241.632 338.241 242.05 337.989 242.046 337.633C242.017 334.838 241.985 332.041 241.956 329.247C241.952 328.893 241.77 328.565 241.387 328.518Z" fill="#010101"/>
<path d="M267.887 323.959C267.537 323.816 267.194 323.999 267.031 324.315C264.791 328.694 262.224 332.9 259.358 336.896C258.542 338.035 257.701 339.154 256.837 340.258C256.316 340.923 257.36 341.715 257.878 341.052C260.968 337.106 263.751 332.93 266.22 328.568C266.921 327.331 267.593 326.079 268.24 324.815C268.401 324.5 268.193 324.088 267.884 323.959L267.887 323.959Z" fill="#010101"/>
<path d="M418.379 343.476C418.235 342.649 416.94 342.834 417.083 343.668C417.834 347.977 419.264 352.158 421.323 356.016C421.49 356.328 421.838 356.507 422.184 356.359C422.489 356.226 422.692 355.812 422.526 355.498C420.517 351.735 419.112 347.678 418.379 343.476Z" fill="#010101"/>
<path d="M423.8 349.005C423.696 348.668 423.24 348.535 422.94 348.663C422.587 348.816 422.494 349.184 422.598 349.524C423.297 351.82 423.997 354.117 424.698 356.414C424.802 356.752 425.259 356.884 425.559 356.756C425.912 356.604 426.005 356.236 425.901 355.896C425.201 353.599 424.502 351.302 423.8 349.005Z" fill="#010101"/>
<path d="M440.167 355.324C440.471 355.45 440.916 355.309 441.022 354.969C442.498 350.224 443.971 345.48 445.446 340.735C445.865 339.388 446.283 338.042 446.702 336.695C446.808 336.357 446.694 335.982 446.346 335.839C446.041 335.713 445.597 335.855 445.49 336.195C444.015 340.939 442.542 345.684 441.066 350.428C440.648 351.776 440.23 353.121 439.811 354.469C439.705 354.807 439.819 355.181 440.167 355.324Z" fill="#010101"/>
<path d="M313.623 239.676C313.256 239.731 313.041 240.065 313.071 240.42C313.471 245.113 313.869 249.805 314.269 254.5C314.3 254.853 314.678 255.102 315.013 255.053C315.38 254.997 315.596 254.663 315.565 254.309C315.165 249.616 314.765 244.923 314.367 240.228C314.336 239.876 313.959 239.626 313.623 239.676Z" fill="#010101"/>
<path d="M364.457 220.88C364.146 220.751 363.717 220.899 363.602 221.235C362.338 224.977 361.076 228.718 359.812 232.462C359.699 232.796 359.824 233.175 360.167 233.317C360.479 233.446 360.908 233.298 361.023 232.961C362.287 229.22 363.548 225.479 364.813 221.735C364.925 221.4 364.8 221.022 364.457 220.88Z" fill="#010101"/>
<path d="M385.596 277.077C385.249 276.934 384.899 277.116 384.741 277.433C382.369 282.206 380.964 287.465 380.64 292.785C380.547 294.304 380.546 295.829 380.622 297.35C380.64 297.703 381.04 297.95 381.366 297.902C381.743 297.846 381.936 297.514 381.918 297.158C381.657 292.01 382.451 286.807 384.218 281.965C384.721 280.589 385.299 279.244 385.952 277.933C386.11 277.615 385.908 277.206 385.596 277.077Z" fill="#010101"/>
<path d="M290.764 243.65C290.427 248.259 290.092 252.871 289.756 257.481C289.693 258.318 290.994 258.483 291.054 257.64C291.391 253.031 291.726 248.419 292.062 243.809C292.125 242.971 290.824 242.807 290.764 243.65Z" fill="#010101"/>
<path d="M414.588 196.3C413.944 201.02 412.96 205.691 411.627 210.264C411.529 210.603 411.631 210.974 411.983 211.12C412.283 211.243 412.739 211.105 412.839 210.764C414.204 206.078 415.228 201.297 415.889 196.46C416.003 195.627 414.703 195.465 414.591 196.301L414.588 196.3Z" fill="#010101"/>
<path d="M327.951 432.952C328.319 437.784 328.595 442.769 326.945 447.434C326.287 449.797 324.95 451.957 323.009 453.571C321.03 455.299 318.367 456.17 315.748 456.518C314.027 456.682 312.293 456.46 310.592 456.215C309.241 455.985 307.877 455.73 306.605 455.222C305.291 454.658 304.014 453.974 302.874 453.133C301.63 452.142 300.784 450.768 300.031 449.418C298.653 446.443 298.165 443.187 297.529 440.013C296.51 435.213 295.414 430.548 293.824 425.919C293.657 425.548 293.499 425.077 293.091 424.886C292.491 424.65 291.911 424.647 291.337 424.832C289.938 425.436 288.66 426.266 287.31 426.96C275.088 433.261 261.389 436.393 247.863 438.932C236.159 440.914 224.428 442.927 212.584 443.942C208.558 444.231 204.527 444.377 200.496 444.605C188.39 445.375 176.27 445.268 164.17 444.641C163.433 444.665 162.695 444.688 161.974 444.841C161.761 444.899 161.514 444.922 161.384 445.11C161.117 445.543 161.084 445.975 160.979 446.437C159.58 456.182 160.42 466.799 154.74 475.471C153.505 477.425 152.152 479.377 150.214 480.763C149.081 481.645 147.757 482.373 146.249 482.327C142.402 482.339 138.307 481.948 135.002 479.933C132.437 478.123 130.627 475.535 128.84 473.057C121.855 463.221 119.329 451.364 117.004 439.872C115.111 430.118 113.606 420.273 113.24 410.343C112.437 389.961 112.326 369.557 112.083 349.164C112.121 336.25 112.628 323.285 115.177 310.564C116.178 305.566 117.663 300.666 119.271 295.818C121.545 289.219 124.364 282.754 127.959 276.704C129.637 274.017 131.664 271.548 133.657 269.069C136.138 265.963 138.867 263.05 141.821 260.35C145.73 256.814 149.666 253.265 154.068 250.289C157.265 248.213 160.746 246.556 164.253 245.018C166.615 243.997 169.027 243.068 171.512 242.365C176.765 240.968 182.048 239.581 187.441 238.8C188.946 238.655 194.015 237.641 194.399 238.809C196.18 238.596 197.98 238.451 199.775 238.531C205.291 239.005 210.676 240.371 216.082 241.45C221.483 242.58 226.869 243.879 231.997 245.863C235.943 247.465 239.643 249.58 243.102 251.987C248.355 255.687 253.691 259.342 258.462 263.607C264.949 269.484 271.142 275.666 276.977 282.136C282.129 287.754 286.993 293.656 290.988 300.091C297.01 310.019 302.145 320.434 306.707 331.047C308.07 334.232 309.301 337.473 310.177 340.816C311.405 345.449 312.432 350.103 313.87 354.675C317.954 368.141 322.248 381.631 324.325 395.548C325.364 401.967 325.199 408.484 325.903 414.937C326.52 420.949 327.471 426.928 327.941 432.953L327.951 432.952Z" fill="#F4A221"/>
<path d="M324.327 394.574C323.775 388.859 323.214 383.238 322.599 377.491C320.802 364.332 317.678 351.39 314.242 338.574C311.036 325.566 307.134 312.706 302.046 300.305C299.758 295.008 297.073 289.882 294.205 284.877C292.548 282.06 290.719 279.353 288.817 276.698C286.864 273.955 284.98 271.155 282.743 268.631C278.941 264.299 275.027 260.052 270.888 256.041C268.089 253.35 265.185 250.758 262.028 248.493C259.068 246.378 255.901 244.583 252.799 242.693C251.44 241.829 250.076 240.972 248.666 240.197C247.519 239.548 246.351 238.925 245.145 238.392C244.357 238.062 243.547 237.686 242.706 237.493C241.584 235.547 240.219 234.719 238.74 233.284C237.421 232.032 236.021 230.863 234.604 229.726C233.29 228.705 231.741 228.05 230.189 227.482C229.926 227.325 229.642 227.406 229.469 227.589C227.393 227.827 225.374 228.417 223.312 228.756C220.268 229.304 217.17 229.546 214.078 229.446C210.147 229.3 206.178 228.67 202.225 228.774C199.709 228.758 197.221 229.202 194.741 229.58C192.315 229.928 189.889 230.291 187.452 230.549C185.376 230.811 183.282 230.715 181.205 230.5C180.323 230.396 179.436 230.366 178.554 230.279C178.44 230.266 178.31 230.273 178.186 230.3C177.944 230.268 177.71 230.408 177.495 230.526C176.407 231.134 175.358 231.807 174.304 232.474C171.223 234.471 168.203 236.625 165.665 239.296C165.627 239.336 165.6 239.383 165.574 239.429C165.157 239.666 164.283 240.523 164.082 240.674C163.494 241.114 162.886 241.526 162.265 241.919C161.023 242.707 159.729 243.41 158.428 244.093C155.877 245.428 153.217 246.688 150.86 248.314C142.91 253.798 135.06 259.633 128.498 266.76C125.515 269.98 123.147 273.704 120.983 277.508C116.459 285.534 113.505 294.303 111.028 303.142C106.874 317.416 104.505 332.209 103.801 347.065C103.5 356.05 103.614 365.042 103.628 374.029C103.75 394.969 105.385 415.986 110.309 436.392C111.566 441.493 113.229 446.484 114.902 451.459C115.557 453.37 116.249 455.271 116.874 457.191C118.718 463.243 120.143 469.78 122.408 475.642C122.483 476.137 123.012 476.733 123.249 477.069C124.113 478.093 125.304 478.791 126.624 479.023C127.213 479.173 127.81 479.059 128.395 478.94C129.868 478.666 131.367 478.57 132.864 478.551C135.043 478.546 137.231 478.709 139.402 478.419C140.617 478.263 141.893 478.156 142.99 477.563C143.597 477.216 143.715 476.464 143.845 475.837C143.958 475.298 144.061 474.757 144.165 474.217C144.648 471.837 145.006 469.503 145.399 467.084C145.764 464.979 145.818 462.427 146.298 460.344C146.403 460.205 146.441 460.073 146.434 459.957C146.946 458.541 147.389 457.094 147.744 455.632C148.679 451.972 149.26 448.241 149.651 444.487C150.319 438.938 150.709 433.404 150.715 427.814C151.542 430.059 152.466 432.271 153.523 434.426C153.539 434.5 153.577 434.575 153.641 434.648C153.647 434.657 153.655 434.665 153.661 434.674C153.691 434.711 153.727 434.745 153.763 434.771C155.874 436.833 159.17 438.694 161.914 439.627C163.02 440.024 164.142 440.409 165.309 440.562C167.713 440.835 170.146 440.818 172.565 440.819C201.489 439.45 230.501 438.318 259.165 433.977C263.102 433.389 267.029 432.73 270.88 431.713C272.715 431.22 274.589 430.749 276.283 429.868C276.879 429.491 279.862 428.256 279.687 426.964C279.869 426.367 280.048 425.767 280.163 425.149C280.753 422.013 280.209 418.771 279.745 415.614C279.252 412.511 278.775 409.406 278.448 406.281C277.772 399.156 277.157 392.047 276.452 384.928C276.817 386.015 277.198 387.098 277.577 388.178C279.809 394.711 282.611 401.018 284.956 407.518C286.756 412.557 288.562 417.595 290.362 422.633C292.523 428.757 294.502 434.984 297.398 440.812C297.423 440.859 297.449 440.901 297.48 440.936C297.681 441.661 297.967 442.454 298.141 443.113C298.731 445.467 299.799 447.649 300.916 449.806C301.813 451.532 304.149 455.918 306.199 456.084C309.347 455.881 312.39 455.09 315.431 454.17C317.769 453.422 320.013 452.602 322.182 451.385C323.093 450.855 324.197 450.352 324.685 449.368C324.813 449.049 324.781 448.693 324.768 448.358C324.633 444.862 324.664 441.366 324.55 437.868C324.465 436.906 324.559 433.447 324.481 432.034C324.589 428.972 324.729 425.91 324.98 422.855C325.278 419.237 325.676 415.616 325.621 411.98C325.56 406.154 324.875 400.363 324.331 394.571L324.327 394.574ZM236.584 232.921C238.264 234.369 239.846 235.841 240.948 237.738C241.029 238.009 241.171 238.324 241.334 238.466C241.347 238.493 241.362 238.518 241.374 238.545C241.058 239.699 240.702 240.807 240.201 241.919C239.743 242.938 239.138 243.876 238.5 244.788C238.489 244.775 238.477 244.759 238.464 244.747C237.769 244.14 237.096 243.506 236.445 242.851C233.94 240.415 231.629 237.733 228.753 235.718C228.891 235.484 229.025 235.248 229.153 235.01C229.161 234.997 229.167 234.982 229.174 234.969C229.254 234.823 229.329 234.676 229.407 234.528C229.428 234.485 229.451 234.444 229.472 234.4C229.961 233.421 230.375 232.399 230.695 231.33C230.85 230.788 231.125 229.89 231.162 229.105C233.222 229.962 234.923 231.446 236.586 232.916L236.584 232.921ZM233.502 250.422C233.242 250.633 232.978 250.84 232.712 251.045C232.004 251.595 231.289 252.131 230.566 252.664C230.044 251.909 229.563 251.126 229.039 250.374C227.209 247.642 225.398 244.892 223.427 242.257C223.407 242.226 223.384 242.198 223.362 242.17C225.15 240.535 226.788 238.731 228.118 236.732C228.136 236.737 228.153 236.744 228.173 236.747C229.117 237.421 229.971 238.166 230.858 238.955C233.158 241.139 235.284 243.507 237.658 245.612C237.714 245.663 237.773 245.696 237.834 245.722C237.003 246.851 236.194 248.003 235.197 248.997C234.646 249.487 234.078 249.96 233.502 250.422ZM194.025 260.439C193.686 260.397 193.349 260.354 193.013 260.305C191.174 260.046 189.361 259.693 187.613 259.22C187.909 258.42 188.174 257.609 188.452 256.801C189.192 254.583 189.983 252.385 190.845 250.214C191.105 249.449 191.445 248.701 191.716 247.937C191.801 247.967 191.884 248 191.969 248.03C193.689 248.681 195.372 249.455 197.162 249.897C197.312 249.936 197.462 249.97 197.614 250.004C197.574 250.374 197.519 250.744 197.469 251.113C197.286 252.465 197.031 253.786 196.805 255.136C196.615 256.269 196.42 257.408 196.192 258.606C196.063 259.283 195.918 259.953 195.769 260.625C195.188 260.573 194.607 260.51 194.027 260.438L194.025 260.439ZM176.005 252.982C175.853 252.848 175.705 252.711 175.554 252.576C174.491 251.616 173.466 250.615 172.459 249.609C171.501 248.614 170.705 247.535 169.944 246.394C170.057 246.32 170.167 246.249 170.273 246.193C170.877 245.804 171.392 245.409 171.984 244.981C173.667 243.74 175.402 242.446 177.138 241.227C177.86 240.711 178.586 240.204 179.302 239.679C180.352 240.878 181.601 241.909 182.852 242.887C183.396 243.348 183.953 243.783 184.524 244.193C182.728 246.467 180.941 248.747 179.007 250.908C178.423 251.572 177.849 252.247 177.285 252.927C177.119 253.129 176.883 253.38 176.774 253.639C176.515 253.423 176.259 253.204 176.005 252.979L176.005 252.982ZM177.688 254.32C177.902 254.176 177.964 253.906 178.151 253.733C179.496 252.109 180.924 250.556 182.261 248.921C183.364 247.599 184.424 246.216 185.499 244.861C186.504 245.518 187.547 246.104 188.631 246.63C188.654 246.642 188.677 246.651 188.699 246.66C189.032 246.822 189.369 246.976 189.71 247.128C189.725 247.133 189.737 247.141 189.752 247.147C190.035 247.269 190.322 247.392 190.611 247.509C189.986 249.185 189.333 250.851 188.698 252.524C188.265 253.678 187.879 254.85 187.477 256.016C187.149 256.976 186.833 257.943 186.479 258.894C184.081 258.162 181.822 257.188 179.812 255.907C179.067 255.423 178.351 254.897 177.651 254.346C177.664 254.335 177.677 254.328 177.69 254.315L177.688 254.32ZM197.358 258.783C197.588 257.57 197.788 256.378 197.994 255.155C198.232 253.793 198.508 252.267 198.692 250.843C198.694 250.671 198.735 250.461 198.773 250.241C199.999 250.463 201.24 250.602 202.482 250.664C203.414 250.686 204.343 250.653 205.27 250.575C205.291 250.572 205.312 250.57 205.335 250.567C205.48 250.554 205.621 250.541 205.765 250.526C205.826 250.519 205.888 250.513 205.949 250.508C206.088 250.491 206.224 250.475 206.363 250.457C206.363 250.457 206.365 250.457 206.368 250.457C206.371 253.928 206.741 257.371 207.129 260.818C203.918 260.952 200.441 260.971 196.955 260.716C197.098 260.073 197.234 259.426 197.359 258.778L197.358 258.783ZM208.312 260.771C208.16 259.355 207.991 257.922 207.843 256.486C207.68 254.765 207.591 253.033 207.561 251.306C207.521 250.979 207.58 250.623 207.567 250.286C209.697 249.922 211.785 249.309 213.784 248.477C213.817 248.592 213.851 248.71 213.886 248.825C214.211 249.874 214.558 250.912 214.94 251.942C215.368 253.155 215.962 254.297 216.589 255.419C217.284 256.683 218.026 258.022 218.83 259.262C215.506 260.21 212.026 260.606 208.547 260.761C208.471 260.766 208.391 260.768 208.315 260.773L208.312 260.771ZM220.005 258.898C219.133 257.585 218.369 256.208 217.608 254.828C216.364 252.713 215.57 250.346 214.871 247.997C216.511 247.235 218.082 246.323 219.553 245.278C219.577 245.261 219.599 245.244 219.621 245.229C219.823 245.085 220.022 244.939 220.221 244.79C220.241 244.773 220.263 244.759 220.282 244.742C220.374 244.671 220.468 244.6 220.559 244.529C221.209 244.022 221.851 243.499 222.479 242.954C222.633 243.138 222.769 243.336 222.912 243.526C225.258 246.705 227.373 250.103 229.638 253.346C229.02 253.799 228.402 254.25 227.79 254.707C226.445 255.672 224.938 256.66 223.464 257.492C222.338 258.046 221.183 258.51 220.005 258.898ZM228.753 236.494C228.753 236.494 228.746 236.5 228.742 236.503C228.778 236.448 228.809 236.389 228.83 236.325C228.827 236.339 228.824 236.352 228.821 236.366C228.812 236.389 228.8 236.412 228.791 236.435C228.791 236.435 228.791 236.435 228.791 236.432C228.779 236.453 228.765 236.474 228.753 236.494ZM185.367 231.889C188.868 231.7 192.335 231.101 195.804 230.613C199.026 230.019 202.294 229.842 205.564 230.006C210.221 230.313 215.006 230.991 219.693 230.449C223.171 230.196 226.52 229.14 229.968 228.719C229.971 230.357 229.26 231.91 228.633 233.4C228.573 233.458 228.525 233.528 228.491 233.606C228.474 233.656 228.466 233.707 228.463 233.76C226.398 238.044 222.726 241.429 218.954 244.265C217.442 245.351 215.83 246.277 214.142 247.036C213.967 247.034 213.794 247.1 213.677 247.236C210.992 248.39 208.129 249.128 205.196 249.412C202.919 249.627 200.615 249.435 198.375 248.962C198.35 248.956 198.327 248.947 198.301 248.943C198.294 248.944 198.287 248.945 198.277 248.943C197.686 248.815 197.1 248.673 196.521 248.507C194.361 247.72 192.209 246.895 190.091 245.997C190.057 245.949 190.015 245.904 189.968 245.869C189.834 245.769 189.697 245.745 189.558 245.774C189.54 245.766 189.52 245.759 189.502 245.75C186.933 244.618 184.706 242.912 182.55 241.143C180.971 239.814 179.29 238.275 178.509 236.272C178.01 234.755 177.716 232.922 178.552 231.473C180.823 231.592 183.081 231.955 185.362 231.887L185.367 231.889ZM171.924 235.51C173.585 234.339 175.278 233.193 177.033 232.163C176.589 233.936 177.01 235.983 177.819 237.577C177.867 237.671 177.916 237.763 177.966 237.855C177.966 237.857 177.969 237.862 177.971 237.864C178.155 238.173 178.356 238.471 178.566 238.76C178.549 238.772 178.534 238.785 178.516 238.797C178.073 239.119 177.605 239.449 177.139 239.778C175.084 241.219 173.079 242.705 171.057 244.197C170.487 244.611 169.911 245.035 169.294 245.399C169.291 245.392 169.285 245.386 169.282 245.382C168.407 244.011 167.58 242.599 166.981 241.083C166.864 240.851 166.824 240.328 166.703 239.911C166.983 239.621 167.265 239.333 167.558 239.056C168.928 237.766 170.394 236.607 171.923 235.507L171.924 235.51ZM126.254 477.72C125.329 477.439 124.522 476.841 123.952 476.066C123.815 475.902 123.703 475.655 123.576 475.437C123.569 475.416 123.564 475.395 123.557 475.375C122.961 473.886 122.461 472.358 121.942 470.841C120.851 467.613 120.231 464.309 119.279 461.047C119.849 460.963 120.424 460.906 120.997 460.843C123.092 460.624 125.209 460.522 127.327 460.501C127.828 463.476 128.398 466.441 128.775 469.434C129.172 472.128 129.399 474.846 129.756 477.545C129.58 477.567 129.403 477.584 129.227 477.61C128.233 477.739 127.238 478.112 126.254 477.725L126.254 477.72ZM134.667 477.389C133.417 477.354 132.161 477.357 130.911 477.442C130.866 477.091 130.83 476.74 130.793 476.384C130.255 471.085 129.487 465.746 128.52 460.495C129.537 460.499 130.555 460.52 131.567 460.558C131.567 460.558 131.565 460.558 131.562 460.558C131.555 460.559 131.548 460.56 131.541 460.559C133.996 460.644 136.404 460.79 138.833 460.878C138.819 461.109 138.803 461.348 138.769 461.595C138.5 464.482 138.198 467.369 138.072 470.269C138.012 471.42 137.945 472.567 137.86 473.716C137.777 474.834 137.661 475.949 137.538 477.063C137.525 477.172 137.547 477.276 137.592 477.369C136.277 477.43 135.099 477.424 134.667 477.389ZM142.512 476.294C142.36 476.862 140.546 477.159 138.682 477.302C138.694 477.264 138.703 477.223 138.708 477.181C138.811 476.252 138.907 475.323 138.984 474.392C139.241 469.894 139.582 465.402 139.996 460.915C140.887 460.939 141.782 460.953 142.684 460.952C143.429 460.956 144.182 460.964 144.93 460.913C143.734 465.947 143.701 471.242 142.51 476.294L142.512 476.294ZM161.555 438.241C159.16 437.384 156.493 435.883 154.65 434.061C153.816 432.303 153 430.537 152.3 428.722C150.851 424.803 149.568 420.789 148.512 416.715C148.758 416.811 149.026 416.876 149.263 416.964C150.711 417.376 152.185 417.675 153.676 417.881C155.26 418.049 156.846 418.167 158.432 418.25C159.78 425.321 162.379 432.1 164.069 439.095C163.216 438.859 162.385 438.545 161.553 438.244L161.555 438.241ZM165.412 439.382C165.336 439.186 165.258 439.004 165.243 438.937C164.862 437.386 164.455 435.844 164.014 434.31C162.51 428.989 160.709 423.733 159.63 418.305C164.105 418.487 168.586 418.385 173.069 418.21C173.069 418.305 173.091 418.407 173.148 418.517C174.538 425.5 176.263 432.417 177.333 439.462C177.03 439.478 176.724 439.494 176.42 439.51C172.73 439.672 169.113 439.775 165.415 439.384L165.412 439.382ZM178.51 439.402C178.292 438.094 178.089 436.784 177.857 435.478C176.859 429.665 175.404 423.944 174.267 418.16C178.371 417.991 182.478 417.775 186.574 417.676C187.752 417.643 188.932 417.608 190.112 417.569C190.434 422.161 191.161 426.741 191.4 431.365C191.488 432.587 191.561 433.81 191.633 435.033C191.696 436.071 191.732 437.575 191.815 438.718C191.787 438.722 191.761 438.72 191.733 438.724C187.324 438.95 182.919 439.178 178.51 439.402ZM225.847 436.581C225.564 433.961 225.243 431.35 224.974 428.728C224.543 424.438 224.178 420.085 224.174 415.762C224.188 415.717 224.195 415.673 224.201 415.632C228.058 415.323 231.913 414.988 235.765 414.625C236.666 414.538 237.568 414.459 238.471 414.381C238.627 421.369 239.778 428.276 240.69 435.195C235.749 435.73 230.798 436.185 225.845 436.584L225.847 436.581ZM223.185 421.489C223.482 426.569 224.118 431.617 224.675 436.675C219.813 437.057 214.947 437.387 210.08 437.688C209.99 436.914 209.887 435.492 209.825 434.836C209.452 431.002 209.138 427.196 208.71 423.36C208.711 423.367 208.712 423.376 208.713 423.383C208.642 422.688 208.573 422.032 208.501 421.325C208.501 421.332 208.502 421.337 208.503 421.341C208.412 420.45 208.322 419.559 208.245 418.661C208.163 418.031 208.188 417.379 208.101 416.749C213.07 416.459 218.034 416.117 222.996 415.727C222.994 415.926 223.011 416.129 222.998 416.312C223.022 418.04 223.09 419.765 223.188 421.491L223.185 421.489ZM206.937 416.813C206.971 417.497 207.019 418.183 207.079 418.868C207.343 421.734 207.658 424.575 207.951 427.447C208.271 430.557 208.552 434.579 208.933 437.758C203.634 438.079 198.336 438.369 193.04 438.654C192.967 437.808 192.907 436.722 192.863 435.911C192.653 432.338 192.441 428.762 192.063 425.201C191.876 423.345 191.647 421.477 191.446 419.611C191.378 418.917 191.316 418.223 191.281 417.528C196.502 417.35 201.72 417.108 206.936 416.811L206.937 416.813ZM241.863 435.063C241.567 432.87 241.246 430.682 240.971 428.485C240.349 423.768 239.722 419.046 239.652 414.279C242.451 414.05 245.253 413.847 248.05 413.609C249.97 413.437 251.88 413.162 253.786 412.88C253.839 413.213 253.926 413.551 253.925 413.799C254.185 415.639 254.463 417.477 254.745 419.312C255.493 423.918 256.022 428.545 256.289 433.208C256.163 433.226 256.036 433.244 255.907 433.262C251.238 433.95 246.554 434.54 241.865 435.061L241.863 435.063ZM257.456 433.041C257.199 428.522 256.682 424.023 255.972 419.555C255.639 417.273 255.257 414.997 254.971 412.709C255.323 412.656 255.675 412.606 256.024 412.555C258.641 412.184 261.264 411.831 263.863 411.359C265.012 411.168 266.15 410.928 267.279 410.648C268.182 417.363 268.899 424.101 269.48 430.851C265.518 431.813 261.487 432.453 257.451 433.042L257.456 433.041ZM279.063 424.587C278.921 425.413 278.694 426.193 278.435 426.996C278.427 427.026 278.416 427.056 278.408 427.086C277.892 427.395 277.396 427.79 277.293 427.867C275.624 429.087 273.644 429.745 271.669 430.284C271.32 430.379 270.973 430.472 270.624 430.563C270.5 429.26 270.42 427.949 270.284 426.648C269.827 421.234 269.136 415.835 268.431 410.447C268.432 410.414 268.43 410.38 268.426 410.35C270.383 409.821 272.311 409.183 274.209 408.468C275.264 408.092 276.367 407.864 277.396 407.432C277.687 410.015 278.03 412.592 278.469 415.157C278.937 418.273 279.519 421.417 279.058 424.585L279.063 424.587ZM306.688 454.894C306.376 454.942 306.067 454.894 305.804 454.714C303.772 452.999 302.562 450.418 301.356 448.067C300.434 446.272 299.646 444.406 299.182 442.432C299.077 441.988 298.992 441.543 298.906 441.097C298.908 441.097 298.913 441.097 298.915 441.096C300.089 440.95 301.25 440.748 302.406 440.491C302.715 440.424 303.021 440.353 303.328 440.285C303.643 441.005 304.075 441.68 304.413 442.391C304.999 443.529 305.567 444.675 306.106 445.838C307.427 448.658 308.645 451.522 309.867 454.382C309.632 454.428 309.396 454.473 309.161 454.517C308.343 454.667 307.518 454.807 306.688 454.897L306.688 454.894ZM315.075 453.043C313.743 453.474 312.395 453.833 311.031 454.134C310.876 453.769 310.728 453.403 310.576 453.037C308.739 448.614 306.72 444.268 304.529 440.013C307.127 439.415 309.699 438.755 312.287 438.02C312.931 437.84 313.575 437.656 314.218 437.47C314.499 439.137 314.954 440.779 315.292 442.44C315.968 445.695 316.825 448.903 317.651 452.149C316.795 452.464 315.93 452.754 315.075 453.043ZM323.458 442.118C323.482 443.848 323.501 445.579 323.551 447.309C323.56 447.811 323.597 448.311 323.599 448.812C323.605 448.952 323.519 449.055 323.423 449.146C322.019 450.252 320.42 451.055 318.759 451.722C318.558 450.882 318.311 449.977 318.073 449.068C317.074 445.115 316.144 441.134 315.359 437.136C316.677 436.75 317.994 436.352 319.304 435.94C320.428 435.587 321.552 435.232 322.653 434.808C322.827 434.741 323.004 434.67 323.181 434.595C323.399 437.092 323.413 439.612 323.455 442.116L323.458 442.118ZM324.413 414.525C324.187 419.313 323.592 424.076 323.421 428.869C323.358 430.219 323.32 431.568 323.266 432.916C323.255 433.015 323.276 433.113 323.314 433.204C322.491 433.761 321.034 434.085 320.307 434.385C315.605 435.891 310.853 437.267 306.061 438.45C305.261 438.641 304.448 438.832 303.633 439.018C303.574 439.025 303.518 439.034 303.464 439.055C302.82 439.201 302.176 439.342 301.536 439.473C300.537 439.684 299.529 439.834 298.518 439.963C298.434 439.897 298.333 439.857 298.225 439.846C297.235 437.872 296.419 435.816 295.601 433.765C291.7 423.341 288.233 412.741 284.269 402.336C281.363 395.017 278.305 387.709 276.25 380.094C276.231 380.013 276.199 379.914 276.187 379.832C276.166 379.658 276.068 379.506 275.93 379.41C275.644 376.053 275.337 372.698 274.776 369.374C273.202 360.502 270.079 352.021 268.478 343.144C266.595 333.656 267.358 323.831 265.512 314.36C265.512 314.357 265.512 314.357 265.511 314.352C265.413 312.538 265.174 308.783 265.204 306.967C265.238 306.101 265.295 305.237 265.353 304.373C265.401 303.653 265.459 302.925 265.428 302.203C265.415 301.882 265.142 301.622 264.819 301.633C264.5 301.644 264.236 301.922 264.249 302.243C264.275 303.113 264.197 303.899 264.141 304.823C264.036 306.091 264.008 307.363 264.024 308.633C263.66 307.479 263.283 306.332 262.928 305.177C262.685 304.534 262.604 303.782 262.205 303.215C261.844 302.839 261.18 303.169 261.207 303.664C262.131 306.638 263.17 309.6 263.936 312.626C265.761 320.102 265.512 327.856 266.254 335.472C266.662 340.094 267.443 344.685 268.58 349.184C270.213 356.142 272.484 362.894 273.68 369.976C274.193 373.099 274.474 376.249 274.751 379.397C275.197 384.972 275.86 390.528 276.311 396.105C276.619 399.474 276.902 402.846 277.263 406.209C276.637 406.481 276.001 406.71 275.337 406.88C273.52 407.401 271.778 408.148 269.969 408.697C266.826 409.684 263.566 410.259 260.306 410.752C254.312 411.639 248.321 412.563 242.263 412.887C228.603 414.051 214.951 415.369 201.251 415.948C190.315 416.369 179.38 416.812 168.443 417.161C164.398 417.257 160.445 417.281 156.388 416.963C153.951 416.794 151.516 416.449 149.183 415.704C149.097 415.588 148.524 415.376 148.145 415.287C146.773 409.687 145.845 403.98 145.541 398.24C145.445 393.173 145.895 388.111 146.561 383.092C147.137 378.528 147.756 374.081 148.772 369.56C150.531 362.521 151.054 355.151 150.298 347.9C149.881 344.277 149.26 340.678 148.683 337.08C148.035 333.184 147.128 329.316 147.058 325.349C146.793 318.62 146.255 311.686 148.295 305.163C148.291 305.171 148.287 305.176 148.283 305.182C148.593 304.575 147.821 304.045 147.332 304.513C146.954 305.113 146.896 305.865 146.687 306.538C146.331 307.954 146.096 309.399 145.92 310.848C145.012 308.508 144.059 306.116 143.105 303.79C143.076 303.691 143.019 303.595 143.019 303.493C143.009 303.105 142.603 302.828 142.239 302.954C141.586 303.177 141.873 303.939 142.082 304.398C143.09 306.831 144.043 309.267 145.001 311.723C145.185 312.192 145.357 312.644 145.549 313.131C145.607 313.26 145.647 313.405 145.704 313.539C145.527 316.923 145.672 320.321 145.809 323.707C145.907 325.693 145.939 327.688 146.21 329.66C147.203 335.741 148.393 341.797 149.118 347.921C149.861 354.944 149.392 362.066 147.704 368.93C146.783 373.004 146.135 377.135 145.607 381.278C144.792 387.39 144.103 393.567 144.434 399.741C144.873 405.864 146.058 411.914 147.58 417.854C148.184 420.057 148.824 422.251 149.532 424.423C149.489 424.519 149.471 424.626 149.489 424.736C149.644 430.722 149.33 436.722 148.661 442.68C148.232 446.543 147.808 450.417 146.866 454.196C146.598 455.382 146.304 456.561 145.938 457.724C145.731 458.391 145.507 459.052 145.267 459.709C144.354 459.795 143.436 459.786 142.521 459.781C141.518 459.778 140.566 459.766 139.574 459.735C139.515 459.723 139.455 459.723 139.394 459.728C139.26 459.723 139.128 459.72 138.994 459.715C134.18 459.518 129.367 459.169 124.541 459.398C123.343 459.462 122.146 459.547 120.955 459.669C120.295 459.736 119.632 459.8 118.979 459.907C118.958 459.909 118.936 459.912 118.915 459.915C118.799 459.473 118.678 459.034 118.546 458.597C118.023 456.868 117.432 455.162 116.838 453.456C115.106 448.507 113.462 443.523 112.052 438.475C110.811 433.907 109.924 429.234 109.038 424.582C105.111 403.86 104.688 382.695 104.774 361.662C104.583 348.382 105.439 335.091 107.802 321.996C109.141 314.137 111.279 306.311 113.563 298.66C115.589 292.12 117.904 285.657 121.183 279.622C122.887 276.441 124.763 273.331 126.935 270.448C128.922 267.9 131.171 265.57 133.51 263.347C137.788 259.376 142.443 255.816 147.137 252.353C150.705 249.718 154.382 247.328 158.405 245.385C160.698 244.187 163.593 243.089 165.768 241.162C165.98 241.991 166.456 242.763 166.816 243.531C167.525 244.852 168.325 246.122 169.17 247.36C170.647 249.631 172.603 251.525 174.623 253.309C176.634 255.165 178.795 256.877 181.256 258.098C187.768 261.455 196.171 262.107 203.412 262.125C210.505 261.984 217.955 261.721 224.367 258.351C227.645 256.442 230.641 254.09 233.677 251.805C234.563 251.111 235.454 250.412 236.254 249.619C237.206 248.616 237.965 247.547 238.814 246.394C239.644 245.235 240.489 244.073 241.104 242.782C241.718 241.52 242.153 240.183 242.522 238.831C242.535 238.782 242.539 238.734 242.538 238.686C242.646 238.716 242.755 238.745 242.861 238.775C244.171 239.211 245.309 239.752 246.566 240.405C250.309 242.416 253.852 244.772 257.516 246.922C261.943 249.633 265.97 252.93 269.692 256.541C272.426 259.097 274.93 261.833 277.487 264.573C279.141 266.321 280.75 268.107 282.307 269.94C284.257 272.184 285.912 274.657 287.633 277.072C289.309 279.421 290.958 281.79 292.45 284.259C296.134 290.475 299.503 296.952 302.15 303.694C306.73 315.43 310.324 327.513 313.327 339.739C316.783 352.677 319.944 365.783 321.6 379.098C321.947 382.563 322.306 386.11 322.664 389.609C323.393 397.899 324.588 406.195 324.414 414.537L324.413 414.525Z" fill="#010101"/>
<path d="M142.005 365.8C138.816 365.671 135.635 365.408 132.46 365.1C129.886 364.846 127.309 364.627 124.752 364.239C123.052 363.911 121.395 363.417 119.711 363.027C119.518 362.929 119.337 362.799 119.09 362.889C118.798 362.979 118.59 363.327 118.704 363.628C118.872 364.069 119.364 364.163 119.774 364.256C120.351 364.386 120.922 364.531 121.493 364.683C122.77 365.034 124.065 365.348 125.379 365.519C131.283 366.231 137.22 366.832 143.165 367.007C143.486 367.013 143.747 366.706 143.735 366.397C143.639 365.559 142.594 365.89 142.007 365.8L142.005 365.8Z" fill="#010101"/>
<path d="M142.897 371.106C140.047 371.978 137.181 372.81 134.312 373.63C133.968 373.728 133.626 373.822 133.281 373.912C132.9 374.014 132.306 374.115 132.277 374.616C132.259 374.935 132.474 375.229 132.805 375.262C136.289 374.331 139.783 373.274 143.25 372.23C143.556 372.135 143.732 371.796 143.637 371.49C143.542 371.182 143.206 371.01 142.897 371.103L142.897 371.106Z" fill="#010101"/>
<path d="M295.052 353.118C291.616 354.987 288.121 356.739 284.626 358.49C282.757 359.367 280.974 360.484 278.983 361.062C278.496 361.184 277.792 361.051 277.784 361.759C277.982 363.492 282.687 360.705 283.58 360.331C285.29 359.481 286.999 358.622 288.702 357.758C291.045 356.573 293.383 355.376 295.685 354.112C295.967 353.958 296.032 353.557 295.867 353.3C295.702 353.024 295.322 352.949 295.054 353.118L295.052 353.118Z" fill="#010101"/>
<path d="M285.571 368.447C284.642 368.502 283.711 368.537 282.779 368.556C281.732 368.601 280.677 368.566 279.637 368.574C279.331 368.664 279.149 369.011 279.248 369.314C279.427 369.856 280.089 369.741 280.538 369.765C281.231 369.77 281.923 369.752 282.617 369.739C283.614 369.717 284.613 369.682 285.611 369.624C285.931 369.606 286.192 369.34 286.181 369.015C286.17 368.698 285.891 368.427 285.571 368.445L285.571 368.447Z" fill="#010101"/>
<path d="M178.909 394.584C178.432 392.119 177.999 389.644 177.579 387.17C177.237 385.049 176.788 382.926 176.84 380.766C177.027 379.879 175.754 379.658 175.671 380.557C175.573 382.849 176.06 385.167 176.428 387.426C177.095 391.259 177.718 395.108 178.643 398.888C178.886 399.627 179.974 399.274 179.769 398.535C179.442 397.248 179.178 395.955 178.912 394.584L178.909 394.584Z" fill="#010101"/>
<path d="M182.173 390.571C181.449 390.159 181.13 390.945 181.164 391.557C181.115 392.714 181.107 393.875 181.094 395.032C181.082 396.177 181.077 397.324 181.091 398.468C181.095 398.79 181.385 399.048 181.701 399.038C182.026 399.027 182.274 398.75 182.271 398.429C182.258 397.356 182.255 396.279 182.271 395.205C182.289 393.993 182.287 392.847 182.34 391.623C182.35 391.256 182.556 390.835 182.173 390.571Z" fill="#010101"/>
<path d="M239.443 332.91C238.049 327.816 236.552 322.748 235.021 317.7C234.874 316.935 233.751 317.14 233.858 317.9C235.961 324.931 238.048 331.995 239.898 339.107C240.142 339.848 241.23 339.492 241.025 338.754C240.522 336.798 239.987 334.851 239.442 332.907L239.443 332.91Z" fill="#010101"/>
<path d="M245.533 338.441C245.033 335.852 244.52 333.263 244.016 330.675C243.973 329.995 242.924 329.928 242.844 330.659C242.836 330.886 242.899 331.106 242.94 331.327C243.908 336.234 244.843 341.147 245.839 346.049C245.995 346.815 247.12 346.605 247.001 345.849C246.502 343.381 246.006 340.916 245.533 338.444L245.533 338.441ZM244.017 330.782C244.019 330.744 244.018 330.71 244.016 330.675C244.017 330.687 244.019 330.698 244.02 330.712C244.018 330.736 244.019 330.758 244.017 330.782Z" fill="#010101"/>
<defs>
<clipPath id="clip0_56_1647">
<rect width="227.159" height="255.28" fill="white" transform="translate(0 51.0996) rotate(-13)"/>
</clipPath>
</defs>
</svg>
