<?xml version="1.0" encoding="UTF-8"?>
<svg id="Layer_2" data-name="Layer 2" xmlns="http://www.w3.org/2000/svg" viewBox="0 0 956.77 1194.76">
  <defs>
    <style>
      .cls-1 {
        fill: #eb6d80;
      }

      .cls-2 {
        fill: #010101;
      }
    </style>
  </defs>
  <g id="_ÎÓÈ_2" data-name="—ÎÓÈ_2">
    <g>
      <path class="cls-1" d="M943.17,802.6c2.18,63.99-4.83,127.69-8.18,191.42-.74,23.6-2.05,47.17-4.5,70.66-1.73,17.96-3.69,36.09-8.89,53.43-6.89,24.83-18.81,38.19-41.28,51.02-16.02,8.82-34.01,15.26-52.48,14.81-5.39-.35-9.57-3.87-12.91-7.82-3.76-4.16-7.05-8.69-9.94-13.49-23.77-39.67-32.15-85.77-46.9-129.06-10.3-32.14-24.45-63.01-32.62-95.8-6.13-23.71-6.99-48.3-11.32-72.32-1.36-5.56-1.48-11.87-6.46-15.19-2.68-3.07-12.62,5.8-15.81,7.31-9.11,5.78-18.68,10.8-28.55,15.14-7.7,3.43-15.99,5.83-24.48,5.21-14.46-1.05-28.52-5.19-42.67-8.12-25.35-5.25-49.98-13.6-75.27-19.02-21.87-4.52-44.03-7.48-66.24-9.71-26.52-3.07-52.7-4.62-79.29-3.3-23.58,1.47-46.36,8.37-69.83,10.83-22,3.32-44.19,1.11-66.25-.22-5.82-.95-10.02,2.66-13.17,7.19-9.24,14.17-8.72,31.94-10.63,48.16-2.05,23.24-5.12,46.4-9.38,69.34-3.47,17.04-7.55,33.96-11.59,50.87-5.2,20.11-10.24,40.33-17.63,59.77-9.2,23.25-21.05,45.48-34.78,66.36-7.37,10.69-17.16,20.35-29.54,24.67-10.95,4.53-23.1,3.99-34.66,2.77-17.19-1.86-36.55-1.85-49.92-14.35-5.63-5.68-8.37-13.49-11.14-20.83-7.91-21.91-11.6-45.11-13.75-68.23-3.68-35.63-3.47-71.51-2.41-107.27,3.17-98.28,19.28-195.69,38.94-291.88,10.99-48.69,21.65-97.47,32.57-146.18,20.6-84.13,42.4-168.04,69.64-250.31,8.09-25.4,15.26-51.24,26.06-75.66,9.2-19.14,20.52-37.19,31.3-55.46,6.25-10.44,13.54-20.19,21.48-29.4,11.4-13.69,24.43-25.89,38.37-36.96,17.5-14.32,35.15-29.13,55.72-38.84,26.75-10.59,55.56-15.29,84.01-18.38,23.52-2.62,47.16-4.4,70.83-4.67,16.11-.26,32.21-.83,48.3-1.73,10.54-.44,21.21-1.47,31.7,0,1.71-5.02,14.92,2.58,17.53,3.84,14.6,8.29,28.44,18.17,44.42,23.76,10.1,3.47,20.5,6.09,30.28,10.44,23.98,10.78,45.94,25.54,67.27,40.79,14.77,10.42,27.84,22.91,39.51,36.68,18.1,20.47,33.19,43.36,46.28,67.3,17.69,31.1,31.46,64.16,44.52,97.4,12.54,31.19,24.45,62.69,33.13,95.21,9.56,33.35,15.77,68.08,22.14,102.02,5.99,29.05,11.57,57.43,17.09,86.4,3.02,16,5.75,32.05,8.8,48.04,5.85,27.64,12.3,55.16,16.5,83.12,2.12,14.51,3.9,29.09,4.83,43.73.93,15.49.94,31.01,1.25,46.52Z"/>
      <g>
        <path class="cls-2" d="M955.63,1086.5c.49-12.73.61-25.48.48-38.22-.54-50.7-4.55-101.33-10.46-151.67-6.62-52.73-12.19-105.62-19.42-158.27-8.04-53.82-18.72-107.2-28.55-160.71-7.27-42.66-15.89-85.08-22.81-127.79-3.14-21.63-6.65-43.2-9.98-64.8-4.52-35.95-11.17-71.6-19.71-106.8-5.62-23.32-14.41-45.76-23.76-67.8-8.67-20.12-18.8-39.58-30.8-57.92-5.48-8.62-11.53-16.9-18.59-24.3-8.67-9.33-18.41-17.65-28.88-24.9-12.53-8.6-25.65-15.61-38.79-23.4-14.69-8.4-31.2-12.75-46.79-19.1-4.33-1.88-8.28-4.45-12.25-6.98-1.9-3.85-3.76-7.72-5.76-11.52-5.22-9.7-11.77-18.86-20.19-26.03-2.49-1.77-6.23-6.22-9.69-6.88-2.43-1.5-5.41-2.17-8.16-2.84-11.32-2.89-22.92-4.01-34.53-5.26-17.82-1.55-35.73-1.59-53.59-.8-17.59.39-35.18.82-52.72,2.27-23.22,1.81-46.45,3.63-69.61,6.15-10.36,1.32-21.09,1.93-30.81,6.04-1.98,1.49-2.52,1.71-3.26,2.44-1.29.85-2.58,1.71-3.84,2.6-7.83,5.53-15.67,10.94-22.62,17.58-6.76,6.45-12.32,13.74-20.03,19.19-5.22,3.69-11.36,6.29-17.03,9.28-6.05,3.19-12.1,6.42-17.93,10.01-11.16,6.85-21.71,14.72-31.63,23.26-19.38,17.48-37.23,37.26-49.92,60.18-16.26,29.24-24.04,62.08-33.16,94.02-22.25,77.17-41.74,155.2-55.74,234.31-12.6,67.57-24.48,135.25-38.26,202.59-18.15,95.68-36.77,191.75-43.66,289.02-1.03,21.37-1.87,42.74-1.06,64.14.66,14.57,2.41,29.05,4.31,43.5,1.35,10.28,2.04,20.64,3.38,30.93,1.34,10.29,3.71,20.41,6.02,30.52.41,1.78.82,3.56,1.23,5.33,2.78,10.58,5.64,22.14,13.68,30.06,4.01,3.71,9.53,4.43,14.74,4.94,6.6,1.27,13.82,1.11,20.62,1.34,14.68,1.25,29.19,4.31,43.97,4.5,12.74,1.47,23.89-32.44,29.02-42.31,1.92-4.7,4.6-14.75,7.47-19.1,3.02-4.05,5.49-8.56,7.95-12.96,6.37-11.5,11.88-23.44,17.21-35.44,14.66-32.49,27.41-66.12,32.58-101.55,3.35-18.17,4.81-36.59,5.21-55.05,1.21-35.05.63-70.14-1.8-105.12.4,1.89.81,3.78,1.22,5.66,2.06,9.82,4.44,19.59,7.73,29.08,3.76,10.81,8.27,25.02,21.17,27.23,8.15,1.1,16.32-1.08,24.19-3.08,10.38-2.93,20.6-6.95,30.94-10.14,13.31-3.64,27.08-4.98,40.63-7.45,5.18-.93,10.44-1.81,15.32-3.84,2.72-1.12,5.25-2.68,8.06-3.59,2.76-.45,5.42,1.14,8.1,1.68,1.76.48,3.54.91,5.32,1.3,18.75,4.51,38,4.27,57.16,2.58,12.9-1.38,25.91-2.49,38.83-.66,8.06.89,15.98,3.05,22.94,7.28,17.01,10.42,20.04,11.53,40.1,12.56,17.01,1.04,34.05.79,51.08,1.13,22.4.74,44.8-.21,67.2-.62,8.52-.08,17.07-.07,25.54.96,5.27.62,10.47,1.7,15.76,2.12,12.89.48,15.09-10.31,18.63-20.15,1.54-4.44,2.97-8.92,4.41-13.39,7.12-21.49,14.69-42.95,18.66-65.31.82-4.94,1.5-9.9,2.09-14.86.11,6.94.27,13.88.52,20.81,2.42,60.99,11.77,121.48,22.86,181.42,10.04,47.79,16.15,96.95,34.39,142.55.1,1.44,5.17,6.22,7.98,5.82,7.53,12.56,23.28,63.5,37.22,64.49,19.19-.84,37.5-8.32,56.4-11.42,6.25-1.18,12.61-1.74,18.85-3.01,2.91-.67,6.02-1.51,8.08-3.81,2.13-3.05,3.05-6.84,4.46-10.27,1.93-5.21,3.7-10.48,5.26-15.81,3.48-11.09,4.84-22.67,6.34-34.15.53-4.4,1.16-9.14,1.5-13.65,0-2.38.64-6.24-1.03-8.12ZM363.08,19.8c9.07-3.64,19.05-4.12,28.65-5.4,17.34-1.88,34.72-3.39,52.11-4.75,23.37-2.1,46.8-3.31,70.26-3.65,14.74-.62,29.5-.75,44.23.22,15.03,1.05,30.16,2.54,44.79,6.45,5.67,1.58,6.95,3.27,2.32,7.65-5.05,5.25-11.67,8.55-18.26,11.45-11.64,5.27-23.42,9.04-36.16,11.45-16.41,3.21-33.09,5.51-49.82,5.83-17.32-.28-34.59-1.99-51.87-3.17-23.93-1.37-47.69-6.02-69.72-15.68-6.02-2.66-12.77-4.65-17.28-9.7.28-.21.53-.45.75-.7ZM322.02,54.31c6.42-6.87,12.79-13.8,20.18-19.66,5.04-3.87,10.28-7.47,15.51-11.07,2.96,3.71,7.15,6.24,11.43,8.15,5.88,2.56,11.73,5.03,17.76,7.29,14.59,5.47,29.8,9.11,45.29,10.81,17.37,1.85,34.8,2.9,52.23,4.05,17.2,1.47,34.48.25,51.5-2.46,18.08-2.59,36.02-6.56,52.69-14.28,7.34-3.15,14.95-6.95,20.61-12.83,1.7-1.55,3.35-3.59,4.15-5.79,13.22,9.97,21.06,25.2,28.11,39.97-1.6,1.24-3.1,2.62-4.17,3.19-4.38,3.14-8.7,6.37-13.21,9.33-37.54,24.96-83.73,31.85-128,32.19-18.62.05-37.27-.73-55.79-2.73-8.95-1.21-17.8-3.04-26.71-4.48-25.44-4.15-51.03-9.43-74.56-20.24-5.19-2.28-10.37-4.66-14.95-8.03-2.72-2.29-6.94-3.98-8.2-7.49.02.04,5.64-5.42,6.12-5.94ZM154.05,1147.03c-4.72,10.24-7.66,21.17-13.12,31.06-2.34,4-5.08,8.22-8.9,10.97-12.94.39-25.78-2.18-38.67-3.68-5.09-.7-10.4-.94-15.57-.83-5.96-.16-12.27-1.13-18.28-2.11-9.28-2.33-13.06-15.85-15.54-23.99-2.45-9-4.47-18.32-6.24-27.54-.06-.6-.16-1.12-.29-1.47-.11-.57-.23-1.15-.33-1.72-.14-.8-.27-1.53-.39-2.22,7.82,3.86,20.84,5.4,28.67,7.73,12.11,3.29,24.76,3.55,37.21,4.19,16.74.73,33.58,1.14,50.09,4.25,1.09.21,2.22.27,3.33.16-.5,1.65-1.13,3.17-1.96,5.21ZM815.79,1114.68s-.02-.07-.03-.1c-7.06-17.14-11.95-34.93-16.33-52.95-4.76-20.41-8.39-41.05-12.49-61.6-10.42-51.6-19.22-103.56-24.41-155.96-5.15-44.92-4.3-89.9-4.59-135.09.47-10.01-.09-17.25-.33-28.13-.39-26.03-.88-52.08-.69-78.12-.3-68.35,6.73-136.64,3.91-205-1.33-20.84-2.77-41.67-3.66-62.54-.12-4.58-.81-9.22-.44-13.78-.12-1.5-1.47-2.66-2.97-2.54-2.49.17-2.95,2.98-2.68,4.97.05,1.75.16,3.5.25,5.25,1.02,21.15,2.14,42.29,3.67,63.4,3.07,58.58-1.8,117.29-3.24,175.87-.55,27.57-.42,55.15-.08,82.72,0,0,0,0,0,0,0,0,0,0,0,0,.19,16.08.45,32.16.68,48.25-.53,13.56-1.42,26.98-2.13,39.03-1.2,17.31-2.54,34.48-5.78,51.62-3.6,17.89-9.29,35.32-15.17,52.59-3.36,10.05-6.34,20.25-10.29,30.1-.64,1.45-1.22,2.93-2.15,4.22-1.42,1.77-3.67,2.55-5.85,2.93-6.77.02-13.72-2.01-20.53-2.42-19.69-1.51-39.46-.07-59.17.25-20.64.07-41.52-.45-62.21-.64-1.7-.04-3.39-.08-5.09-.13,4.09-1.09,8.26-1.87,12.71-2.51,11.11-1.81,23.45-1.53,32.77-8.86,7.24-5.29,11.81-13.16,14.89-21.45,4.43-11.38,7.69-23.15,9.79-35.18,4.73-23.96,8.55-48.09,12.85-72.13,6.51-36.26,13.88-72.39,22.59-108.19.36-1.46-.75-2.96-2.18-3.24-1.53-.3-2.88.72-3.24,2.18-13.05,52.98-22.45,106.75-31.73,160.49-3.37,18.34-6.25,36.93-13.32,54.3-3.08,8.31-7.98,16.31-15.93,20.72-4.73,3.02-10.2,3.47-15.65,4.32-8.72,1.24-17.55,2.07-26.05,4.48-2.64.8-5.25,1.72-7.89,2.51-1.51.31-3.54.81-4.57,1.92-4.55-.28-9.09-.66-13.61-1.2-2.48-.36-4.95-.78-7.27-1.76-7.24-3.1-13.63-7.81-20.68-11.28-4.51-2.29-9.38-3.66-14.34-4.57.39-5.2,1.03-10.3,1.7-15.5,1.36-10.77,2.93-22.12,2.84-33.08-.07-10.56-.42-21.33-.51-31.95,0,.04,0,.08,0,.12,0,0,0,.01,0,.02-.72-41.3,1.27-82.66,5.09-123.79,1.28-16.89,2.54-33.77,4.82-50.55,1.82-14.17,3.71-29.19,5.98-43.58.23-1.48-.66-2.94-2.18-3.24-4.25-.46-3.37,5.1-4.12,7.85-1.87,12.84-3.6,25.68-5.19,38.56,0-.05.01-.09.02-.15-2.23,16.14-3.46,32.47-4.69,48.74-3.86,41.92-6.02,83.99-5.25,126.11,0-.01,0-.03,0-.04v-.12c.07,8.85.27,17.75.45,26.61v-.03c0-.11,0-.23,0-.34.53,14.36-1.53,28.65-3.34,42.88-.44,3.36-.84,7.05-1.12,10.64-.92-.12-1.83-.23-2.74-.33-13.93-1.88-27.89-.02-41.78,1.22-11.38.7-22.87,1.24-34.25.09-.74-6.69-1.81-17.28-1.89-23.2.56-37.72,2.54-75.37,1.88-113.15.05-15.25.88-30.6-1.1-45.77-4.35-31.54-13.11-62.2-17.48-93.77-2.56-20.18-3.13-40.56-5.82-60.73-2.54-18.91-6.04-38.19-7.71-57.32-2.14-23.08-4.26-46.17-6.23-69.26-.13-1.5-1.46-2.65-2.97-2.54-1.49.12-2.66,1.48-2.53,2.97,1.91,22.43,3.96,44.85,6.04,67.26,2.76,30.56,9.26,60.64,11.03,91.37,1.76,35.43,10.47,69.99,17.31,104.69,4.33,19.79,4.48,40.15,3.96,60.38.2,26.97-.12,53.97-1.03,80.98-.53,17-1.61,34.05-.13,51.04.18,2.07.36,4.15.51,6.23-5.39-.83-10.76-1.88-16.04-3.26-3.24-.77-6.5-2.42-9.9-1.99-1.31.26-2.57.69-3.8,1.19-1.39-2.72-2.88-5.49-3.4-8.58-2.27-12.22-2.78-24.73-3.82-37.11-1.22-32.09-.21-64.48-5.01-96.37-2.74-18.07-7.75-35.7-11.27-53.63-4.81-24.32-7.23-48.56-10.6-73.31-.48-3.78-5.74-2.99-5.51.44.73,5.88,1.5,11.75,2.27,17.62,2.53,18.5,4.52,36.98,8.23,55.43,3.22,16.48,7.69,32.71,10.59,49.26,2.82,16.57,3.93,33.39,4.62,50.17.81,20.93.02,41.93,2.11,62.87,1.49,11.86.69,24.73,6.71,35.44.02.04.04.08.06.12-1.64.77-3.31,1.48-5.07,1.91-16.09,3.95-32.78,4.94-48.85,9.01-13.76,2.96-51.56,21.74-62.06,10.3-5.73-5.87-8.53-14.84-10.97-22.45-3.33-10.38-5.77-21.03-7.94-31.7-1.32-6.47-2.51-12.97-3.64-19.48-.99-5.68-1.73-11.4-2.5-17.11-.61-4.54-1.69-8.95-2.04-13.5-1.64-21.18-2.53-42.42-3.51-63.65-1.49-32.33-2.68-64.68-3.44-97.05-.11-4.53-.2-9.06-.29-13.59-.48-54.43,1.65-108.86,6.9-163.05,3.8-36.3,5.59-72.75,4.97-109.25.08-11.17-.1-22.06-.13-33.29-.17-2.61,1.2-6.35-2.48-6.87-1.53-.09-2.79,1.1-2.91,2.6-.33,5.66-.02,11.34-.02,17-.05,26.02.54,52.07-.87,78.07-3.59,54.77-10.32,109.36-10.65,164.32-1.54,92.2,4.41,184.35,9.76,276.35,3.04,43.79,3.36,87.82.42,131.63-2.11,20.14-5.62,40.18-10.49,59.83-4.37,15.47-9.79,30.62-15.95,45.47-6.73,16.15-13.69,32.23-21.56,47.86-4.08,7.68-7.75,15.29-13.03,22.35-1.89,1.99-3.58,5.17-6.44,5.69l-.02-.03c-25.27-4.63-51.07-3.49-76.55-6.17-6.1-.69-11.79-2.28-17.73-3.95-4.23-.99-8.55-1.69-12.57-3.42-1.6-.67-10.11-2.54-12.72-3.52-.4-2.19-.7-4.12-.92-6.72-1.48-17.15-3.87-34.11-5.57-50.06-6.72-80.74,7.44-161.55,19.5-241.19,11.17-67.4,24.37-134.45,37.93-201.4,10.38-56.42,20.35-112.93,31.16-169.27,13.6-68.64,31.45-136.32,50.64-203.58,17.21-61.73,27.24-95.52,76.14-140.85,14.74-13.37,30.95-24.56,48.67-33.76,7.55-4,11.8-5.98,17.94-9.44,2.41,5.14,8.57,7.99,12.99,11.32,25,14.18,53.23,20.94,81.42,25.86,10.22,1.64,20.38,3.59,30.6,5.23,17.51,2.26,35.2,3,52.85,3.26,41.98.26,85.44-4.52,123.13-24.2,11.73-6.07,22.37-13.84,33.02-21.58.46-.22,1.06-.77,1.63-1.44,1.43.81,2.23,1.26,5.15,2.69,7.85,3.95,16.37,6.32,24.55,9.46,4.27,1.58,8.51,3.22,12.74,4.92,11.04,4.62,21.02,11.3,31.42,17.16,20.5,11.38,39.9,26.16,54.71,44.58,11.85,15.55,21.93,32.61,30.77,50.06,12.79,26.18,23.73,53.35,31.84,81.35,2.95,11.53,5.54,23.15,8.1,34.78,8.77,39.64,13.18,80.03,19.83,120.05,5.86,42.69,14.71,84.88,22.03,127.32,11.19,63.98,24.53,127.58,33.91,191.88,3.71,25.87,6.18,51.89,9.42,77.82,5.28,42.57,10.96,85.11,14.46,127.88,3.02,31.83,4.48,63.8,4.96,95.76.16,13.41.03,26.89-.52,40.38-1.07,1.11-2.19,2.17-3.41,3.11-9.83,7.18-21.6,11.01-32.89,15.26-12.32,4.27-24.76,6.38-37.87,7.48-18.18,1.14-36.52-.27-54.56,2.84-2.14-.59-4-1.18-5.55-1.58ZM949.69,1107.65c-.95,7.18-1.91,14.43-3.21,21.58-2.69,12.23-6.61,24.29-11.62,35.74-2.83,2.07-6.64,2.15-9.98,2.83-4.72.67-9.44,1.33-14.13,2.17-18.21,3.02-35.72,9.99-54.22,11.27-10.19-2.24-26.14-49-32.14-59.84,21.67-3.37,43.76-.4,65.41-4.05,12.79-1.65,25.11-5.64,37.05-10.43,8.5-3.37,17.14-6.95,24.3-12.76-.33,4.59-.93,9.17-1.48,13.74.01-.09.02-.17.04-.26Z"/>
        <path class="cls-2" d="M51.14,1058.56c-.68-5.85-1-11.74-.98-17.63.01-3.55-5.51-3.56-5.52,0-.06,21.39,4.47,42.63,13.08,62.2,2.41,5.47,5.15,10.78,8.19,15.92,1.81,3.06,6.58.28,4.77-2.79-10.41-17.59-17.17-37.38-19.53-57.7Z"/>
        <path class="cls-2" d="M71.79,1073.3c-1.34,0-2.96,1.27-2.76,2.76,1.56,11.69,3.13,23.39,4.69,35.08.2,1.48,1.13,2.76,2.76,2.76,1.34,0,2.96-1.27,2.76-2.76-1.56-11.69-3.13-23.39-4.69-35.08-.2-1.48-1.13-2.76-2.76-2.76Z"/>
        <path class="cls-2" d="M180.44,1040.58c-1.54-.42-2.88.52-3.4,1.93-7.13,19.49-15.72,38.43-25.67,56.64-2.83,5.19-5.78,10.31-8.83,15.38-1.84,3.05,2.94,5.83,4.77,2.79,10.91-18.12,20.42-37.04,28.52-56.58,2.3-5.54,4.47-11.13,6.53-16.76.51-1.4-.57-3.02-1.93-3.4Z"/>
        <path class="cls-2" d="M820.81,1044.93c-1.03-3.39-6.36-1.95-5.33,1.47,5.36,17.66,13.5,34.44,24.11,49.54.86,1.22,2.41,1.79,3.78.99,1.21-.71,1.85-2.55.99-3.78-10.35-14.73-18.32-31-23.55-48.22Z"/>
        <path class="cls-2" d="M846.36,1065.3c-.61-1.36-2.59-1.68-3.78-.99-1.4.82-1.6,2.41-.99,3.78,4.11,9.26,8.22,18.52,12.34,27.78.61,1.36,2.59,1.68,3.78.99,1.4-.82,1.6-2.41.99-3.78-4.11-9.26-8.22-18.52-12.34-27.78Z"/>
        <path class="cls-2" d="M918.16,1083.35c1.34.37,3.13-.45,3.4-1.93,3.74-20.63,7.47-41.26,11.21-61.89,1.06-5.86,2.12-11.71,3.18-17.57.27-1.47-.4-2.98-1.93-3.4-1.34-.37-3.13.45-3.4,1.93-3.74,20.63-7.47,41.26-11.21,61.89-1.06,5.86-2.12,11.71-3.18,17.57-.27,1.47.4,2.98,1.93,3.4Z"/>
        <path class="cls-2" d="M328.66,664.04c-1.51.42-2.24,1.93-1.93,3.4,4.09,19.45,8.17,38.9,12.26,58.36.31,1.46,2.02,2.31,3.4,1.93,1.51-.42,2.24-1.93,1.93-3.4-4.09-19.45-8.18-38.9-12.26-58.36-.31-1.46-2.02-2.31-3.4-1.93Z"/>
        <path class="cls-2" d="M531.91,559.17c-1.37-.38-3.09.46-3.4,1.93-3.37,16.32-6.73,32.64-10.1,48.97-.3,1.46.42,2.98,1.93,3.4,1.37.38,3.09-.46,3.4-1.93,3.37-16.32,6.73-32.64,10.1-48.97.3-1.46-.42-2.98-1.93-3.4Z"/>
        <path class="cls-2" d="M649.35,783.68c-1.53-.42-2.9.52-3.4,1.93-7.48,21.21-10.66,43.96-9.28,66.41.39,6.41,1.17,12.8,2.27,19.13.26,1.47,2.06,2.3,3.4,1.93,1.55-.43,2.19-1.92,1.93-3.4-3.74-21.43-3.09-43.63,1.82-64.82,1.4-6.02,3.13-11.95,5.19-17.78.5-1.41-.56-3.02-1.93-3.4Z"/>
        <path class="cls-2" d="M234.96,692.44c.96,19.48,1.93,38.97,2.89,58.45.17,3.54,5.7,3.56,5.52,0-.96-19.48-1.93-38.97-2.89-58.45-.17-3.54-5.7-3.56-5.52,0Z"/>
        <path class="cls-2" d="M729.24,430.44c-.27,20.1-1.99,40.17-5.22,60.01-.24,1.47.38,2.97,1.93,3.4,1.32.36,3.16-.45,3.4-1.93,3.31-20.33,5.14-40.88,5.42-61.48.05-3.55-5.48-3.56-5.52,0Z"/>
      </g>
    </g>
  </g>
</svg>