<svg width="54" height="52" viewBox="0 0 54 52" fill="none" xmlns="http://www.w3.org/2000/svg">
<path d="M42.6703 30.4493C44.5784 33.7777 46.1296 37.2983 47.2981 40.9525C47.3533 41.1245 47.4546 41.2781 47.5911 41.3964C47.7275 41.5147 47.8939 41.5933 48.0719 41.6236C48.25 41.6539 48.4329 41.6346 48.6008 41.5681C48.7687 41.5015 48.9151 41.39 49.024 41.2459C51.5499 37.7484 53.1473 33.6672 53.6666 29.3842C53.6835 29.2426 53.6695 29.0989 53.6254 28.9633C53.5814 28.8276 53.5085 28.703 53.4117 28.5983C53.3149 28.4935 53.1965 28.411 53.0647 28.3564C52.933 28.3018 52.7909 28.2765 52.6484 28.2821C49.2212 28.4157 45.8441 29.1493 42.6703 30.4493ZM48.9328 13.7452C43.5095 14.3488 38.2438 15.9469 33.3998 18.4594C31.6499 16.7371 29.7885 15.1318 27.8277 13.654C33.0957 10.5402 38.8821 8.402 44.909 7.3422C45.0591 7.31533 45.2133 7.32362 45.3596 7.3664C45.5059 7.40918 45.6403 7.48529 45.7522 7.58875C47.2293 8.97863 48.5384 10.5368 49.6527 12.2314C49.7436 12.3725 49.7969 12.5345 49.8076 12.7021C49.8183 12.8696 49.7861 13.0371 49.714 13.1886C49.6419 13.3402 49.5323 13.4709 49.3956 13.5683C49.2589 13.6657 49.0996 13.7266 48.9328 13.7452ZM0.7116 49.3009C0.844511 48.9122 1.09675 48.5754 1.43234 48.3386C1.76794 48.1017 2.16975 47.9769 2.58049 47.9818H14.5729C11.5784 46.0949 9.00589 43.6099 7.01653 40.6825C5.02716 37.7551 3.66383 34.4484 3.01196 30.9695C2.97931 30.7989 2.99233 30.6227 3.04968 30.4587C3.10703 30.2947 3.20668 30.1488 3.33855 30.0356C3.47043 29.9225 3.62984 29.8463 3.80065 29.8146C3.97147 29.7829 4.14763 29.7969 4.3113 29.8551C8.51989 31.3151 12.3467 33.7019 15.5089 36.8394C18.6712 39.9769 21.088 43.7848 22.581 47.9818H26.7429C25.062 42.5617 22.0383 37.6543 17.9528 33.7158C13.8673 29.7773 8.85247 26.9354 3.37439 25.4541C3.15457 25.3931 2.96268 25.2578 2.8314 25.0713C2.70013 24.8847 2.6376 24.6584 2.65445 24.4309C2.77561 22.7156 3.07137 21.0171 3.53712 19.3617C3.60634 19.1109 3.77191 18.8975 3.99775 18.7682C4.22359 18.6389 4.49138 18.6041 4.74277 18.6714C12.1562 20.5928 18.8742 24.5734 24.12 30.153C29.3658 35.7326 32.9251 42.6831 34.3861 50.2008C34.4365 50.4546 34.3852 50.7181 34.2431 50.9345C34.101 51.1508 33.8796 51.3026 33.6267 51.3572C31.8504 51.7379 30.0388 51.9288 28.2222 51.9267H2.58049C2.26464 51.9279 1.95312 51.8533 1.67212 51.7091C1.39111 51.5649 1.14885 51.3553 0.965702 51.098C0.782555 50.8407 0.66388 50.5432 0.619661 50.2304C0.575443 49.9177 0.606974 49.5989 0.7116 49.3009ZM52.7347 24.3323C48.5405 24.4578 44.4083 25.3781 40.5573 27.0444C39.2359 25.0899 37.7906 23.2221 36.2303 21.4525C41.0277 19.1325 46.2358 17.7819 51.5561 17.4781C51.7721 17.4673 51.9856 17.5279 52.1638 17.6504C52.342 17.7729 52.475 17.9506 52.5423 18.1561C53.096 19.8063 53.4785 21.5091 53.6839 23.2376C53.6989 23.3726 53.6859 23.5094 53.6456 23.6391C53.6053 23.7689 53.5386 23.889 53.4497 23.9918C53.3608 24.0946 53.2516 24.1779 53.129 24.2365C53.0063 24.2951 52.8729 24.3277 52.7371 24.3323H52.7347ZM38.6169 4.75091C33.5528 6.20058 28.7234 8.37112 24.2773 11.1958C21.2555 9.26902 18.0513 7.6446 14.711 6.34612C14.5424 6.27949 14.3955 6.1677 14.2863 6.02301C14.1771 5.87833 14.1099 5.70635 14.0921 5.52597C14.0742 5.34559 14.1064 5.16379 14.1852 5.00053C14.2639 4.83726 14.3861 4.69886 14.5384 4.60051C18.1196 2.3385 22.206 1.00017 26.4314 0.70542C30.6569 0.410669 34.8895 1.1687 38.7501 2.91161C38.9315 2.99593 39.0831 3.13345 39.1845 3.30591C39.286 3.47837 39.3326 3.67762 39.3181 3.8772C39.3037 4.07677 39.2289 4.26723 39.1036 4.42328C38.9784 4.57934 38.8086 4.6936 38.6169 4.75091ZM6.52536 15.0692C6.37964 15.0293 6.24503 14.9564 6.13194 14.8562C6.01885 14.756 5.93029 14.6312 5.87311 14.4913C5.81593 14.3514 5.79165 14.2003 5.80214 14.0496C5.81264 13.8988 5.85762 13.7525 5.93363 13.6219C6.83098 12.0519 7.89037 10.5801 9.09446 9.23081C9.22029 9.08638 9.38546 8.98172 9.56979 8.92962C9.75412 8.87752 9.94964 8.88022 10.1325 8.93741C18.481 11.5931 26.0137 16.3352 32.0178 22.715C38.0218 29.0948 42.2985 36.9013 44.443 45.3955C44.4891 45.5813 44.4801 45.7766 44.417 45.9574C44.354 46.1382 44.2396 46.2968 44.088 46.4137C42.6693 47.5351 41.1363 48.5036 39.5144 49.3034C39.3795 49.3711 39.2308 49.407 39.0799 49.4083C38.9289 49.4096 38.7797 49.3762 38.6437 49.3107C38.5077 49.2452 38.3885 49.1493 38.2954 49.0305C38.2023 48.9117 38.1377 48.7731 38.1066 48.6253C36.4033 40.6838 32.5604 33.3593 26.9939 27.4447C21.4273 21.53 14.3491 17.2505 6.52536 15.0692Z" fill="#119822"/>
</svg>
