<?xml version="1.0" encoding="UTF-8"?>
<svg id="Layer_2" data-name="Layer 2" xmlns="http://www.w3.org/2000/svg" viewBox="0 0 925.4 1039.49">
  <defs>
    <style>
      .cls-1 {
        fill: #010101;
      }

      .cls-2 {
        fill: #f4a221;
      }
    </style>
  </defs>
  <g id="_ÎÓÈ_2" data-name="—ÎÓÈ_2">
    <g>
      <path class="cls-2" d="M919.28,925.89c-.94,20.43-2.35,41.45-11.66,60.14-3.97,9.56-10.68,17.92-19.64,23.68-9.18,6.22-20.78,8.5-31.93,8.61-7.29-.2-14.44-2.02-21.44-3.92-5.54-1.66-11.12-3.43-16.19-6.21-5.21-3.04-10.21-6.56-14.55-10.67-4.7-4.79-7.54-10.98-10-17.02-4.24-13.17-4.61-27.06-5.64-40.68-1.8-20.63-3.99-40.73-8.27-60.94-.51-1.64-.93-3.69-2.54-4.7-2.39-1.3-4.82-1.61-7.32-1.13-6.17,1.81-11.95,4.63-17.96,6.84-54.43,20.11-113.42,26.18-171.38,29.86-50.04,2.28-100.21,4.68-150.34,2.84-17.01-.86-33.97-2.32-50.97-3.44-51.1-3-101.81-9.68-152.17-18.53-3.1-.28-6.2-.56-9.3-.29-.92.13-1.97.1-2.61.82-1.34,1.68-1.7,3.47-2.38,5.35-10.87,40.1-12.81,85-41.06,118.4-6.18,7.55-12.85,15.03-21.68,19.84-5.2,3.11-11.12,5.48-17.41,4.51-16.12-1.93-33.07-5.67-45.88-15.81-9.81-8.9-16.06-20.67-22.27-31.97-24.2-44.79-28.68-95.75-32.51-145.08-2.91-41.83-4.15-83.84-.58-125.62,7.12-85.78,17.15-171.3,26.62-256.84,6.8-54.07,15.59-108.11,32.81-160.08,6.76-20.42,15.5-40.18,24.73-59.66,12.92-26.47,28.05-52.1,46.22-75.59,8.41-10.39,18.17-19.69,27.79-29.05,11.99-11.73,24.92-22.53,38.68-32.32,18.19-12.8,36.5-25.64,56.47-35.84,14.46-7.05,29.89-12.2,45.37-16.84,10.42-3.06,21-5.71,31.77-7.38,22.72-3.15,45.56-6.24,68.55-6.74,6.38.17,28.13-1.47,29.14,3.62,7.57.02,15.18.34,22.66,1.6,22.86,4.82,44.71,13.31,66.8,20.61,22.04,7.51,43.93,15.72,64.39,26.67,15.7,8.74,30.11,19.5,43.36,31.36,20.1,18.2,40.57,36.25,58.36,56.57,24.15,27.95,46.91,57.03,68.02,87.13,18.69,26.18,36.03,53.4,49.45,82.41,20.12,44.68,36.27,90.94,49.92,137.74,4.07,14.04,7.56,28.25,9.51,42.7,2.76,20.04,4.67,40.06,8.34,59.95,10.18,58.5,21.23,117.21,22.77,176.57,1.05,27.42-2.99,54.63-3.36,82.02-.51,25.5.4,51.03-.73,76.51Z"/>
      <g>
        <path class="cls-1" d="M923.84,763.28c.63-24.22,1.17-48.05,1.55-72.44-.76-56.04-7.19-111.85-14.99-167.3-6.74-56.13-16.47-112-31.4-166.56-6.86-23.36-15.47-46.21-24.91-68.65-5.49-12.65-11.76-24.93-18.36-37.03-6.77-12.49-13.22-25.19-21.29-36.91-13.7-20.1-27.91-39.9-43.18-58.83-10.34-12.71-21.17-25.06-33.23-36.17-11.31-10.38-23.65-19.53-35.67-29.04-5.25-4.32-10.52-8.61-16.03-12.58-4.47-3.31-9.04-6.52-13.82-9.37-3.13-1.79-6.33-3.78-9.75-5.02,0,0,0,0,0,0-3.7-8.73-8.99-12.9-14.45-19.67-4.88-5.92-10.14-11.54-15.49-17.03-4.98-4.95-11.13-8.49-17.34-11.67-1.02-.79-2.25-.6-3.07.08-8.82-.07-17.58,1.36-26.39,1.72-13.03.73-26.13.15-39.03-1.86-16.39-2.63-32.69-7.31-49.3-8.91-10.53-1.36-21.18-.78-31.76-.47-10.34.21-20.69.48-31.03.31-8.83.03-17.55-1.45-26.14-3.42-3.64-.89-7.34-1.47-10.99-2.29-.47-.11-1.02-.15-1.55-.1-1-.26-2.05.21-3.01.59-4.87,1.99-9.61,4.27-14.37,6.52-13.93,6.78-27.69,14.25-39.69,24.13-.18.15-.32.33-.45.51-1.87.78-5.97,3.92-6.89,4.45-2.69,1.54-5.45,2.95-8.25,4.28-5.61,2.66-11.39,4.94-17.19,7.13-11.37,4.28-23.16,8.19-33.87,13.79-36.12,18.88-72,39.28-103.15,65.76-14.15,11.95-25.98,26.33-37,41.15-23.08,31.29-39.96,66.5-54.88,102.25-24.74,57.65-42.27,118.39-52.86,180.25-5.88,37.48-10.03,75.2-14.59,112.85-10.26,87.77-14.22,176.64-4.09,264.64,2.64,22.01,7.04,43.77,11.49,65.47,1.76,8.34,3.68,16.66,5.31,25.02,4.61,26.3,7.22,54.41,13.69,80.13.06,2.11,1.97,4.88,2.79,6.41,3.09,4.73,7.72,8.27,13.13,9.92,2.39.93,4.95.76,7.46.56,6.31-.39,12.64-.02,18.92.67,9.13,1.1,18.21,2.91,27.45,2.81,5.17-.03,10.57.18,15.47-1.74,2.72-1.14,3.6-4.23,4.47-6.79.75-2.2,1.46-4.41,2.17-6.62,3.25-9.72,5.95-19.31,8.84-29.24,2.61-8.63,4.15-19.29,7.23-27.77.51-.53.74-1.06.77-1.55,2.87-5.67,5.47-11.5,7.71-17.44,5.8-14.85,10.15-30.18,13.72-45.7,5.65-22.9,10.13-45.88,13.03-69.29,2.31,9.83,5.04,19.57,8.36,29.14.03.32.15.65.38.99.02.04.05.08.07.12h0c.11.17.24.33.38.46,7.78,9.72,20.63,19.21,31.64,24.53,4.43,2.23,8.93,4.42,13.74,5.66,9.93,2.38,20.13,3.56,30.26,4.81,121.85,9.14,243.95,19.32,366.24,15.88,16.79-.44,33.58-1.18,50.23-3.46,7.94-1.12,16.03-2.13,23.58-4.95,2.69-1.27,15.82-4.91,15.75-10.41t0,0c1.07-2.41,2.13-4.83,2.93-7.36,4.08-12.83,3.47-26.69,3.15-40.15-.47-13.25-.87-26.5-.63-39.76.83-30.19,1.91-60.28,2.62-90.46.97,4.74,2.01,9.47,3.04,14.19,5.99,28.51,14.48,56.37,20.96,84.8,4.95,22.03,9.92,44.06,14.87,66.09,5.9,26.76,10.99,53.86,20.12,79.76.08.21.17.4.28.56.47,3.14,1.26,6.61,1.65,9.46,1.26,10.16,4.61,19.85,8.18,29.46,2.87,7.69,10.4,27.26,18.9,29.01,13.29.77,26.44-.98,39.65-3.27,10.18-1.93,20-4.21,29.71-8.19,4.09-1.75,8.97-3.29,11.52-7.16.7-1.27.75-2.78.87-4.19,1.23-14.71,3.16-29.34,4.48-44.05.14-4.07,2.31-18.51,2.71-24.47,2.03-12.77,4.19-25.52,6.81-38.19,3.11-15,6.64-29.96,8.28-45.22,2.74-24.43,2.85-49.04,3.55-73.58ZM639.47,41.08c6.29,6.93,12.16,13.91,15.8,22.42.2,1.18.63,2.57,1.24,3.25.04.12.09.23.13.35-1.92,4.67-3.98,9.13-6.65,13.53-2.44,4.03-5.46,7.65-8.6,11.14-.04-.06-.08-.13-.13-.19-2.6-2.9-5.09-5.9-7.48-8.98-9.24-11.49-17.54-23.91-28.55-33.83.7-.91,1.38-1.83,2.04-2.76,0,0,0,0,0,0,.04-.05.07-.11.11-.16.41-.57.8-1.15,1.2-1.73.11-.17.23-.33.34-.5,2.55-3.85,4.81-7.92,6.7-12.23.93-2.19,2.54-5.81,3.1-9.08,8.19,4.65,14.55,11.74,20.76,18.75ZM617.56,112.8c-1.2.75-2.41,1.48-3.63,2.2-3.25,1.94-6.52,3.82-9.82,5.68-1.8-3.43-3.41-6.96-5.22-10.38-6.26-12.38-12.43-24.83-19.33-36.88-.07-.14-.15-.27-.23-.4,8.33-5.93,16.12-12.64,22.72-20.33.07.03.14.07.22.09,3.61,3.31,6.8,6.87,10.11,10.63,8.51,10.33,16.2,21.34,25.06,31.38.21.24.44.41.68.55-4.06,4.3-8.04,8.71-12.73,12.36-2.56,1.77-5.18,3.46-7.83,5.1ZM447.06,134.45c-1.4-.35-2.79-.7-4.17-1.08-7.57-2.03-14.98-4.44-22.06-7.32,1.65-3.2,3.18-6.46,4.76-9.7,4.24-8.91,8.68-17.71,13.41-26.36,1.48-3.07,3.29-6.03,4.82-9.09.34.17.67.35,1.01.52,6.87,3.61,13.52,7.72,20.79,10.49.61.24,1.22.46,1.84.68-.36,1.53-.78,3.05-1.18,4.57-1.46,5.57-3.21,10.97-4.85,16.51-1.38,4.65-2.78,9.32-4.35,14.22-.89,2.77-1.84,5.5-2.81,8.24-2.41-.52-4.81-1.08-7.2-1.68ZM375.42,93.95c-.57-.64-1.12-1.29-1.68-1.93-3.96-4.57-7.74-9.29-11.44-14.02-3.5-4.66-6.28-9.59-8.88-14.76.51-.25,1.01-.49,1.48-.67,2.73-1.32,5.09-2.71,7.79-4.2,7.69-4.33,15.62-8.86,23.52-13.07,3.29-1.79,6.59-3.54,9.86-5.37,3.78,5.56,8.48,10.52,13.22,15.26,2.04,2.21,4.15,4.32,6.33,6.33-8.69,8.6-17.35,17.23-26.56,25.29-2.79,2.48-5.54,5.01-8.25,7.57-.8.76-1.92,1.69-2.51,2.72-.97-1.04-1.93-2.09-2.88-3.16ZM381.78,100.42c.97-.49,1.37-1.59,2.24-2.22,6.47-6.11,13.25-11.88,19.69-18.04,5.3-4.97,10.45-10.22,15.65-15.34,3.87,3.27,7.94,6.26,12.21,9.02,0,0,0,0,0,0,.09.06.18.11.27.16,1.31.85,2.64,1.67,3.99,2.48.06.03.11.07.17.1h0c1.12.66,2.26,1.32,3.41,1.96-3.48,6.7-7.07,13.34-10.59,20.02-2.41,4.61-4.63,9.32-6.91,14-1.87,3.85-3.69,7.74-5.66,11.54-9.67-4.3-18.63-9.54-26.39-15.94-2.87-2.41-5.6-4.98-8.25-7.65.06-.04.12-.06.18-.11ZM461.87,129.23c1.59-4.96,3.04-9.85,4.53-14.87,1.7-5.58,3.64-11.83,5.14-17.7.1-.72.38-1.58.65-2.48,5.02,1.56,10.15,2.78,15.32,3.68,3.89.57,7.8.91,11.72,1.06,0,0,0,0,0,0,.09,0,.18,0,.28,0,.61.02,1.21.04,1.82.05.26,0,.52.01.78.02.59,0,1.17,0,1.76,0,0,0,.01,0,.02,0-1.77,14.54-1.99,29.15-2.14,43.79-13.52-1.09-28.09-2.8-42.56-5.66.93-2.62,1.83-5.26,2.69-7.91ZM506.73,143.19c.09-6.01.12-12.1.24-18.19.2-7.29.72-14.59,1.48-21.84,0-1.39.43-2.85.55-4.27,9.11-.43,18.17-1.92,26.97-4.38.08.5.16,1.01.25,1.51.82,4.56,1.74,9.09,2.81,13.6,1.17,5.3,3.07,10.39,5.12,15.41,2.26,5.65,4.68,11.64,7.41,17.25-14.41,2.26-29.19,2.13-43.84.99-.32-.02-.66-.05-.98-.07ZM556.67,141.36c-2.98-5.95-5.47-12.11-7.95-18.28-4.12-9.5-6.23-19.82-7.95-30.02,7.26-2.35,14.31-5.36,21.01-8.98,0,0,0,0,0,0,.11-.06.21-.12.31-.17.92-.5,1.83-1.01,2.74-1.53.09-.06.19-.11.28-.17.42-.25.85-.5,1.27-.75,0,0,0,0,0,0,2.98-1.79,5.94-3.65,8.85-5.61.55.85,1.02,1.75,1.52,2.62,8.19,14.52,15.3,29.84,23.12,44.59-2.82,1.58-5.64,3.15-8.44,4.75-6.13,3.35-12.95,6.71-19.55,9.44-5,1.74-10.08,3.09-15.21,4.11ZM604.83,52.02s-.03.02-.05.03c.18-.21.34-.44.46-.7-.02.06-.04.11-.06.17-.05.09-.11.18-.16.27,0,0,0,0,0-.01-.06.08-.13.16-.19.24ZM425.48,10.42c14.76,1.01,29.59.28,44.37.02,13.8-.83,27.58.11,41.19,2.48,19.35,3.68,39.04,8.98,58.95,9.12,14.7.73,29.27-1.97,43.93-1.96-.83,6.86-4.61,13-8,18.92-.28.21-.52.48-.7.79-.1.2-.16.41-.2.63-10.85,16.88-27.97,29.17-45.23,39.11-6.89,3.77-14.12,6.82-21.58,9.13-.73-.1-1.49.09-2.05.6-11.84,3.45-24.21,5.07-36.64,4.75-9.65-.27-19.2-2.26-28.34-5.39-.1-.04-.19-.09-.3-.12-.03,0-.06,0-.1-.01-2.41-.84-4.79-1.74-7.13-2.73-8.64-4.41-17.23-8.97-25.64-13.82-.12-.22-.27-.43-.45-.6-.51-.49-1.07-.66-1.67-.61-.07-.04-.15-.08-.22-.13-10.18-6.06-18.63-14.35-26.75-22.87-5.93-6.38-12.18-13.69-14.42-22.48-1.31-6.61-1.6-14.44,2.65-20.08,9.45,1.67,18.72,4.35,28.31,5.24ZM367.31,18.67c7.56-4.05,15.24-7.98,23.12-11.39-2.77,7.2-2.06,15.99.51,23.08,0,0,0,0,0,0,.15.42.31.83.47,1.24,0,.01.01.03.02.04.61,1.39,1.3,2.74,2.03,4.06-.08.04-.15.09-.23.13-2.02,1.12-4.15,2.26-6.27,3.4-9.35,4.98-18.51,10.17-27.75,15.38-2.6,1.44-5.23,2.92-8,4.13-.01-.03-.03-.06-.04-.08-2.96-6.19-5.7-12.53-7.43-19.19-.37-1.03-.27-3.24-.56-5.05,1.32-1.07,2.65-2.13,4.02-3.14,6.4-4.7,13.14-8.8,20.11-12.62ZM51.46,1009.67c-3.73-1.65-6.8-4.57-8.79-8.11-.49-.76-.83-1.85-1.25-2.83-.02-.09-.03-.18-.05-.27-1.73-6.54-3.04-13.2-4.43-19.82-2.91-14.08-3.81-28.24-6.12-42.39,2.43-.06,4.87,0,7.3.03,8.89.16,17.81.82,26.69,1.82.57,12.72,1.43,25.43,1.47,38.16.28,11.49-.17,22.99-.06,34.48-.75,0-1.5-.02-2.25,0-4.23.03-8.59,1.08-12.51-1.05ZM86.87,1012.61c-5.22-.79-10.48-1.42-15.76-1.71-.01-1.49.02-2.98.05-4.49.47-22.47,0-45.23-1.35-67.72,4.26.54,8.51,1.15,12.73,1.83,0,0-.01,0-.02,0-.03,0-.06,0-.09-.01,10.24,1.62,20.25,3.47,30.38,5.09-.18.96-.37,1.95-.64,2.97-2.61,11.95-5.36,23.89-7.38,35.97-.84,4.79-1.71,9.56-2.66,14.33-.92,4.64-1.98,9.25-3.07,13.85-.11.45-.07.9.07,1.31-5.54-.42-10.47-1.05-12.26-1.42ZM120.29,1012.06c-.93,2.3-8.68,2.61-16.56,2.25.07-.15.13-.32.17-.49.91-3.84,1.79-7.68,2.59-11.54,3.39-18.71,7.13-37.35,11.17-55.93,3.72.56,7.46,1.08,11.24,1.54,3.12.4,6.27.82,9.43.99-7.6,20.47-10.46,42.63-18.05,63.18ZM219.62,862.47c-9.59-4.82-19.99-12.48-26.77-21.06-2.59-7.79-5.1-15.61-7.1-23.57-4.05-17.16-7.36-34.63-9.69-52.24.98.53,2.07.94,3.02,1.43,5.85,2.47,11.87,4.48,18.01,6.11,6.55,1.52,13.13,2.83,19.73,3.99,2.01,30.31,9.41,60.04,12.89,90.21-3.45-1.43-6.77-3.17-10.1-4.86ZM235.19,869.23c-.22-.86-.45-1.66-.48-1.95-.8-6.69-1.71-13.36-2.77-20.01-3.56-23.06-8.4-46-10.13-69.29,18.65,3.06,37.47,4.94,56.34,6.51-.05.4-.01.84.17,1.33,2.23,29.96,5.9,59.82,6.76,89.88-1.28-.09-2.57-.18-3.85-.27-15.54-1.22-30.74-2.65-46.03-6.19ZM290.04,876.05c-.24-5.59-.42-11.18-.72-16.77-1.19-24.86-4.34-49.57-6.13-74.38,17.28,1.4,34.59,2.61,51.8,4.3,4.95.47,9.91.93,14.87,1.37-1.01,19.4-.32,38.96-1.7,58.45-.26,5.16-.58,10.32-.91,15.48-.27,4.38-.89,10.7-1.13,15.53-.12,0-.23-.02-.35-.02-18.58-1.32-37.15-2.63-55.73-3.96ZM489.76,888.58c.16-11.12.16-22.22.38-33.34.4-18.19,1.11-36.61,3.32-54.72.08-.18.13-.36.18-.53,16.31.69,32.63,1.27,48.95,1.73,3.82.1,7.64.23,11.46.37-2.94,29.35-1.67,58.87-1.41,88.32-20.97-.3-41.94-.94-62.89-1.82ZM486.37,824c-1.37,21.43-1.3,42.9-1.57,64.37-20.56-.9-41.11-2.02-61.65-3.26.02-3.29.32-9.3.4-12.08.41-16.25,1.05-32.35,1.23-48.64,0,.03,0,.07,0,.1.06-2.95.11-5.73.17-8.73,0,.03,0,.05,0,.07.08-3.78.16-7.56.3-11.36-.02-2.68.42-5.4.38-8.08,20.96,1.34,41.93,2.46,62.91,3.38-.11.83-.14,1.69-.29,2.45-.79,7.25-1.39,14.51-1.87,21.79ZM420.72,796.06c-.21,2.88-.36,5.78-.46,8.68-.37,12.14-.51,24.2-.76,36.38-.26,13.19-1.15,30.18-1.19,43.69-22.36-1.38-44.7-2.89-67.03-4.42.13-3.58.44-8.16.67-11.58.96-15.07,1.91-30.16,2.16-45.27.17-7.87.17-15.81.29-23.73.07-2.94.17-5.88.38-8.81,21.96,1.94,43.94,3.61,65.94,5.05ZM557.62,890.46c-.11-9.34-.33-18.67-.35-28.01-.18-20.08-.38-40.18,1.78-60.18,11.84.48,23.68,1.07,35.52,1.51,8.13.27,16.27.1,24.4-.1.05,1.42.24,2.88.11,3.92.14,7.84.36,15.68.6,23.51.76,19.68.6,39.33-.68,59-.54.01-1.08.02-1.63.03-19.91.48-39.83.54-59.74.31ZM623.97,890.01c1.25-19.06,1.4-38.17.72-57.25-.22-9.73-.65-19.46-.67-29.19,1.5-.04,3-.07,4.49-.1,11.15-.21,22.32-.34,33.45-.98,4.91-.21,9.8-.63,14.67-1.22.33,28.59-.13,57.18-1.17,85.75-17.09,1.99-34.3,2.6-51.51,2.99ZM718.82,865.71c-1.02,3.39-2.37,6.54-3.87,9.77-.05.12-.11.24-.16.36-2.32,1.03-4.6,2.43-5.07,2.7-7.62,4.25-16.25,5.99-24.8,7.23-1.51.22-3.01.43-4.52.63.15-5.52.49-11.05.59-16.57.87-22.91.75-45.88.57-68.81.02-.14.03-.28.03-.41,8.47-1.21,16.87-2.89,25.19-4.91,4.61-1.03,9.35-1.42,13.88-2.7-.11,10.97,0,21.94.52,32.91.36,13.29,1.18,26.76-2.38,39.79ZM818.94,1006.86c-1.33.04-2.6-.32-3.61-1.21-7.63-8.23-11.37-19.66-15.21-30.13-2.94-7.99-5.28-16.21-6.21-24.72-.21-1.91-.34-3.82-.47-5.73.01,0,.03,0,.04,0,4.99-.01,9.96-.26,14.93-.74,1.33-.12,2.65-.26,3.97-.39.95,3.18,2.41,6.23,3.46,9.38,1.87,5.07,3.66,10.16,5.32,15.31,4.08,12.49,7.71,25.11,11.36,37.72-1.01.07-2.02.14-3.03.2-3.5.21-7.03.37-10.55.32ZM855.02,1003.42c-5.8,1.12-11.63,1.93-17.5,2.49-.46-1.61-.89-3.22-1.34-4.83-5.42-19.47-11.64-38.71-18.63-57.66,11.19-1.17,22.3-2.61,33.52-4.36,2.79-.42,5.58-.86,8.37-1.31.32,7.13,1.38,14.24,1.94,21.37,1.16,13.98,3.1,27.86,4.89,41.88-3.75.88-7.52,1.65-11.25,2.42ZM895.75,961.97c-.79,7.26-1.6,14.52-2.28,21.79-.22,2.11-.32,4.22-.57,6.32-.05.59-.46.98-.91,1.31-6.45,3.91-13.56,6.45-20.86,8.39-.41-3.62-.98-7.54-1.51-11.47-2.15-17.07-4-34.22-5.23-51.37,5.72-.94,11.44-1.93,17.14-2.98,4.89-.9,9.78-1.81,14.61-3.02.76-.19,1.54-.4,2.32-.62-.37,10.57-1.61,21.13-2.72,31.64ZM913.94,846.89c-3.41,19.94-8.35,39.58-11.53,59.57-.96,5.62-1.81,11.25-2.73,16.87-.1.41-.06.83.05,1.23-3.73,1.91-10,2.52-13.2,3.4-20.47,3.89-41.08,7.21-61.76,9.7-3.45.39-6.95.77-10.46,1.13-.25,0-.49.01-.73.07-2.77.28-5.54.54-8.29.76-4.29.37-8.59.48-12.89.5-.32-.32-.72-.54-1.17-.64-3.13-8.78-5.49-17.81-7.86-26.82-10.98-45.67-20.05-91.85-31.3-137.47-8.41-32.15-17.46-64.33-22.15-97.28-.04-.35-.12-.78-.13-1.13,0-.74-.33-1.43-.86-1.9.53-14.21.97-28.42.33-42.63-2.03-37.97-10.75-75.1-12.89-113.1-3.01-40.71,5.24-81.47,2.38-122.09,0-.01,0-.01,0-.03.52-7.65,1.45-23.5,2.51-31.09.59-3.61,1.27-7.2,1.96-10.79.57-2.99,1.19-6.01,1.43-9.05.11-1.35-.9-2.58-2.26-2.7-1.34-.12-2.59.91-2.7,2.26-.34,3.66-1.07,6.91-1.78,10.75-1.09,5.26-1.86,10.57-2.45,15.9-.93-5.02-1.92-10.02-2.81-15.04-.69-2.82-.64-6.01-2.02-8.59-1.32-1.76-4.27-.72-4.41,1.37,2.34,12.93,5.17,25.87,6.82,38.94,3.8,32.25-1.23,64.6-2.04,96.88-.67,19.57.24,39.2,2.69,58.63,3.26,29.98,9.3,59.43,10.67,89.71.54,13.34.1,26.68-.36,40.01-1,23.58-1.08,47.19-2.06,70.78-.44,14.27-.99,28.54-1.21,42.81-2.76.82-5.54,1.45-8.41,1.82-7.88,1.25-15.56,3.48-23.42,4.85-13.67,2.52-27.62,3.25-41.53,3.64-25.56.63-51.13,1.42-76.67-.34-57.81-2.15-115.67-3.65-173.35-8.27-46.02-3.86-92.05-7.63-138.04-11.79-16.99-1.68-33.56-3.61-50.39-7.03-10.12-1.96-20.14-4.66-29.53-8.98-.3-.53-2.59-1.71-4.13-2.28-2.87-24.16-3.82-48.54-2.14-72.74,2.2-21.27,6.69-42.24,12.06-62.92,4.76-18.82,9.64-37.13,16.22-55.54,10.99-28.58,16.97-59.18,17.53-89.94.12-15.39-.63-30.78-1.2-46.15-.71-16.65-2.52-33.32-.77-49.97,2.35-28.32,3.66-57.64,15.56-83.91-.02.03-.04.05-.06.07,1.61-2.38-1.35-5-3.64-3.29-1.89,2.32-2.52,5.44-3.74,8.15-2.22,5.75-3.95,11.68-5.43,17.66-2.6-10.27-5.36-20.78-8.16-31.01-.07-.43-.26-.86-.21-1.29.16-1.63-1.4-3-2.99-2.66-2.85.6-2.04,3.94-1.4,5.97,2.97,10.71,5.71,21.4,8.46,32.18.53,2.06,1.02,4.04,1.57,6.18.18.57.27,1.2.44,1.79-2.48,14.08-3.62,28.39-4.79,42.64-.61,8.37-1.5,16.74-1.38,25.14,1.03,25.98,2.9,51.96,2.79,77.98-.5,29.8-6.13,59.39-16.73,87.27-5.95,16.59-10.79,33.56-15.13,50.64-6.56,25.18-12.62,50.7-14.41,76.73-1.31,25.87.54,51.82,3.86,77.48,1.4,9.54,2.95,19.06,4.8,28.52-.23.38-.36.82-.34,1.29-2.43,25.15-6.83,50.12-12.7,74.73-3.78,15.96-7.55,31.97-13.44,47.31-1.73,4.83-3.57,9.62-5.7,14.3-1.21,2.69-2.49,5.34-3.83,7.97-3.87-.11-7.71-.62-11.54-1.11-4.2-.53-8.18-1.07-12.32-1.71-.24-.08-.49-.11-.75-.12-.56-.09-1.11-.17-1.67-.26-20.06-3.3-40.04-7.24-60.37-8.76-5.05-.35-10.11-.61-15.16-.71-2.8-.06-5.61-.13-8.4-.02-.09,0-.18,0-.27,0-.26-1.91-.54-3.81-.87-5.71-1.3-7.51-2.9-14.96-4.51-22.41-4.71-21.62-9.03-43.34-12.34-65.21-2.85-19.77-4.16-39.8-5.48-59.74-5.79-88.81,3.32-177.68,14.5-265.73,6.03-55.72,16.45-110.95,33.08-164.58,9.65-32.23,22.63-63.91,36.13-94.78,11.85-26.35,24.87-52.23,41.71-75.82,8.77-12.45,18.23-24.51,28.81-35.47,9.63-9.65,20.25-18.25,31.19-26.36,19.96-14.43,41.29-26.95,62.73-39.04,16.3-9.2,32.93-17.32,50.78-23.39,10.22-3.84,22.91-6.95,33.01-13.9.46,3.58,2.06,7.06,3.17,10.46,2.29,5.9,4.99,11.63,7.89,17.25,5.02,10.27,12.24,19.21,19.78,27.72,7.47,8.81,15.64,17.09,25.32,23.47,25.55,17.41,60.41,24.46,90.73,28.26,29.78,3.06,61.12,5.79,89.71-5.03,14.71-6.31,28.47-14.62,42.36-22.63,4.07-2.45,8.16-4.92,11.92-7.83,4.5-3.71,8.23-7.8,12.38-12.19,4.07-4.43,8.21-8.86,11.45-13.95,3.22-4.97,5.73-10.35,7.97-15.82.08-.2.12-.4.14-.6.44.18.88.36,1.31.54,5.26,2.5,9.75,5.35,14.68,8.73,14.64,10.35,28.27,22.04,42.51,32.93,17.15,13.63,32.32,29.51,46.05,46.55,10.14,12.11,19.22,24.86,28.52,37.65,6.03,8.17,11.85,16.48,17.43,24.96,7.01,10.4,12.67,21.61,18.64,32.61,5.81,10.7,11.5,21.47,16.48,32.58,12.23,27.93,23.01,56.79,30.63,86.39,13.15,51.51,21.99,103.97,28.28,156.72,7.82,55.97,14.32,112.49,14.41,169.11-.33,14.69-.65,29.73-.95,44.57-1.21,35.1-.47,70.46-5.49,105.31Z"/>
        <path class="cls-1" d="M424.78,824.29s0,.06,0,.1c0,0,0,0,0,0,0-.03,0-.06,0-.09Z"/>
        <path class="cls-1" d="M174.99,549c-13.29-2.18-26.48-4.92-39.62-7.84-10.65-2.39-21.33-4.63-31.84-7.57-6.95-2.25-13.64-5.17-20.49-7.67-.76-.51-1.45-1.15-2.53-.9-1.27.23-2.32,1.58-2,2.9.48,1.93,2.49,2.58,4.16,3.18,2.35.84,4.67,1.74,6.98,2.67,5.17,2.13,10.43,4.11,15.85,5.5,24.36,6.02,48.92,11.59,73.73,15.38,1.34.19,2.59-.96,2.7-2.26.03-3.56-4.52-2.71-6.93-3.39Z"/>
        <path class="cls-1" d="M176,571.68c-12.39,2.19-24.82,4.2-37.26,6.16-1.49.23-2.97.45-4.46.65-1.65.23-4.19.35-4.57,2.43-.24,1.33.51,2.67,1.88,2.98,15.07-2.11,30.25-4.74,45.31-7.33,1.33-.24,2.24-1.57,2-2.9-.24-1.34-1.56-2.23-2.9-2Z"/>
        <path class="cls-1" d="M822.54,574.59c-15.35,6.06-30.89,11.6-46.43,17.14-8.28,2.71-16.32,6.47-24.96,7.87-2.1.26-4.98-.66-5.38,2.3-.06,7.36,21.08-1.89,25.01-3,7.6-2.68,15.2-5.4,22.78-8.14,10.42-3.76,20.83-7.57,31.12-11.68,1.26-.5,1.74-2.15,1.18-3.31-.55-1.24-2.1-1.75-3.31-1.18Z"/>
        <path class="cls-1" d="M774.95,633.92c-3.92-.25-7.84-.58-11.75-.98-4.41-.35-8.81-1.04-13.17-1.54-1.33.22-2.27,1.58-2.01,2.9.47,2.36,3.3,2.22,5.17,2.55,2.9.38,5.81.66,8.72.96,4.19.42,8.39.79,12.6,1.06,1.35.09,2.58-.89,2.7-2.26.12-1.33-.91-2.61-2.26-2.7Z"/>
        <path class="cls-1" d="M314.76,688.54c-.73-10.57-1.27-21.16-1.76-31.74-.34-9.06-1.13-18.18.2-27.2,1.24-3.62-3.98-5.2-4.79-1.48-1.59,9.55-.74,19.51-.36,29.16.82,16.4,1.45,32.84,3.38,49.15.64,3.22,5.38,2.3,4.9-.9-.71-5.56-1.15-11.11-1.56-16.99Z"/>
        <path class="cls-1" d="M330.49,673.41c-2.82-2.1-4.56,1.03-4.73,3.61-.8,4.82-1.43,9.68-2.08,14.52-.64,4.79-1.25,9.59-1.78,14.39-.15,1.35.93,2.58,2.26,2.7,1.37.12,2.55-.91,2.7-2.26.5-4.5,1.04-9.01,1.66-13.5.7-5.07,1.28-9.87,2.13-14.97.23-1.53,1.31-3.19-.16-4.49Z"/>
        <path class="cls-1" d="M600.02,461.35c-3.22-22.05-6.88-44.05-10.7-65.98-.22-3.28-5.03-3-4.97.24,5.19,30.53,10.3,61.19,14.39,91.93.64,3.23,5.38,2.3,4.9-.9-1.1-8.45-2.34-16.88-3.62-25.3Z"/>
        <path class="cls-1" d="M622.68,487.65c-.76-11.1-1.58-22.21-2.36-33.31.17-2.87-4.19-3.69-4.9-.67-.15.95,0,1.9.06,2.85,1.53,21.05,2.92,42.11,4.57,63.15.26,3.29,5.08,2.99,4.97-.24-.82-10.59-1.63-21.17-2.34-31.77ZM620.27,454.79c.03-.16.04-.3.05-.45,0,.05,0,.1,0,.16-.02.1-.03.19-.05.29Z"/>
      </g>
    </g>
  </g>
</svg>